STARTFONT 2.1
FONT -Efont-Fixed-Bold-R-Normal--24-240-75-75-C-120-ISO10646-1
SIZE 24 75 75
FONTBOUNDINGBOX 12 24 0 -2
STARTPROPERTIES 18
COPYRIGHT "(c) Copyright 2000-2003 /efont/ The Electronic Font Open Laboratory."
FOUNDRY "Efont"
FAMILY_NAME "Fixed"
WEIGHT_NAME "Bold"
SLANT "R"
SETWIDTH_NAME "Normal"
ADD_STYLE_NAME ""
PIXEL_SIZE 24
POINT_SIZE 240
RESOLUTION_X 75
RESOLUTION_Y 75
AVERAGE_WIDTH 120
CHARSET_REGISTRY "ISO10646"
CHARSET_ENCODING "1"
_MULE_BASELINE_OFFSET -3
FONT_ASCENT 22
FONT_DESCENT 2
DEFAULT_CHAR 32
ENDPROPERTIES
CHARS 2125
STARTCHAR U+0020
ENCODING 32
SWIDTH 500 0
DWIDTH 12 0
BBX 12 24 0 -2
BITMAP 
0000
0000
0000
0000
0000
0000
0000
0000
0000
0000
0000
0000
0000
0000
0000
0000
0000
0000
0000
0000
0000
0000
0000
0000
ENDCHAR
STARTCHAR U+0021
ENCODING 33
SWIDTH 500 0
DWIDTH 12 0
BBX 12 24 0 -2
BITMAP 
0000
0000
0000
0000
0000
0e00
0e00
0e00
0e00
0e00
0e00
0e00
0e00
0e00
0e00
0000
0000
0e00
1f00
0e00
0000
0000
0000
0000
ENDCHAR
STARTCHAR U+0022
ENCODING 34
SWIDTH 500 0
DWIDTH 12 0
BBX 12 24 0 -2
BITMAP 
0000
0000
0000
0000
3b80
3b80
3b80
3b80
3b80
0000
0000
0000
0000
0000
0000
0000
0000
0000
0000
0000
0000
0000
0000
0000
ENDCHAR
STARTCHAR U+0023
ENCODING 35
SWIDTH 500 0
DWIDTH 12 0
BBX 12 24 0 -2
BITMAP 
0000
0000
0000
0000
0000
1dc0
1dc0
1dc0
7fe0
7fe0
3b80
3b80
3b80
3b80
ffc0
ffc0
7700
7700
7700
0000
0000
0000
0000
0000
ENDCHAR
STARTCHAR U+0024
ENCODING 36
SWIDTH 500 0
DWIDTH 12 0
BBX 12 24 0 -2
BITMAP 
0000
0000
0000
0000
0000
0e00
3f80
7fe0
eee0
ee00
7e00
3f80
0fc0
0ee0
0ee0
eee0
ffc0
7f80
0e00
0000
0000
0000
0000
0000
ENDCHAR
STARTCHAR U+0025
ENCODING 37
SWIDTH 500 0
DWIDTH 12 0
BBX 12 24 0 -2
BITMAP 
0000
0000
0000
0000
0000
79c0
fdc0
ed80
fd80
7b00
0700
0e00
0e00
1c00
1dc0
3be0
3b60
77e0
73c0
0000
0000
0000
0000
0000
ENDCHAR
STARTCHAR U+0026
ENCODING 38
SWIDTH 500 0
DWIDTH 12 0
BBX 12 24 0 -2
BITMAP 
0000
0000
0000
0000
0000
0f00
1f80
3dc0
39c0
3b80
1f80
3f00
7e00
f760
e3e0
e3c0
e380
7fe0
3ee0
0000
0000
0000
0000
0000
ENDCHAR
STARTCHAR U+0027
ENCODING 39
SWIDTH 500 0
DWIDTH 12 0
BBX 12 24 0 -2
BITMAP 
0000
0000
0000
0e00
1f00
1f00
0700
0700
0e00
1c00
0000
0000
0000
0000
0000
0000
0000
0000
0000
0000
0000
0000
0000
0000
ENDCHAR
STARTCHAR U+0028
ENCODING 40
SWIDTH 500 0
DWIDTH 12 0
BBX 12 24 0 -2
BITMAP 
0000
0000
0000
0000
0000
0380
0700
0f00
0e00
1e00
1c00
1c00
1c00
1c00
1e00
0e00
0f00
0700
0380
0000
0000
0000
0000
0000
ENDCHAR
STARTCHAR U+0029
ENCODING 41
SWIDTH 500 0
DWIDTH 12 0
BBX 12 24 0 -2
BITMAP 
0000
0000
0000
0000
0000
3800
1c00
1e00
0e00
0f00
0700
0700
0700
0700
0f00
0e00
1e00
1c00
3800
0000
0000
0000
0000
0000
ENDCHAR
STARTCHAR U+002A
ENCODING 42
SWIDTH 500 0
DWIDTH 12 0
BBX 12 24 0 -2
BITMAP 
0000
0000
0000
0000
0000
0000
0000
0e00
0e00
eee0
f6e0
3f80
0e00
3f80
f6e0
eee0
0e00
0e00
0000
0000
0000
0000
0000
0000
ENDCHAR
STARTCHAR U+002B
ENCODING 43
SWIDTH 500 0
DWIDTH 12 0
BBX 12 24 0 -2
BITMAP 
0000
0000
0000
0000
0000
0000
0000
0000
0e00
0e00
0e00
0e00
ffe0
ffe0
0e00
0e00
0e00
0e00
0000
0000
0000
0000
0000
0000
ENDCHAR
STARTCHAR U+002C
ENCODING 44
SWIDTH 500 0
DWIDTH 12 0
BBX 12 24 0 -2
BITMAP 
0000
0000
0000
0000
0000
0000
0000
0000
0000
0000
0000
0000
0000
0000
0000
0e00
1f00
1f00
0700
0700
0e00
1c00
0000
0000
ENDCHAR
STARTCHAR U+002D
ENCODING 45
SWIDTH 500 0
DWIDTH 12 0
BBX 12 24 0 -2
BITMAP 
0000
0000
0000
0000
0000
0000
0000
0000
0000
0000
0000
0000
ffe0
ffe0
0000
0000
0000
0000
0000
0000
0000
0000
0000
0000
ENDCHAR
STARTCHAR U+002E
ENCODING 46
SWIDTH 500 0
DWIDTH 12 0
BBX 12 24 0 -2
BITMAP 
0000
0000
0000
0000
0000
0000
0000
0000
0000
0000
0000
0000
0000
0000
0000
0e00
1f00
1f00
0e00
0000
0000
0000
0000
0000
ENDCHAR
STARTCHAR U+002F
ENCODING 47
SWIDTH 500 0
DWIDTH 12 0
BBX 12 24 0 -2
BITMAP 
0000
0000
0000
0000
0000
01c0
01c0
0380
0380
0700
0700
0e00
0e00
1c00
1c00
3800
3800
7000
7000
0000
0000
0000
0000
0000
ENDCHAR
STARTCHAR U+0030
ENCODING 48
SWIDTH 500 0
DWIDTH 12 0
BBX 12 24 0 -2
BITMAP 
0000
0000
0000
0000
0000
1f00
3f80
7bc0
71c0
73c0
77c0
76c0
7dc0
79c0
71c0
71c0
7bc0
3f80
1f00
0000
0000
0000
0000
0000
ENDCHAR
STARTCHAR U+0031
ENCODING 49
SWIDTH 500 0
DWIDTH 12 0
BBX 12 24 0 -2
BITMAP 
0000
0000
0000
0000
0000
0e00
1e00
3e00
7600
0e00
0e00
0e00
0e00
0e00
0e00
0e00
0e00
7fc0
7fc0
0000
0000
0000
0000
0000
ENDCHAR
STARTCHAR U+0032
ENCODING 50
SWIDTH 500 0
DWIDTH 12 0
BBX 12 24 0 -2
BITMAP 
0000
0000
0000
0000
0000
1f80
3fc0
71e0
70e0
00e0
01c0
0380
0700
0e00
1c00
3800
7000
7fe0
7fe0
0000
0000
0000
0000
0000
ENDCHAR
STARTCHAR U+0033
ENCODING 51
SWIDTH 500 0
DWIDTH 12 0
BBX 12 24 0 -2
BITMAP 
0000
0000
0000
0000
0000
1f80
3fc0
71e0
70e0
00e0
01c0
0f80
0fc0
00e0
00e0
70e0
71e0
3fc0
1f80
0000
0000
0000
0000
0000
ENDCHAR
STARTCHAR U+0034
ENCODING 52
SWIDTH 500 0
DWIDTH 12 0
BBX 12 24 0 -2
BITMAP 
0000
0000
0000
0000
0000
0700
0700
0e00
0e00
1d80
1d80
3b80
3b80
7380
7fe0
7fe0
0380
0380
0380
0000
0000
0000
0000
0000
ENDCHAR
STARTCHAR U+0035
ENCODING 53
SWIDTH 500 0
DWIDTH 12 0
BBX 12 24 0 -2
BITMAP 
0000
0000
0000
0000
0000
7fc0
7fc0
7000
7000
7000
7f80
7fc0
01e0
00e0
00e0
70e0
71e0
3fc0
1f80
0000
0000
0000
0000
0000
ENDCHAR
STARTCHAR U+0036
ENCODING 54
SWIDTH 500 0
DWIDTH 12 0
BBX 12 24 0 -2
BITMAP 
0000
0000
0000
0000
0000
1f80
3fc0
78e0
70e0
7000
7780
7fc0
79e0
70e0
70e0
70e0
79e0
3fc0
1f80
0000
0000
0000
0000
0000
ENDCHAR
STARTCHAR U+0037
ENCODING 55
SWIDTH 500 0
DWIDTH 12 0
BBX 12 24 0 -2
BITMAP 
0000
0000
0000
0000
0000
7fe0
7fe0
01c0
01c0
0380
0380
0700
0700
0e00
0e00
1c00
1c00
3800
3800
0000
0000
0000
0000
0000
ENDCHAR
STARTCHAR U+0038
ENCODING 56
SWIDTH 500 0
DWIDTH 12 0
BBX 12 24 0 -2
BITMAP 
0000
0000
0000
0000
0000
1f00
3f80
71c0
71c0
71c0
3f80
3f80
7bc0
f1e0
e0e0
e0e0
f1e0
7fc0
3f80
0000
0000
0000
0000
0000
ENDCHAR
STARTCHAR U+0039
ENCODING 57
SWIDTH 500 0
DWIDTH 12 0
BBX 12 24 0 -2
BITMAP 
0000
0000
0000
0000
0000
1f80
3fc0
79e0
70e0
70e0
79e0
3fe0
1f60
00e0
00e0
70e0
71e0
3fc0
1f80
0000
0000
0000
0000
0000
ENDCHAR
STARTCHAR U+003A
ENCODING 58
SWIDTH 500 0
DWIDTH 12 0
BBX 12 24 0 -2
BITMAP 
0000
0000
0000
0000
0000
0000
0000
0000
0e00
1f00
1f00
0e00
0000
0000
0000
0e00
1f00
1f00
0e00
0000
0000
0000
0000
0000
ENDCHAR
STARTCHAR U+003B
ENCODING 59
SWIDTH 500 0
DWIDTH 12 0
BBX 12 24 0 -2
BITMAP 
0000
0000
0000
0000
0000
0000
0000
0000
0e00
1f00
1f00
0e00
0000
0000
0000
0e00
1f00
1f00
0700
0700
0e00
1c00
0000
0000
ENDCHAR
STARTCHAR U+003C
ENCODING 60
SWIDTH 500 0
DWIDTH 12 0
BBX 12 24 0 -2
BITMAP 
0000
0000
0000
0000
0000
0000
0000
0000
00e0
03c0
0f00
3e00
f800
f800
3e00
0f80
03c0
00e0
0000
0000
0000
0000
0000
0000
ENDCHAR
STARTCHAR U+003D
ENCODING 61
SWIDTH 500 0
DWIDTH 12 0
BBX 12 24 0 -2
BITMAP 
0000
0000
0000
0000
0000
0000
0000
0000
0000
0000
ffe0
ffe0
0000
0000
ffe0
ffe0
0000
0000
0000
0000
0000
0000
0000
0000
ENDCHAR
STARTCHAR U+003E
ENCODING 62
SWIDTH 500 0
DWIDTH 12 0
BBX 12 24 0 -2
BITMAP 
0000
0000
0000
0000
0000
0000
0000
0000
e000
7800
1e00
0f80
03e0
03e0
0f80
1e00
7800
e000
0000
0000
0000
0000
0000
0000
ENDCHAR
STARTCHAR U+003F
ENCODING 63
SWIDTH 500 0
DWIDTH 12 0
BBX 12 24 0 -2
BITMAP 
0000
0000
0000
0000
0000
1f00
3f80
7bc0
61c0
01c0
0380
0700
0e00
0e00
0e00
0000
0000
0e00
1f00
0e00
0000
0000
0000
0000
ENDCHAR
STARTCHAR U+0040
ENCODING 64
SWIDTH 500 0
DWIDTH 12 0
BBX 12 24 0 -2
BITMAP 
0000
0000
0000
0000
0000
1f80
3fc0
78e0
70e0
77e0
77e0
76e0
76e0
76e0
77e0
77c0
7800
3fe0
1fe0
0000
0000
0000
0000
0000
ENDCHAR
STARTCHAR U+0041
ENCODING 65
SWIDTH 500 0
DWIDTH 12 0
BBX 12 24 0 -2
BITMAP 
0000
0000
0000
0000
0000
1f80
3fc0
79e0
70e0
70e0
70e0
7fe0
7fe0
70e0
70e0
70e0
70e0
70e0
70e0
0000
0000
0000
0000
0000
ENDCHAR
STARTCHAR U+0042
ENCODING 66
SWIDTH 500 0
DWIDTH 12 0
BBX 12 24 0 -2
BITMAP 
0000
0000
0000
0000
0000
7f00
7f80
73c0
71c0
71c0
7380
7f80
7fc0
71c0
70e0
70e0
71e0
7fc0
7f80
0000
0000
0000
0000
0000
ENDCHAR
STARTCHAR U+0043
ENCODING 67
SWIDTH 500 0
DWIDTH 12 0
BBX 12 24 0 -2
BITMAP 
0000
0000
0000
0000
0000
1f80
3fc0
79e0
70e0
7000
7000
7000
7000
7000
7000
70e0
79e0
3fc0
1f80
0000
0000
0000
0000
0000
ENDCHAR
STARTCHAR U+0044
ENCODING 68
SWIDTH 500 0
DWIDTH 12 0
BBX 12 24 0 -2
BITMAP 
0000
0000
0000
0000
0000
7f80
7fc0
71e0
70e0
70e0
70e0
70e0
70e0
70e0
70e0
70e0
71e0
7fc0
7f80
0000
0000
0000
0000
0000
ENDCHAR
STARTCHAR U+0045
ENCODING 69
SWIDTH 500 0
DWIDTH 12 0
BBX 12 24 0 -2
BITMAP 
0000
0000
0000
0000
0000
7fe0
7fe0
7000
7000
7000
7000
7f80
7f80
7000
7000
7000
7000
7fe0
7fe0
0000
0000
0000
0000
0000
ENDCHAR
STARTCHAR U+0046
ENCODING 70
SWIDTH 500 0
DWIDTH 12 0
BBX 12 24 0 -2
BITMAP 
0000
0000
0000
0000
0000
7fe0
7fe0
7000
7000
7000
7000
7f80
7f80
7000
7000
7000
7000
7000
7000
0000
0000
0000
0000
0000
ENDCHAR
STARTCHAR U+0047
ENCODING 71
SWIDTH 500 0
DWIDTH 12 0
BBX 12 24 0 -2
BITMAP 
0000
0000
0000
0000
0000
1f80
3fc0
79e0
70e0
7000
7000
7000
73e0
73e0
70e0
70e0
79e0
3fc0
1f80
0000
0000
0000
0000
0000
ENDCHAR
STARTCHAR U+0048
ENCODING 72
SWIDTH 500 0
DWIDTH 12 0
BBX 12 24 0 -2
BITMAP 
0000
0000
0000
0000
0000
70e0
70e0
70e0
70e0
70e0
70e0
7fe0
7fe0
70e0
70e0
70e0
70e0
70e0
70e0
0000
0000
0000
0000
0000
ENDCHAR
STARTCHAR U+0049
ENCODING 73
SWIDTH 500 0
DWIDTH 12 0
BBX 12 24 0 -2
BITMAP 
0000
0000
0000
0000
0000
3f80
3f80
0e00
0e00
0e00
0e00
0e00
0e00
0e00
0e00
0e00
0e00
3f80
3f80
0000
0000
0000
0000
0000
ENDCHAR
STARTCHAR U+004A
ENCODING 74
SWIDTH 500 0
DWIDTH 12 0
BBX 12 24 0 -2
BITMAP 
0000
0000
0000
0000
0000
00e0
00e0
00e0
00e0
00e0
00e0
00e0
00e0
00e0
00e0
70e0
71e0
3fc0
1f80
0000
0000
0000
0000
0000
ENDCHAR
STARTCHAR U+004B
ENCODING 75
SWIDTH 500 0
DWIDTH 12 0
BBX 12 24 0 -2
BITMAP 
0000
0000
0000
0000
0000
70e0
71c0
7380
7700
7600
7c00
7800
7c00
7600
7700
7380
71c0
70e0
7060
0000
0000
0000
0000
0000
ENDCHAR
STARTCHAR U+004C
ENCODING 76
SWIDTH 500 0
DWIDTH 12 0
BBX 12 24 0 -2
BITMAP 
0000
0000
0000
0000
0000
7000
7000
7000
7000
7000
7000
7000
7000
7000
7000
7000
7000
7fe0
7fe0
0000
0000
0000
0000
0000
ENDCHAR
STARTCHAR U+004D
ENCODING 77
SWIDTH 500 0
DWIDTH 12 0
BBX 12 24 0 -2
BITMAP 
0000
0000
0000
0000
0000
70e0
79e0
79e0
7de0
7fe0
7760
7760
76e0
70e0
70e0
70e0
70e0
70e0
70e0
0000
0000
0000
0000
0000
ENDCHAR
STARTCHAR U+004E
ENCODING 78
SWIDTH 500 0
DWIDTH 12 0
BBX 12 24 0 -2
BITMAP 
0000
0000
0000
0000
0000
70e0
78e0
78e0
7ce0
7ce0
76e0
76e0
7760
7760
73e0
73e0
71e0
71e0
70e0
0000
0000
0000
0000
0000
ENDCHAR
STARTCHAR U+004F
ENCODING 79
SWIDTH 500 0
DWIDTH 12 0
BBX 12 24 0 -2
BITMAP 
0000
0000
0000
0000
0000
1f80
3fc0
79e0
70e0
70e0
70e0
70e0
70e0
70e0
70e0
70e0
79e0
3fc0
1f80
0000
0000
0000
0000
0000
ENDCHAR
STARTCHAR U+0050
ENCODING 80
SWIDTH 500 0
DWIDTH 12 0
BBX 12 24 0 -2
BITMAP 
0000
0000
0000
0000
0000
7f80
7fc0
71e0
70e0
70e0
71e0
7fc0
7f80
7000
7000
7000
7000
7000
7000
0000
0000
0000
0000
0000
ENDCHAR
STARTCHAR U+0051
ENCODING 81
SWIDTH 500 0
DWIDTH 12 0
BBX 12 24 0 -2
BITMAP 
0000
0000
0000
0000
0000
1f80
3fc0
79e0
70e0
70e0
70e0
70e0
70e0
70e0
70e0
73e0
7be0
3fc0
1ff0
0070
0000
0000
0000
0000
ENDCHAR
STARTCHAR U+0052
ENCODING 82
SWIDTH 500 0
DWIDTH 12 0
BBX 12 24 0 -2
BITMAP 
0000
0000
0000
0000
0000
7f80
7fc0
71e0
70e0
70e0
71e0
7fc0
7f80
7380
7380
71c0
71c0
70e0
70e0
0000
0000
0000
0000
0000
ENDCHAR
STARTCHAR U+0053
ENCODING 83
SWIDTH 500 0
DWIDTH 12 0
BBX 12 24 0 -2
BITMAP 
0000
0000
0000
0000
0000
1f80
3fc0
71e0
70e0
7000
7800
3f80
1fc0
01e0
00e0
70e0
71e0
7fc0
3f80
0000
0000
0000
0000
0000
ENDCHAR
STARTCHAR U+0054
ENCODING 84
SWIDTH 500 0
DWIDTH 12 0
BBX 12 24 0 -2
BITMAP 
0000
0000
0000
0000
0000
ffe0
ffe0
0e00
0e00
0e00
0e00
0e00
0e00
0e00
0e00
0e00
0e00
0e00
0e00
0000
0000
0000
0000
0000
ENDCHAR
STARTCHAR U+0055
ENCODING 85
SWIDTH 500 0
DWIDTH 12 0
BBX 12 24 0 -2
BITMAP 
0000
0000
0000
0000
0000
70e0
70e0
70e0
70e0
70e0
70e0
70e0
70e0
70e0
70e0
70e0
79e0
3fc0
1f80
0000
0000
0000
0000
0000
ENDCHAR
STARTCHAR U+0056
ENCODING 86
SWIDTH 500 0
DWIDTH 12 0
BBX 12 24 0 -2
BITMAP 
0000
0000
0000
0000
0000
e0e0
e0e0
e0e0
71c0
71c0
71c0
3b80
3b80
3b80
1b00
1f00
1f00
0e00
0e00
0000
0000
0000
0000
0000
ENDCHAR
STARTCHAR U+0057
ENCODING 87
SWIDTH 500 0
DWIDTH 12 0
BBX 12 24 0 -2
BITMAP 
0000
0000
0000
0000
0000
70e0
70e0
70e0
70e0
70e0
70e0
76e0
7760
7760
7de0
7de0
79e0
79e0
70e0
0000
0000
0000
0000
0000
ENDCHAR
STARTCHAR U+0058
ENCODING 88
SWIDTH 500 0
DWIDTH 12 0
BBX 12 24 0 -2
BITMAP 
0000
0000
0000
0000
0000
70e0
70e0
39c0
39c0
1d80
1d80
0f00
0f00
1d80
1d80
39c0
39c0
70e0
70e0
0000
0000
0000
0000
0000
ENDCHAR
STARTCHAR U+0059
ENCODING 89
SWIDTH 500 0
DWIDTH 12 0
BBX 12 24 0 -2
BITMAP 
0000
0000
0000
0000
0000
e0e0
e0e0
71c0
71c0
3b80
3f80
1f00
0e00
0e00
0e00
0e00
0e00
0e00
0e00
0000
0000
0000
0000
0000
ENDCHAR
STARTCHAR U+005A
ENCODING 90
SWIDTH 500 0
DWIDTH 12 0
BBX 12 24 0 -2
BITMAP 
0000
0000
0000
0000
0000
ffe0
ffe0
00e0
01e0
03c0
0780
0f00
1e00
3c00
7800
f000
e000
ffe0
ffe0
0000
0000
0000
0000
0000
ENDCHAR
STARTCHAR U+005B
ENCODING 91
SWIDTH 500 0
DWIDTH 12 0
BBX 12 24 0 -2
BITMAP 
0000
0000
0000
0000
1f80
1f80
1c00
1c00
1c00
1c00
1c00
1c00
1c00
1c00
1c00
1c00
1c00
1f80
1f80
0000
0000
0000
0000
0000
ENDCHAR
STARTCHAR U+005C
ENCODING 92
SWIDTH 500 0
DWIDTH 12 0
BBX 12 24 0 -2
BITMAP 
0000
0000
0000
0000
0000
7000
7000
3800
3800
1c00
1c00
0e00
0e00
0700
0700
0380
0380
01c0
01c0
0000
0000
0000
0000
0000
ENDCHAR
STARTCHAR U+005D
ENCODING 93
SWIDTH 500 0
DWIDTH 12 0
BBX 12 24 0 -2
BITMAP 
0000
0000
0000
0000
3f00
3f00
0700
0700
0700
0700
0700
0700
0700
0700
0700
0700
0700
3f00
3f00
0000
0000
0000
0000
0000
ENDCHAR
STARTCHAR U+005E
ENCODING 94
SWIDTH 500 0
DWIDTH 12 0
BBX 12 24 0 -2
BITMAP 
0000
0000
0000
0000
0600
0f00
1d80
39c0
70e0
0000
0000
0000
0000
0000
0000
0000
0000
0000
0000
0000
0000
0000
0000
0000
ENDCHAR
STARTCHAR U+005F
ENCODING 95
SWIDTH 500 0
DWIDTH 12 0
BBX 12 24 0 -2
BITMAP 
0000
0000
0000
0000
0000
0000
0000
0000
0000
0000
0000
0000
0000
0000
0000
0000
0000
0000
0000
0000
fff0
fff0
0000
0000
ENDCHAR
STARTCHAR U+0060
ENCODING 96
SWIDTH 500 0
DWIDTH 12 0
BBX 12 24 0 -2
BITMAP 
0000
0000
0000
0700
0e00
1c00
1c00
1f00
1f00
0e00
0000
0000
0000
0000
0000
0000
0000
0000
0000
0000
0000
0000
0000
0000
ENDCHAR
STARTCHAR U+0061
ENCODING 97
SWIDTH 500 0
DWIDTH 12 0
BBX 12 24 0 -2
BITMAP 
0000
0000
0000
0000
0000
0000
0000
0000
0f80
1fc0
38e0
00e0
0fe0
3fe0
70e0
71e0
73e0
7f60
3ee0
0000
0000
0000
0000
0000
ENDCHAR
STARTCHAR U+0062
ENCODING 98
SWIDTH 500 0
DWIDTH 12 0
BBX 12 24 0 -2
BITMAP 
0000
0000
0000
0000
0000
7000
7000
7000
7000
7780
77c0
7de0
78e0
70e0
70e0
78e0
7de0
77c0
7780
0000
0000
0000
0000
0000
ENDCHAR
STARTCHAR U+0063
ENCODING 99
SWIDTH 500 0
DWIDTH 12 0
BBX 12 24 0 -2
BITMAP 
0000
0000
0000
0000
0000
0000
0000
0000
0000
1fc0
3fc0
78e0
70e0
7000
7000
7000
78e0
3fe0
1fc0
0000
0000
0000
0000
0000
ENDCHAR
STARTCHAR U+0064
ENCODING 100
SWIDTH 500 0
DWIDTH 12 0
BBX 12 24 0 -2
BITMAP 
0000
0000
0000
0000
0000
00e0
00e0
00e0
00e0
1f60
3fe0
79e0
70e0
70e0
70e0
71e0
73e0
3f60
1ee0
0000
0000
0000
0000
0000
ENDCHAR
STARTCHAR U+0065
ENCODING 101
SWIDTH 500 0
DWIDTH 12 0
BBX 12 24 0 -2
BITMAP 
0000
0000
0000
0000
0000
0000
0000
0000
0000
1f80
3fc0
78e0
70e0
7fe0
7fe0
7000
70e0
3fe0
1fc0
0000
0000
0000
0000
0000
ENDCHAR
STARTCHAR U+0066
ENCODING 102
SWIDTH 500 0
DWIDTH 12 0
BBX 12 24 0 -2
BITMAP 
0000
0000
0000
0000
0000
0780
0f80
0e00
0e00
0e00
3f80
3f80
0e00
0e00
0e00
0e00
0e00
0e00
0e00
0000
0000
0000
0000
0000
ENDCHAR
STARTCHAR U+0067
ENCODING 103
SWIDTH 500 0
DWIDTH 12 0
BBX 12 24 0 -2
BITMAP 
0000
0000
0000
0000
0000
0000
0000
0000
0000
1ee0
3f60
7be0
71e0
70e0
70e0
70e0
79e0
3fe0
1f60
00e0
00e0
00e0
1fc0
0f80
ENDCHAR
STARTCHAR U+0068
ENCODING 104
SWIDTH 500 0
DWIDTH 12 0
BBX 12 24 0 -2
BITMAP 
0000
0000
0000
0000
0000
7000
7000
7000
7000
7780
77c0
7de0
78e0
70e0
70e0
70e0
70e0
70e0
70e0
0000
0000
0000
0000
0000
ENDCHAR
STARTCHAR U+0069
ENCODING 105
SWIDTH 500 0
DWIDTH 12 0
BBX 12 24 0 -2
BITMAP 
0000
0000
0000
0000
0000
0e00
0e00
0000
0000
0e00
0e00
0e00
0e00
0e00
0e00
0e00
0e00
0e00
0e00
0000
0000
0000
0000
0000
ENDCHAR
STARTCHAR U+006A
ENCODING 106
SWIDTH 500 0
DWIDTH 12 0
BBX 12 24 0 -2
BITMAP 
0000
0000
0000
0000
0000
0e00
0e00
0000
0000
0e00
0e00
0e00
0e00
0e00
0e00
0e00
0e00
0e00
0e00
0e00
0e00
7e00
7800
0000
ENDCHAR
STARTCHAR U+006B
ENCODING 107
SWIDTH 500 0
DWIDTH 12 0
BBX 12 24 0 -2
BITMAP 
0000
0000
0000
0000
0000
0000
7000
7000
71c0
73c0
7780
7700
7e00
7c00
7e00
7700
7780
73c0
71c0
0000
0000
0000
0000
0000
ENDCHAR
STARTCHAR U+006C
ENCODING 108
SWIDTH 500 0
DWIDTH 12 0
BBX 12 24 0 -2
BITMAP 
0000
0000
0000
0000
0000
0e00
0e00
0e00
0e00
0e00
0e00
0e00
0e00
0e00
0e00
0e00
0e00
0f80
0780
0000
0000
0000
0000
0000
ENDCHAR
STARTCHAR U+006D
ENCODING 109
SWIDTH 500 0
DWIDTH 12 0
BBX 12 24 0 -2
BITMAP 
0000
0000
0000
0000
0000
0000
0000
0000
0000
edc0
ffe0
eee0
eee0
eee0
eee0
eee0
eee0
eee0
eee0
0000
0000
0000
0000
0000
ENDCHAR
STARTCHAR U+006E
ENCODING 110
SWIDTH 500 0
DWIDTH 12 0
BBX 12 24 0 -2
BITMAP 
0000
0000
0000
0000
0000
0000
0000
0000
0000
7780
77c0
7ce0
78e0
70e0
70e0
70e0
70e0
70e0
70e0
0000
0000
0000
0000
0000
ENDCHAR
STARTCHAR U+006F
ENCODING 111
SWIDTH 500 0
DWIDTH 12 0
BBX 12 24 0 -2
BITMAP 
0000
0000
0000
0000
0000
0000
0000
0000
0000
1f80
3fc0
79e0
70e0
70e0
70e0
70e0
79e0
3fc0
1f80
0000
0000
0000
0000
0000
ENDCHAR
STARTCHAR U+0070
ENCODING 112
SWIDTH 500 0
DWIDTH 12 0
BBX 12 24 0 -2
BITMAP 
0000
0000
0000
0000
0000
0000
0000
0000
0000
7780
77c0
7de0
78e0
70e0
70e0
78e0
7de0
77c0
7780
7000
7000
7000
7000
0000
ENDCHAR
STARTCHAR U+0071
ENCODING 113
SWIDTH 500 0
DWIDTH 12 0
BBX 12 24 0 -2
BITMAP 
0000
0000
0000
0000
0000
0000
0000
0000
0000
1ee0
3f60
7be0
71e0
70e0
70e0
71e0
7be0
3f60
1ee0
00e0
00e0
00e0
00e0
0000
ENDCHAR
STARTCHAR U+0072
ENCODING 114
SWIDTH 500 0
DWIDTH 12 0
BBX 12 24 0 -2
BITMAP 
0000
0000
0000
0000
0000
0000
0000
0000
0000
7780
77c0
7ce0
78e0
7000
7000
7000
7000
7000
7000
0000
0000
0000
0000
0000
ENDCHAR
STARTCHAR U+0073
ENCODING 115
SWIDTH 500 0
DWIDTH 12 0
BBX 12 24 0 -2
BITMAP 
0000
0000
0000
0000
0000
0000
0000
0000
0000
3fc0
7fe0
7060
7000
3f80
1fc0
00e0
70e0
7fe0
3fc0
0000
0000
0000
0000
0000
ENDCHAR
STARTCHAR U+0074
ENCODING 116
SWIDTH 500 0
DWIDTH 12 0
BBX 12 24 0 -2
BITMAP 
0000
0000
0000
0000
0000
0000
0e00
0e00
0e00
3f80
3f80
0e00
0e00
0e00
0e00
0e00
0e00
0f80
0780
0000
0000
0000
0000
0000
ENDCHAR
STARTCHAR U+0075
ENCODING 117
SWIDTH 500 0
DWIDTH 12 0
BBX 12 24 0 -2
BITMAP 
0000
0000
0000
0000
0000
0000
0000
0000
0000
70e0
70e0
70e0
70e0
70e0
70e0
71e0
7be0
3f60
1ee0
0000
0000
0000
0000
0000
ENDCHAR
STARTCHAR U+0076
ENCODING 118
SWIDTH 500 0
DWIDTH 12 0
BBX 12 24 0 -2
BITMAP 
0000
0000
0000
0000
0000
0000
0000
0000
0000
e0e0
e0e0
71c0
71c0
3b80
3b80
1f00
1f00
0e00
0e00
0000
0000
0000
0000
0000
ENDCHAR
STARTCHAR U+0077
ENCODING 119
SWIDTH 500 0
DWIDTH 12 0
BBX 12 24 0 -2
BITMAP 
0000
0000
0000
0000
0000
0000
0000
0000
0000
70e0
70e0
70e0
70e0
76e0
7760
7760
7de0
79e0
70e0
0000
0000
0000
0000
0000
ENDCHAR
STARTCHAR U+0078
ENCODING 120
SWIDTH 500 0
DWIDTH 12 0
BBX 12 24 0 -2
BITMAP 
0000
0000
0000
0000
0000
0000
0000
0000
0000
70e0
70e0
39c0
1d80
0f00
0f00
1d80
39c0
70e0
70e0
0000
0000
0000
0000
0000
ENDCHAR
STARTCHAR U+0079
ENCODING 121
SWIDTH 500 0
DWIDTH 12 0
BBX 12 24 0 -2
BITMAP 
0000
0000
0000
0000
0000
0000
0000
0000
0000
70e0
70e0
70e0
70e0
70e0
70e0
70e0
71e0
3fe0
1f60
00e0
00e0
00e0
3fc0
1f80
ENDCHAR
STARTCHAR U+007A
ENCODING 122
SWIDTH 500 0
DWIDTH 12 0
BBX 12 24 0 -2
BITMAP 
0000
0000
0000
0000
0000
0000
0000
0000
0000
7fe0
7fe0
01c0
0380
0700
0e00
1c00
3800
7fe0
7fe0
0000
0000
0000
0000
0000
ENDCHAR
STARTCHAR U+007B
ENCODING 123
SWIDTH 500 0
DWIDTH 12 0
BBX 12 24 0 -2
BITMAP 
0000
0000
0000
0000
0780
0e00
0e00
0e00
0e00
0e00
1c00
3c00
1c00
0e00
0e00
0e00
0e00
0e00
0780
0000
0000
0000
0000
0000
ENDCHAR
STARTCHAR U+007C
ENCODING 124
SWIDTH 500 0
DWIDTH 12 0
BBX 12 24 0 -2
BITMAP 
0000
0e00
0e00
0e00
0e00
0e00
0e00
0e00
0e00
0e00
0e00
0e00
0e00
0e00
0e00
0e00
0e00
0e00
0e00
0e00
0e00
0e00
0e00
0000
ENDCHAR
STARTCHAR U+007D
ENCODING 125
SWIDTH 500 0
DWIDTH 12 0
BBX 12 24 0 -2
BITMAP 
0000
0000
0000
0000
3c00
0e00
0e00
0e00
0e00
0e00
0700
0780
0700
0e00
0e00
0e00
0e00
0e00
3c00
0000
0000
0000
0000
0000
ENDCHAR
STARTCHAR U+007E
ENCODING 126
SWIDTH 500 0
DWIDTH 12 0
BBX 12 24 0 -2
BITMAP 
0000
0000
0000
0000
3c60
7ee0
6fe0
e3c0
0000
0000
0000
0000
0000
0000
0000
0000
0000
0000
0000
0000
0000
0000
0000
0000
ENDCHAR
STARTCHAR U+00A0
ENCODING 160
SWIDTH 500 0
DWIDTH 12 0
BBX 12 24 0 -2
BITMAP 
0000
0000
0000
0000
0000
0000
0000
0000
0000
0000
0000
0000
0000
0000
0000
0000
0000
0000
0000
0000
0000
0000
0000
0000
ENDCHAR
STARTCHAR U+00A1
ENCODING 161
SWIDTH 500 0
DWIDTH 12 0
BBX 12 24 0 -2
BITMAP 
0000
0000
0000
0000
0e00
1f00
0e00
0000
0000
0e00
0e00
0e00
0e00
0e00
0e00
0e00
0e00
0e00
0e00
0000
0000
0000
0000
0000
ENDCHAR
STARTCHAR U+00A2
ENCODING 162
SWIDTH 500 0
DWIDTH 12 0
BBX 12 24 0 -2
BITMAP 
0000
0000
0000
0000
0000
0700
0700
1f80
3fc0
7b60
7760
7700
7700
7760
7b60
3fc0
1f80
0700
0700
0000
0000
0000
0000
0000
ENDCHAR
STARTCHAR U+00A3
ENCODING 163
SWIDTH 500 0
DWIDTH 12 0
BBX 12 24 0 -2
BITMAP 
0000
0000
0000
0000
0000
0f80
1fc0
3dc0
3800
3800
3c00
7fc0
7fc0
1c00
1c00
3f80
7fc0
79e0
70e0
0000
0000
0000
0000
0000
ENDCHAR
STARTCHAR U+00A4
ENCODING 164
SWIDTH 500 0
DWIDTH 12 0
BBX 12 24 0 -2
BITMAP 
0000
0000
0000
0000
0000
0000
0000
e0e0
f6e0
7fc0
3b80
71c0
71c0
3b80
7fc0
f6e0
e0e0
0000
0000
0000
0000
0000
0000
0000
ENDCHAR
STARTCHAR U+00A5
ENCODING 165
SWIDTH 500 0
DWIDTH 12 0
BBX 12 24 0 -2
BITMAP 
0000
0000
0000
0000
0000
71c0
7bc0
3b80
3f80
1f00
7fc0
7fc0
0e00
7fc0
7fc0
0e00
0e00
0e00
0e00
0000
0000
0000
0000
0000
ENDCHAR
STARTCHAR U+00A6
ENCODING 166
SWIDTH 500 0
DWIDTH 12 0
BBX 12 24 0 -2
BITMAP 
0000
0e00
0e00
0e00
0e00
0e00
0e00
0e00
0e00
0e00
0e00
0000
0000
0e00
0e00
0e00
0e00
0e00
0e00
0e00
0e00
0e00
0e00
0000
ENDCHAR
STARTCHAR U+00A7
ENCODING 167
SWIDTH 500 0
DWIDTH 12 0
BBX 12 24 0 -2
BITMAP 
0000
0000
0000
1f80
3fc0
79e0
70e0
7800
3f80
3fc0
70e0
70e0
3fc0
1fc0
01e0
70e0
79e0
3fc0
1f80
0000
0000
0000
0000
0000
ENDCHAR
STARTCHAR U+00A8
ENCODING 168
SWIDTH 500 0
DWIDTH 12 0
BBX 12 24 0 -2
BITMAP 
0000
39c0
39c0
0000
0000
0000
0000
0000
0000
0000
0000
0000
0000
0000
0000
0000
0000
0000
0000
0000
0000
0000
0000
0000
ENDCHAR
STARTCHAR U+00A9
ENCODING 169
SWIDTH 500 0
DWIDTH 12 0
BBX 12 24 0 -2
BITMAP 
0000
0000
1f80
3fc0
79e0
70e0
7760
7fe0
7de0
78e0
78e0
78e0
7de0
7fe0
7760
70e0
79e0
3fc0
1f80
0000
0000
0000
0000
0000
ENDCHAR
STARTCHAR U+00AA
ENCODING 170
SWIDTH 500 0
DWIDTH 12 0
BBX 12 24 0 -2
BITMAP 
1f80
3fc0
39c0
0fc0
1fc0
39c0
3fc0
1fc0
0000
3fc0
3fc0
0000
0000
0000
0000
0000
0000
0000
0000
0000
0000
0000
0000
0000
ENDCHAR
STARTCHAR U+00AB
ENCODING 171
SWIDTH 500 0
DWIDTH 12 0
BBX 12 24 0 -2
BITMAP 
0000
0000
0000
0000
0000
0000
0ec0
1d80
1d80
3b00
3b00
7600
7600
3b00
3b00
1d80
1d80
0ec0
0000
0000
0000
0000
0000
0000
ENDCHAR
STARTCHAR U+00AC
ENCODING 172
SWIDTH 500 0
DWIDTH 12 0
BBX 12 24 0 -2
BITMAP 
0000
0000
0000
0000
0000
0000
0000
0000
0000
0000
0000
ffe0
ffe0
00e0
00e0
00e0
0000
0000
0000
0000
0000
0000
0000
0000
ENDCHAR
STARTCHAR U+00AD
ENCODING 173
SWIDTH 500 0
DWIDTH 12 0
BBX 12 24 0 -2
BITMAP 
0000
0000
0000
0000
0000
0000
0000
0000
0000
0000
0000
0000
ffe0
ffe0
0000
0000
0000
0000
0000
0000
0000
0000
0000
0000
ENDCHAR
STARTCHAR U+00AE
ENCODING 174
SWIDTH 500 0
DWIDTH 12 0
BBX 12 24 0 -2
BITMAP 
0000
0000
1f80
3fc0
79e0
70e0
7f60
7fe0
79e0
79e0
7fe0
7f60
7b60
7be0
7be0
70e0
79e0
3fc0
1f80
0000
0000
0000
0000
0000
ENDCHAR
STARTCHAR U+00AF
ENCODING 175
SWIDTH 500 0
DWIDTH 12 0
BBX 12 24 0 -2
BITMAP 
ffe0
ffe0
0000
0000
0000
0000
0000
0000
0000
0000
0000
0000
0000
0000
0000
0000
0000
0000
0000
0000
0000
0000
0000
0000
ENDCHAR
STARTCHAR U+00B0
ENCODING 176
SWIDTH 500 0
DWIDTH 12 0
BBX 12 24 0 -2
BITMAP 
0f00
1d80
1d80
0f00
0000
0000
0000
0000
0000
0000
0000
0000
0000
0000
0000
0000
0000
0000
0000
0000
0000
0000
0000
0000
ENDCHAR
STARTCHAR U+00B1
ENCODING 177
SWIDTH 500 0
DWIDTH 12 0
BBX 12 24 0 -2
BITMAP 
0000
0000
0000
0000
0000
0000
0e00
0e00
0e00
7fc0
7fc0
0e00
0e00
0e00
0000
0000
7fc0
7fc0
0000
0000
0000
0000
0000
0000
ENDCHAR
STARTCHAR U+00B2
ENCODING 178
SWIDTH 500 0
DWIDTH 12 0
BBX 12 24 0 -2
BITMAP 
1f80
3fc0
39c0
03c0
0780
0f00
1e00
3c00
3fc0
3fc0
0000
0000
0000
0000
0000
0000
0000
0000
0000
0000
0000
0000
0000
0000
ENDCHAR
STARTCHAR U+00B3
ENCODING 179
SWIDTH 500 0
DWIDTH 12 0
BBX 12 24 0 -2
BITMAP 
1f80
3fc0
39c0
01c0
0fc0
0fc0
01c0
39c0
3fc0
1f80
0000
0000
0000
0000
0000
0000
0000
0000
0000
0000
0000
0000
0000
0000
ENDCHAR
STARTCHAR U+00B4
ENCODING 180
SWIDTH 500 0
DWIDTH 12 0
BBX 12 24 0 -2
BITMAP 
0700
0f00
1c00
0000
0000
0000
0000
0000
0000
0000
0000
0000
0000
0000
0000
0000
0000
0000
0000
0000
0000
0000
0000
0000
ENDCHAR
STARTCHAR U+00B5
ENCODING 181
SWIDTH 500 0
DWIDTH 12 0
BBX 12 24 0 -2
BITMAP 
0000
0000
0000
0000
0000
0000
0000
0000
0000
0ee0
0ee0
0ee0
0ee0
1ec0
1dc0
1dc0
1fe0
3fe0
38e0
3800
7800
7000
7000
7000
ENDCHAR
STARTCHAR U+00B6
ENCODING 182
SWIDTH 500 0
DWIDTH 12 0
BBX 12 24 0 -2
BITMAP 
0000
0000
0000
0000
0000
1fe0
3fa0
7fa0
7fa0
7fa0
7fa0
3fa0
1fa0
01a0
01a0
01a0
01a0
01a0
01e0
0000
0000
0000
0000
0000
ENDCHAR
STARTCHAR U+00B7
ENCODING 183
SWIDTH 500 0
DWIDTH 12 0
BBX 12 24 0 -2
BITMAP 
0000
0000
0000
0000
0000
0000
0000
0000
0000
0000
0e00
1f00
1f00
0e00
0000
0000
0000
0000
0000
0000
0000
0000
0000
0000
ENDCHAR
STARTCHAR U+00B8
ENCODING 184
SWIDTH 500 0
DWIDTH 12 0
BBX 12 24 0 -2
BITMAP 
0000
0000
0000
0000
0000
0000
0000
0000
0000
0000
0000
0000
0000
0000
0000
0000
0000
0000
0e00
0e00
0f00
0380
1f80
1f00
ENDCHAR
STARTCHAR U+00B9
ENCODING 185
SWIDTH 500 0
DWIDTH 12 0
BBX 12 24 0 -2
BITMAP 
0e00
1e00
3e00
0e00
0e00
0e00
0e00
0e00
3f80
3f80
0000
0000
0000
0000
0000
0000
0000
0000
0000
0000
0000
0000
0000
0000
ENDCHAR
STARTCHAR U+00BA
ENCODING 186
SWIDTH 500 0
DWIDTH 12 0
BBX 12 24 0 -2
BITMAP 
1f80
3fc0
39c0
39c0
39c0
39c0
3fc0
1f80
0000
3fc0
3fc0
0000
0000
0000
0000
0000
0000
0000
0000
0000
0000
0000
0000
0000
ENDCHAR
STARTCHAR U+00BB
ENCODING 187
SWIDTH 500 0
DWIDTH 12 0
BBX 12 24 0 -2
BITMAP 
0000
0000
0000
0000
0000
0000
3b00
1d80
1d80
0ec0
0ec0
0760
0760
0ec0
0ec0
1d80
1d80
3b00
0000
0000
0000
0000
0000
0000
ENDCHAR
STARTCHAR U+00BC
ENCODING 188
SWIDTH 500 0
DWIDTH 12 0
BBX 12 24 0 -2
BITMAP 
0000
0000
3800
7800
3800
3800
3800
38e0
7de0
7dc0
0780
0f00
1e00
3dc0
7bc0
f7c0
eec0
0fe0
0fe0
01c0
01c0
0000
0000
0000
ENDCHAR
STARTCHAR U+00BD
ENCODING 189
SWIDTH 500 0
DWIDTH 12 0
BBX 12 24 0 -2
BITMAP 
0000
0000
3800
7800
3800
3800
3800
38e0
7de0
7dc0
0780
0f00
1e00
3dc0
7be0
f760
e0e0
01c0
0380
07e0
07e0
0000
0000
0000
ENDCHAR
STARTCHAR U+00BE
ENCODING 190
SWIDTH 500 0
DWIDTH 12 0
BBX 12 24 0 -2
BITMAP 
0000
0000
7c00
7e00
0e00
3c00
3c00
0ee0
7ee0
7dc0
0780
0f00
1e00
3dc0
7bc0
f7c0
eec0
0fe0
0fe0
01c0
01c0
0000
0000
0000
ENDCHAR
STARTCHAR U+00BF
ENCODING 191
SWIDTH 500 0
DWIDTH 12 0
BBX 12 24 0 -2
BITMAP 
0000
0000
0000
0000
0e00
1f00
0e00
0000
0000
0e00
0e00
0e00
1c00
3800
7000
70c0
7bc0
3f80
1f00
0000
0000
0000
0000
0000
ENDCHAR
STARTCHAR U+00C0
ENCODING 192
SWIDTH 500 0
DWIDTH 12 0
BBX 12 24 0 -2
BITMAP 
0e00
0f00
0380
0000
0000
1f80
3fc0
79e0
70e0
70e0
70e0
7fe0
7fe0
70e0
70e0
70e0
70e0
70e0
70e0
0000
0000
0000
0000
0000
ENDCHAR
STARTCHAR U+00C1
ENCODING 193
SWIDTH 500 0
DWIDTH 12 0
BBX 12 24 0 -2
BITMAP 
0700
0f00
1c00
0000
0000
1f80
3fc0
79e0
70e0
70e0
70e0
7fe0
7fe0
70e0
70e0
70e0
70e0
70e0
70e0
0000
0000
0000
0000
0000
ENDCHAR
STARTCHAR U+00C2
ENCODING 194
SWIDTH 500 0
DWIDTH 12 0
BBX 12 24 0 -2
BITMAP 
0f00
1f80
39c0
0000
0000
1f80
3fc0
79e0
70e0
70e0
70e0
7fe0
7fe0
70e0
70e0
70e0
70e0
70e0
70e0
0000
0000
0000
0000
0000
ENDCHAR
STARTCHAR U+00C3
ENCODING 195
SWIDTH 500 0
DWIDTH 12 0
BBX 12 24 0 -2
BITMAP 
3c60
76e0
67c0
0000
0000
1f80
3fc0
79e0
70e0
70e0
70e0
7fe0
7fe0
70e0
70e0
70e0
70e0
70e0
70e0
0000
0000
0000
0000
0000
ENDCHAR
STARTCHAR U+00C4
ENCODING 196
SWIDTH 500 0
DWIDTH 12 0
BBX 12 24 0 -2
BITMAP 
0000
39c0
39c0
0000
0000
1f80
3fc0
79e0
70e0
70e0
70e0
7fe0
7fe0
70e0
70e0
70e0
70e0
70e0
70e0
0000
0000
0000
0000
0000
ENDCHAR
STARTCHAR U+00C5
ENCODING 197
SWIDTH 500 0
DWIDTH 12 0
BBX 12 24 0 -2
BITMAP 
0f00
1d80
1d80
0f00
0000
1f80
3fc0
79e0
70e0
70e0
70e0
7fe0
7fe0
70e0
70e0
70e0
70e0
70e0
70e0
0000
0000
0000
0000
0000
ENDCHAR
STARTCHAR U+00C6
ENCODING 198
SWIDTH 500 0
DWIDTH 12 0
BBX 12 24 0 -2
BITMAP 
0000
0000
0000
0000
0000
3fe0
3fe0
7700
7700
e700
e7e0
ffe0
ff00
e700
e700
e700
e700
e7e0
e7e0
0000
0000
0000
0000
0000
ENDCHAR
STARTCHAR U+00C7
ENCODING 199
SWIDTH 500 0
DWIDTH 12 0
BBX 12 24 0 -2
BITMAP 
0000
0000
0000
0000
0000
1f80
3fc0
79e0
70e0
7000
7000
7000
7000
7000
7000
70e0
79e0
3fc0
1f80
0e00
0f00
0380
1f80
1f00
ENDCHAR
STARTCHAR U+00C8
ENCODING 200
SWIDTH 500 0
DWIDTH 12 0
BBX 12 24 0 -2
BITMAP 
0e00
0f00
0380
0000
0000
7fe0
7fe0
7000
7000
7000
7000
7f80
7f80
7000
7000
7000
7000
7fe0
7fe0
0000
0000
0000
0000
0000
ENDCHAR
STARTCHAR U+00C9
ENCODING 201
SWIDTH 500 0
DWIDTH 12 0
BBX 12 24 0 -2
BITMAP 
0700
0f00
1c00
0000
0000
7fe0
7fe0
7000
7000
7000
7000
7f80
7f80
7000
7000
7000
7000
7fe0
7fe0
0000
0000
0000
0000
0000
ENDCHAR
STARTCHAR U+00CA
ENCODING 202
SWIDTH 500 0
DWIDTH 12 0
BBX 12 24 0 -2
BITMAP 
0f00
1f80
39c0
0000
0000
7fe0
7fe0
7000
7000
7000
7000
7f80
7f80
7000
7000
7000
7000
7fe0
7fe0
0000
0000
0000
0000
0000
ENDCHAR
STARTCHAR U+00CB
ENCODING 203
SWIDTH 500 0
DWIDTH 12 0
BBX 12 24 0 -2
BITMAP 
0000
39c0
39c0
0000
0000
7fe0
7fe0
7000
7000
7000
7000
7f80
7f80
7000
7000
7000
7000
7fe0
7fe0
0000
0000
0000
0000
0000
ENDCHAR
STARTCHAR U+00CC
ENCODING 204
SWIDTH 500 0
DWIDTH 12 0
BBX 12 24 0 -2
BITMAP 
1c00
1e00
0700
0000
0000
3f80
3f80
0e00
0e00
0e00
0e00
0e00
0e00
0e00
0e00
0e00
0e00
3f80
3f80
0000
0000
0000
0000
0000
ENDCHAR
STARTCHAR U+00CD
ENCODING 205
SWIDTH 500 0
DWIDTH 12 0
BBX 12 24 0 -2
BITMAP 
0700
0f00
1c00
0000
0000
3f80
3f80
0e00
0e00
0e00
0e00
0e00
0e00
0e00
0e00
0e00
0e00
3f80
3f80
0000
0000
0000
0000
0000
ENDCHAR
STARTCHAR U+00CE
ENCODING 206
SWIDTH 500 0
DWIDTH 12 0
BBX 12 24 0 -2
BITMAP 
0e00
1f00
3b80
0000
0000
3f80
3f80
0e00
0e00
0e00
0e00
0e00
0e00
0e00
0e00
0e00
0e00
3f80
3f80
0000
0000
0000
0000
0000
ENDCHAR
STARTCHAR U+00CF
ENCODING 207
SWIDTH 500 0
DWIDTH 12 0
BBX 12 24 0 -2
BITMAP 
0000
3b80
3b80
0000
0000
3f80
3f80
0e00
0e00
0e00
0e00
0e00
0e00
0e00
0e00
0e00
0e00
3f80
3f80
0000
0000
0000
0000
0000
ENDCHAR
STARTCHAR U+00D0
ENCODING 208
SWIDTH 500 0
DWIDTH 12 0
BBX 12 24 0 -2
BITMAP 
0000
0000
0000
0000
0000
7f80
7fc0
71e0
70e0
70e0
70e0
fee0
fee0
70e0
70e0
70e0
71e0
7fc0
7f80
0000
0000
0000
0000
0000
ENDCHAR
STARTCHAR U+00D1
ENCODING 209
SWIDTH 500 0
DWIDTH 12 0
BBX 12 24 0 -2
BITMAP 
3c60
76e0
67c0
0000
0000
70e0
78e0
78e0
7ce0
7ce0
76e0
76e0
7760
7760
73e0
73e0
71e0
71e0
70e0
0000
0000
0000
0000
0000
ENDCHAR
STARTCHAR U+00D2
ENCODING 210
SWIDTH 500 0
DWIDTH 12 0
BBX 12 24 0 -2
BITMAP 
0e00
0f00
0380
0000
0000
1f80
3fc0
79e0
70e0
70e0
70e0
70e0
70e0
70e0
70e0
70e0
79e0
3fc0
1f80
0000
0000
0000
0000
0000
ENDCHAR
STARTCHAR U+00D3
ENCODING 211
SWIDTH 500 0
DWIDTH 12 0
BBX 12 24 0 -2
BITMAP 
0700
0f00
1c00
0000
0000
1f80
3fc0
79e0
70e0
70e0
70e0
70e0
70e0
70e0
70e0
70e0
79e0
3fc0
1f80
0000
0000
0000
0000
0000
ENDCHAR
STARTCHAR U+00D4
ENCODING 212
SWIDTH 500 0
DWIDTH 12 0
BBX 12 24 0 -2
BITMAP 
0f00
1f80
39c0
0000
0000
1f80
3fc0
79e0
70e0
70e0
70e0
70e0
70e0
70e0
70e0
70e0
79e0
3fc0
1f80
0000
0000
0000
0000
0000
ENDCHAR
STARTCHAR U+00D5
ENCODING 213
SWIDTH 500 0
DWIDTH 12 0
BBX 12 24 0 -2
BITMAP 
3c60
76e0
67c0
0000
0000
1f80
3fc0
79e0
70e0
70e0
70e0
70e0
70e0
70e0
70e0
70e0
79e0
3fc0
1f80
0000
0000
0000
0000
0000
ENDCHAR
STARTCHAR U+00D6
ENCODING 214
SWIDTH 500 0
DWIDTH 12 0
BBX 12 24 0 -2
BITMAP 
0000
39c0
39c0
0000
0000
1f80
3fc0
79e0
70e0
70e0
70e0
70e0
70e0
70e0
70e0
70e0
79e0
3fc0
1f80
0000
0000
0000
0000
0000
ENDCHAR
STARTCHAR U+00D7
ENCODING 215
SWIDTH 500 0
DWIDTH 12 0
BBX 12 24 0 -2
BITMAP 
0000
0000
0000
0000
0000
0000
0000
0000
70e0
79e0
3dc0
1f80
0f00
1f80
3dc0
79e0
70e0
0000
0000
0000
0000
0000
0000
0000
ENDCHAR
STARTCHAR U+00D8
ENCODING 216
SWIDTH 500 0
DWIDTH 12 0
BBX 12 24 0 -2
BITMAP 
0000
0000
0000
0000
0000
1fa0
3fe0
79e0
71e0
73e0
7360
7760
76e0
74e0
7ce0
78e0
79e0
7fc0
6f80
0000
0000
0000
0000
0000
ENDCHAR
STARTCHAR U+00D9
ENCODING 217
SWIDTH 500 0
DWIDTH 12 0
BBX 12 24 0 -2
BITMAP 
0e00
0f00
0380
0000
0000
70e0
70e0
70e0
70e0
70e0
70e0
70e0
70e0
70e0
70e0
70e0
79e0
3fc0
1f80
0000
0000
0000
0000
0000
ENDCHAR
STARTCHAR U+00DA
ENCODING 218
SWIDTH 500 0
DWIDTH 12 0
BBX 12 24 0 -2
BITMAP 
0700
0f00
1c00
0000
0000
70e0
70e0
70e0
70e0
70e0
70e0
70e0
70e0
70e0
70e0
70e0
79e0
3fc0
1f80
0000
0000
0000
0000
0000
ENDCHAR
STARTCHAR U+00DB
ENCODING 219
SWIDTH 500 0
DWIDTH 12 0
BBX 12 24 0 -2
BITMAP 
0f00
1f80
39c0
0000
0000
70e0
70e0
70e0
70e0
70e0
70e0
70e0
70e0
70e0
70e0
70e0
79e0
3fc0
1f80
0000
0000
0000
0000
0000
ENDCHAR
STARTCHAR U+00DC
ENCODING 220
SWIDTH 500 0
DWIDTH 12 0
BBX 12 24 0 -2
BITMAP 
0000
39c0
39c0
0000
0000
70e0
70e0
70e0
70e0
70e0
70e0
70e0
70e0
70e0
70e0
70e0
79e0
3fc0
1f80
0000
0000
0000
0000
0000
ENDCHAR
STARTCHAR U+00DD
ENCODING 221
SWIDTH 500 0
DWIDTH 12 0
BBX 12 24 0 -2
BITMAP 
0700
0f00
1c00
0000
0000
e0e0
e0e0
71c0
71c0
3b80
3f80
1f00
0e00
0e00
0e00
0e00
0e00
0e00
0e00
0000
0000
0000
0000
0000
ENDCHAR
STARTCHAR U+00DE
ENCODING 222
SWIDTH 500 0
DWIDTH 12 0
BBX 12 24 0 -2
BITMAP 
0000
0000
0000
0000
0000
7380
77c0
76e0
7ce0
78e0
70e0
70e0
78e0
7ce0
76e0
77c0
7380
7000
7000
e000
c000
0000
0000
0000
ENDCHAR
STARTCHAR U+00DF
ENCODING 223
SWIDTH 500 0
DWIDTH 12 0
BBX 12 24 0 -2
BITMAP 
0000
0000
0000
0000
0000
1f80
3fc0
79e0
70e0
70e0
71e0
77c0
77e0
71e0
70e0
70e0
71e0
77c0
7780
0000
0000
0000
0000
0000
ENDCHAR
STARTCHAR U+00E0
ENCODING 224
SWIDTH 500 0
DWIDTH 12 0
BBX 12 24 0 -2
BITMAP 
0000
0000
0000
0e00
0f00
0380
0000
0000
0f80
1fc0
38e0
00e0
0fe0
3fe0
70e0
71e0
73e0
7f60
3ee0
0000
0000
0000
0000
0000
ENDCHAR
STARTCHAR U+00E1
ENCODING 225
SWIDTH 500 0
DWIDTH 12 0
BBX 12 24 0 -2
BITMAP 
0000
0000
0000
0380
0780
0e00
0000
0000
0f80
1fc0
38e0
00e0
0fe0
3fe0
70e0
71e0
73e0
7f60
3ee0
0000
0000
0000
0000
0000
ENDCHAR
STARTCHAR U+00E2
ENCODING 226
SWIDTH 500 0
DWIDTH 12 0
BBX 12 24 0 -2
BITMAP 
0000
0000
0000
0f00
1f80
39c0
0000
0000
0f80
1fc0
38e0
00e0
0fe0
3fe0
70e0
71e0
73e0
7f60
3ee0
0000
0000
0000
0000
0000
ENDCHAR
STARTCHAR U+00E3
ENCODING 227
SWIDTH 500 0
DWIDTH 12 0
BBX 12 24 0 -2
BITMAP 
0000
0000
0000
3c60
76e0
67c0
0000
0000
0f80
1fc0
38e0
00e0
0fe0
3fe0
70e0
71e0
73e0
7f60
3ee0
0000
0000
0000
0000
0000
ENDCHAR
STARTCHAR U+00E4
ENCODING 228
SWIDTH 500 0
DWIDTH 12 0
BBX 12 24 0 -2
BITMAP 
0000
0000
0000
0000
1dc0
1dc0
0000
0000
0f80
1fc0
38e0
00e0
0fe0
3fe0
70e0
71e0
73e0
7f60
3ee0
0000
0000
0000
0000
0000
ENDCHAR
STARTCHAR U+00E5
ENCODING 229
SWIDTH 500 0
DWIDTH 12 0
BBX 12 24 0 -2
BITMAP 
0000
0000
0000
0f00
1d80
1d80
0f00
0000
0f80
1fc0
38e0
00e0
0fe0
3fe0
70e0
71e0
73e0
7f60
3ee0
0000
0000
0000
0000
0000
ENDCHAR
STARTCHAR U+00E6
ENCODING 230
SWIDTH 500 0
DWIDTH 12 0
BBX 12 24 0 -2
BITMAP 
0000
0000
0000
0000
0000
0000
0000
0000
7bc0
ffe0
cee0
0ee0
3fe0
7fc0
ee00
ee00
eee0
ffe0
7fc0
0000
0000
0000
0000
0000
ENDCHAR
STARTCHAR U+00E7
ENCODING 231
SWIDTH 500 0
DWIDTH 12 0
BBX 12 24 0 -2
BITMAP 
0000
0000
0000
0000
0000
0000
0000
0000
0000
0fc0
3fc0
78e0
70e0
7000
7000
7000
78e0
3fe0
1fc0
0e00
0f00
0380
1f80
1f00
ENDCHAR
STARTCHAR U+00E8
ENCODING 232
SWIDTH 500 0
DWIDTH 12 0
BBX 12 24 0 -2
BITMAP 
0000
0000
0000
0000
0e00
0f00
0380
0000
0000
1f80
3fc0
78e0
70e0
7fe0
7fe0
7000
70e0
3fe0
1fc0
0000
0000
0000
0000
0000
ENDCHAR
STARTCHAR U+00E9
ENCODING 233
SWIDTH 500 0
DWIDTH 12 0
BBX 12 24 0 -2
BITMAP 
0000
0000
0000
0000
0700
0f00
1c00
0000
0000
1f80
3fc0
78e0
70e0
7fe0
7fe0
7000
70e0
3fe0
1fc0
0000
0000
0000
0000
0000
ENDCHAR
STARTCHAR U+00EA
ENCODING 234
SWIDTH 500 0
DWIDTH 12 0
BBX 12 24 0 -2
BITMAP 
0000
0000
0000
0000
0f00
1f80
39c0
0000
0000
1f80
3fc0
78e0
70e0
7fe0
7fe0
7000
70e0
3fe0
1fc0
0000
0000
0000
0000
0000
ENDCHAR
STARTCHAR U+00EB
ENCODING 235
SWIDTH 500 0
DWIDTH 12 0
BBX 12 24 0 -2
BITMAP 
0000
0000
0000
0000
0000
39c0
39c0
0000
0000
1f80
3fc0
78e0
70e0
7fe0
7fe0
7000
70e0
3fe0
1fc0
0000
0000
0000
0000
0000
ENDCHAR
STARTCHAR U+00EC
ENCODING 236
SWIDTH 500 0
DWIDTH 12 0
BBX 12 24 0 -2
BITMAP 
0000
0000
0000
0000
1c00
1e00
0700
0000
0000
0e00
0e00
0e00
0e00
0e00
0e00
0e00
0e00
0e00
0e00
0000
0000
0000
0000
0000
ENDCHAR
STARTCHAR U+00ED
ENCODING 237
SWIDTH 500 0
DWIDTH 12 0
BBX 12 24 0 -2
BITMAP 
0000
0000
0000
0000
0700
0f00
1c00
0000
0000
0e00
0e00
0e00
0e00
0e00
0e00
0e00
0e00
0e00
0e00
0000
0000
0000
0000
0000
ENDCHAR
STARTCHAR U+00EE
ENCODING 238
SWIDTH 500 0
DWIDTH 12 0
BBX 12 24 0 -2
BITMAP 
0000
0000
0000
0000
0e00
1f00
3b80
0000
0000
0e00
0e00
0e00
0e00
0e00
0e00
0e00
0e00
0e00
0e00
0000
0000
0000
0000
0000
ENDCHAR
STARTCHAR U+00EF
ENCODING 239
SWIDTH 500 0
DWIDTH 12 0
BBX 12 24 0 -2
BITMAP 
0000
0000
0000
0000
0000
3b80
3b80
0000
0000
0e00
0e00
0e00
0e00
0e00
0e00
0e00
0e00
0e00
0e00
0000
0000
0000
0000
0000
ENDCHAR
STARTCHAR U+00F0
ENCODING 240
SWIDTH 500 0
DWIDTH 12 0
BBX 12 24 0 -2
BITMAP 
0000
0000
0000
0000
0000
3de0
3fe0
0780
1fc0
7de0
70e0
1fe0
3fe0
78e0
70e0
70e0
79e0
3fc0
1f80
0000
0000
0000
0000
0000
ENDCHAR
STARTCHAR U+00F1
ENCODING 241
SWIDTH 500 0
DWIDTH 12 0
BBX 12 24 0 -2
BITMAP 
0000
0000
0000
0000
3c60
76e0
67c0
0000
0000
7780
77c0
7ce0
78e0
70e0
70e0
70e0
70e0
70e0
70e0
0000
0000
0000
0000
0000
ENDCHAR
STARTCHAR U+00F2
ENCODING 242
SWIDTH 500 0
DWIDTH 12 0
BBX 12 24 0 -2
BITMAP 
0000
0000
0000
0000
0e00
0f00
0380
0000
0000
1f80
3fc0
79e0
70e0
70e0
70e0
70e0
79e0
3fc0
1f80
0000
0000
0000
0000
0000
ENDCHAR
STARTCHAR U+00F3
ENCODING 243
SWIDTH 500 0
DWIDTH 12 0
BBX 12 24 0 -2
BITMAP 
0000
0000
0000
0000
0700
0f00
1c00
0000
0000
1f80
3fc0
79e0
70e0
70e0
70e0
70e0
79e0
3fc0
1f80
0000
0000
0000
0000
0000
ENDCHAR
STARTCHAR U+00F4
ENCODING 244
SWIDTH 500 0
DWIDTH 12 0
BBX 12 24 0 -2
BITMAP 
0000
0000
0000
0000
0f00
1f80
39c0
0000
0000
1f80
3fc0
79e0
70e0
70e0
70e0
70e0
79e0
3fc0
1f80
0000
0000
0000
0000
0000
ENDCHAR
STARTCHAR U+00F5
ENCODING 245
SWIDTH 500 0
DWIDTH 12 0
BBX 12 24 0 -2
BITMAP 
0000
0000
0000
0000
3c60
76e0
67c0
0000
0000
1f80
3fc0
79e0
70e0
70e0
70e0
70e0
79e0
3fc0
1f80
0000
0000
0000
0000
0000
ENDCHAR
STARTCHAR U+00F6
ENCODING 246
SWIDTH 500 0
DWIDTH 12 0
BBX 12 24 0 -2
BITMAP 
0000
0000
0000
0000
0000
39c0
39c0
0000
0000
1f80
3fc0
79e0
70e0
70e0
70e0
70e0
79e0
3fc0
1f80
0000
0000
0000
0000
0000
ENDCHAR
STARTCHAR U+00F7
ENCODING 247
SWIDTH 500 0
DWIDTH 12 0
BBX 12 24 0 -2
BITMAP 
0000
0000
0000
0000
0000
0000
0000
0000
0e00
1f00
0e00
0000
ffe0
ffe0
0000
0e00
1f00
0e00
0000
0000
0000
0000
0000
0000
ENDCHAR
STARTCHAR U+00F8
ENCODING 248
SWIDTH 500 0
DWIDTH 12 0
BBX 12 24 0 -2
BITMAP 
0000
0000
0000
0000
0000
0000
0000
0000
0000
1f60
3fe0
7bc0
77e0
7760
7760
7ee0
3de0
7fc0
7780
0000
0000
0000
0000
0000
ENDCHAR
STARTCHAR U+00F9
ENCODING 249
SWIDTH 500 0
DWIDTH 12 0
BBX 12 24 0 -2
BITMAP 
0000
0000
0000
0000
0e00
0f00
0380
0000
0000
70e0
70e0
70e0
70e0
70e0
70e0
71e0
7be0
3f60
1ee0
0000
0000
0000
0000
0000
ENDCHAR
STARTCHAR U+00FA
ENCODING 250
SWIDTH 500 0
DWIDTH 12 0
BBX 12 24 0 -2
BITMAP 
0000
0000
0000
0000
0700
0f00
1c00
0000
0000
70e0
70e0
70e0
70e0
70e0
70e0
71e0
7be0
3f60
1ee0
0000
0000
0000
0000
0000
ENDCHAR
STARTCHAR U+00FB
ENCODING 251
SWIDTH 500 0
DWIDTH 12 0
BBX 12 24 0 -2
BITMAP 
0000
0000
0000
0000
0f00
1f80
39c0
0000
0000
70e0
70e0
70e0
70e0
70e0
70e0
71e0
7be0
3f60
1ee0
0000
0000
0000
0000
0000
ENDCHAR
STARTCHAR U+00FC
ENCODING 252
SWIDTH 500 0
DWIDTH 12 0
BBX 12 24 0 -2
BITMAP 
0000
0000
0000
0000
0000
39c0
39c0
0000
0000
70e0
70e0
70e0
70e0
70e0
70e0
71e0
7be0
3f60
1ee0
0000
0000
0000
0000
0000
ENDCHAR
STARTCHAR U+00FD
ENCODING 253
SWIDTH 500 0
DWIDTH 12 0
BBX 12 24 0 -2
BITMAP 
0000
0000
0000
0000
0380
0780
0e00
0000
0000
70e0
70e0
70e0
70e0
70e0
70e0
70e0
79e0
3fe0
1f60
00e0
00e0
01e0
3fc0
1f80
ENDCHAR
STARTCHAR U+00FE
ENCODING 254
SWIDTH 500 0
DWIDTH 12 0
BBX 12 24 0 -2
BITMAP 
0000
0000
0000
0000
0000
7000
7000
7000
7000
7780
77c0
7de0
78e0
70e0
70e0
71e0
73c0
7f80
7f00
7000
7000
7000
7000
7000
ENDCHAR
STARTCHAR U+00FF
ENCODING 255
SWIDTH 500 0
DWIDTH 12 0
BBX 12 24 0 -2
BITMAP 
0000
0000
0000
0000
0000
39c0
39c0
0000
0000
70e0
70e0
70e0
70e0
70e0
70e0
70e0
79e0
3fe0
1f60
00e0
00e0
01e0
3fc0
1f80
ENDCHAR
STARTCHAR U+0100
ENCODING 256
SWIDTH 500 0
DWIDTH 12 0
BBX 12 24 0 -2
BITMAP 
0000
3fc0
3fc0
0000
0000
1f80
3fc0
79e0
70e0
70e0
70e0
7fe0
7fe0
70e0
70e0
70e0
70e0
70e0
70e0
0000
0000
0000
0000
0000
ENDCHAR
STARTCHAR U+0101
ENCODING 257
SWIDTH 500 0
DWIDTH 12 0
BBX 12 24 0 -2
BITMAP 
0000
0000
0000
0000
3fc0
3fc0
0000
0000
0f80
1fc0
38e0
00e0
0fe0
3fe0
70e0
71e0
73e0
7f60
3ee0
0000
0000
0000
0000
0000
ENDCHAR
STARTCHAR U+0102
ENCODING 258
SWIDTH 500 0
DWIDTH 12 0
BBX 12 24 0 -2
BITMAP 
39c0
39c0
1f80
0000
0000
1f80
3fc0
79e0
70e0
70e0
70e0
7fe0
7fe0
70e0
70e0
70e0
70e0
70e0
70e0
0000
0000
0000
0000
0000
ENDCHAR
STARTCHAR U+0103
ENCODING 259
SWIDTH 500 0
DWIDTH 12 0
BBX 12 24 0 -2
BITMAP 
0000
0000
0000
1dc0
1dc0
0f80
0000
0000
0f80
1fc0
38e0
00e0
0fe0
3fe0
70e0
71e0
73e0
7f60
3ee0
0000
0000
0000
0000
0000
ENDCHAR
STARTCHAR U+0104
ENCODING 260
SWIDTH 500 0
DWIDTH 12 0
BBX 12 24 0 -2
BITMAP 
0000
0000
0000
0000
0000
1f80
3fc0
79e0
70e0
70e0
70e0
7fe0
7fe0
70e0
70e0
70e0
70e0
70e0
70e0
03e0
0780
0e00
0fc0
07c0
ENDCHAR
STARTCHAR U+0105
ENCODING 261
SWIDTH 500 0
DWIDTH 12 0
BBX 12 24 0 -2
BITMAP 
0000
0000
0000
0000
0000
0000
0000
0000
0f80
1fc0
38e0
00e0
0fe0
3fe0
70e0
71e0
73e0
7f60
3ee0
03e0
0780
0e00
0fc0
07c0
ENDCHAR
STARTCHAR U+0106
ENCODING 262
SWIDTH 500 0
DWIDTH 12 0
BBX 12 24 0 -2
BITMAP 
0700
0f00
1c00
0000
0000
1f80
3fc0
79e0
70e0
7000
7000
7000
7000
7000
7000
7000
70e0
39e0
1fc0
0f80
0000
0000
0000
0000
ENDCHAR
STARTCHAR U+0107
ENCODING 263
SWIDTH 500 0
DWIDTH 12 0
BBX 12 24 0 -2
BITMAP 
0000
0000
0000
0000
0700
0f00
1c00
0000
0000
0fc0
3fc0
78e0
70e0
7000
7000
7000
78e0
3fe0
1fc0
0000
0000
0000
0000
0000
ENDCHAR
STARTCHAR U+0108
ENCODING 264
SWIDTH 500 0
DWIDTH 12 0
BBX 12 24 0 -2
BITMAP 
0f00
1f80
39c0
0000
0000
1f80
3fc0
79e0
70e0
7000
7000
7000
7000
7000
7000
70e0
79e0
3fc0
1f80
0000
0000
0000
0000
0000
ENDCHAR
STARTCHAR U+0109
ENCODING 265
SWIDTH 500 0
DWIDTH 12 0
BBX 12 24 0 -2
BITMAP 
0000
0000
0000
0000
0f00
1f80
39c0
0000
0000
0fc0
3fc0
78e0
70e0
7000
7000
7000
78e0
3fe0
1fc0
0000
0000
0000
0000
0000
ENDCHAR
STARTCHAR U+010A
ENCODING 266
SWIDTH 500 0
DWIDTH 12 0
BBX 12 24 0 -2
BITMAP 
0000
0e00
0e00
0000
0000
1f80
3fc0
79e0
70e0
7000
7000
7000
7000
7000
7000
70e0
79e0
3fc0
1f80
0000
0000
0000
0000
0000
ENDCHAR
STARTCHAR U+010B
ENCODING 267
SWIDTH 500 0
DWIDTH 12 0
BBX 12 24 0 -2
BITMAP 
0000
0000
0000
0000
0000
0700
0700
0000
0000
0fc0
3fc0
78e0
70e0
7000
7000
7000
78e0
3fe0
1fc0
0000
0000
0000
0000
0000
ENDCHAR
STARTCHAR U+010C
ENCODING 268
SWIDTH 500 0
DWIDTH 12 0
BBX 12 24 0 -2
BITMAP 
3b80
1f00
0e00
0000
0000
1f80
3fc0
79e0
70e0
7000
7000
7000
7000
7000
7000
7000
70e0
79e0
3fc0
1f80
0000
0000
0000
0000
ENDCHAR
STARTCHAR U+010D
ENCODING 269
SWIDTH 500 0
DWIDTH 12 0
BBX 12 24 0 -2
BITMAP 
0000
0000
0000
0000
1dc0
0f80
0700
0000
0000
0fc0
3fc0
78e0
70e0
7000
7000
7000
78e0
3fe0
1fc0
0000
0000
0000
0000
0000
ENDCHAR
STARTCHAR U+010E
ENCODING 270
SWIDTH 500 0
DWIDTH 12 0
BBX 12 24 0 -2
BITMAP 
3b80
1f00
0e00
0000
0000
7f80
7fc0
71c0
70e0
70e0
70e0
70e0
70e0
70e0
70e0
70e0
71e0
7fc0
7f80
0000
0000
0000
0000
0000
ENDCHAR
STARTCHAR U+010F
ENCODING 271
SWIDTH 500 0
DWIDTH 12 0
BBX 12 24 0 -2
BITMAP 
0000
0000
01e0
01e0
0060
0760
07c0
0700
0700
3b00
7f00
f700
e700
e700
e700
e700
f700
7f00
3b00
0000
0000
0000
0000
0000
ENDCHAR
STARTCHAR U+0110
ENCODING 272
SWIDTH 500 0
DWIDTH 12 0
BBX 12 24 0 -2
BITMAP 
0000
0000
0000
0000
0000
7f80
7fc0
71e0
70e0
70e0
70e0
fee0
fee0
70e0
70e0
70e0
71e0
7fc0
7f80
0000
0000
0000
0000
0000
ENDCHAR
STARTCHAR U+0111
ENCODING 273
SWIDTH 500 0
DWIDTH 12 0
BBX 12 24 0 -2
BITMAP 
0000
0000
0000
01c0
01c0
0fe0
0fe0
01c0
01c0
3ec0
7fc0
f3c0
e1c0
e1c0
e1c0
e3c0
e7c0
7ec0
3dc0
0000
0000
0000
0000
0000
ENDCHAR
STARTCHAR U+0112
ENCODING 274
SWIDTH 500 0
DWIDTH 12 0
BBX 12 24 0 -2
BITMAP 
0000
3fc0
3fc0
0000
0000
7fe0
7fe0
7000
7000
7000
7000
7f80
7f80
7000
7000
7000
7000
7fe0
7fe0
0000
0000
0000
0000
0000
ENDCHAR
STARTCHAR U+0113
ENCODING 275
SWIDTH 500 0
DWIDTH 12 0
BBX 12 24 0 -2
BITMAP 
0000
0000
0000
0000
0000
3fc0
3fc0
0000
0000
1f80
3fc0
78e0
70e0
7fe0
7fe0
7000
70e0
3fe0
1fc0
0000
0000
0000
0000
0000
ENDCHAR
STARTCHAR U+0114
ENCODING 276
SWIDTH 500 0
DWIDTH 12 0
BBX 12 24 0 -2
BITMAP 
39c0
39c0
1f80
0000
0000
7fe0
7fe0
7000
7000
7000
7000
7f80
7f80
7000
7000
7000
7000
7fe0
7fe0
0000
0000
0000
0000
0000
ENDCHAR
STARTCHAR U+0115
ENCODING 277
SWIDTH 500 0
DWIDTH 12 0
BBX 12 24 0 -2
BITMAP 
0000
0000
0000
1dc0
1dc0
0f80
0000
0000
0000
1f80
3fc0
78e0
70e0
7fe0
7fe0
7000
70e0
3fe0
1fc0
0000
0000
0000
0000
0000
ENDCHAR
STARTCHAR U+0116
ENCODING 278
SWIDTH 500 0
DWIDTH 12 0
BBX 12 24 0 -2
BITMAP 
0000
0e00
0e00
0000
0000
7fe0
7fe0
7000
7000
7000
7000
7f80
7f80
7000
7000
7000
7000
7fe0
7fe0
0000
0000
0000
0000
0000
ENDCHAR
STARTCHAR U+0117
ENCODING 279
SWIDTH 500 0
DWIDTH 12 0
BBX 12 24 0 -2
BITMAP 
0000
0000
0000
0000
0000
0e00
0e00
0000
0000
1f80
3fc0
78e0
70e0
7fe0
7fe0
7000
70e0
3fe0
1fc0
0000
0000
0000
0000
0000
ENDCHAR
STARTCHAR U+0118
ENCODING 280
SWIDTH 500 0
DWIDTH 12 0
BBX 12 24 0 -2
BITMAP 
0000
0000
0000
0000
0000
7fe0
7fe0
7000
7000
7000
7000
7f80
7f80
7000
7000
7000
7000
7fe0
7fe0
01c0
03c0
0700
07c0
03e0
ENDCHAR
STARTCHAR U+0119
ENCODING 281
SWIDTH 500 0
DWIDTH 12 0
BBX 12 24 0 -2
BITMAP 
0000
0000
0000
0000
0000
0000
0000
0000
0000
1f80
3fc0
78e0
70e0
7fe0
7fe0
7000
70e0
3fe0
1fc0
0700
0f00
1c00
1f00
0f80
ENDCHAR
STARTCHAR U+011A
ENCODING 282
SWIDTH 500 0
DWIDTH 12 0
BBX 12 24 0 -2
BITMAP 
3b80
1f00
0e00
0000
0000
7fe0
7fe0
7000
7000
7000
7000
7f80
7f80
7000
7000
7000
7000
7fe0
7fe0
0000
0000
0000
0000
0000
ENDCHAR
STARTCHAR U+011B
ENCODING 283
SWIDTH 500 0
DWIDTH 12 0
BBX 12 24 0 -2
BITMAP 
0000
0000
0000
0000
1dc0
0f80
0700
0000
0000
1f80
3fc0
78e0
70e0
7fe0
7fe0
7000
70e0
3fe0
1fc0
0000
0000
0000
0000
0000
ENDCHAR
STARTCHAR U+011C
ENCODING 284
SWIDTH 500 0
DWIDTH 12 0
BBX 12 24 0 -2
BITMAP 
0f00
1f80
39c0
0000
0000
1f80
3fc0
79e0
70e0
7000
7000
7000
77e0
77e0
70e0
70e0
79e0
3fc0
1f80
0000
0000
0000
0000
0000
ENDCHAR
STARTCHAR U+011D
ENCODING 285
SWIDTH 500 0
DWIDTH 12 0
BBX 12 24 0 -2
BITMAP 
0000
0000
0000
0000
0f00
1f80
39c0
0000
0000
1ee0
3f60
7be0
71e0
70e0
70e0
70e0
79e0
3fe0
1f60
00e0
00e0
00e0
1fc0
0f80
ENDCHAR
STARTCHAR U+011E
ENCODING 286
SWIDTH 500 0
DWIDTH 12 0
BBX 12 24 0 -2
BITMAP 
39c0
39c0
1f80
0000
0000
1f80
3fc0
79e0
70e0
7000
7000
7000
73e0
73e0
70e0
70e0
79e0
3fc0
1f80
0000
0000
0000
0000
0000
ENDCHAR
STARTCHAR U+011F
ENCODING 287
SWIDTH 500 0
DWIDTH 12 0
BBX 12 24 0 -2
BITMAP 
0000
0000
0000
0000
3b80
3b80
1f00
0000
0000
1ee0
3f60
7be0
71e0
70e0
70e0
70e0
79e0
3fe0
1f60
00e0
00e0
00e0
1fc0
0f80
ENDCHAR
STARTCHAR U+0120
ENCODING 288
SWIDTH 500 0
DWIDTH 12 0
BBX 12 24 0 -2
BITMAP 
0000
0e00
0e00
0000
0000
1f80
3fc0
79e0
70e0
7000
7000
7000
73e0
73e0
70e0
70e0
79e0
3fc0
1f80
0000
0000
0000
0000
0000
ENDCHAR
STARTCHAR U+0121
ENCODING 289
SWIDTH 500 0
DWIDTH 12 0
BBX 12 24 0 -2
BITMAP 
0000
0000
0000
0000
0000
0e00
0e00
0000
0000
1ee0
3f60
7be0
71e0
70e0
70e0
70e0
79e0
3fe0
1f60
00e0
00e0
00e0
1fc0
0f80
ENDCHAR
STARTCHAR U+0122
ENCODING 290
SWIDTH 500 0
DWIDTH 12 0
BBX 12 24 0 -2
BITMAP 
0000
0000
0000
0000
0000
1f80
3fc0
79e0
70e0
7000
7000
7000
73e0
73e0
70e0
70e0
79e0
3fc0
1f80
0e00
0f00
0380
1f80
1f00
ENDCHAR
STARTCHAR U+0123
ENCODING 291
SWIDTH 500 0
DWIDTH 12 0
BBX 12 24 0 -2
BITMAP 
0000
0000
0f80
1f80
1c00
0f00
0700
0000
0000
1ee0
3f60
7be0
71e0
70e0
70e0
70e0
79e0
3fe0
1f60
00e0
00e0
00e0
1fc0
0f80
ENDCHAR
STARTCHAR U+0124
ENCODING 292
SWIDTH 500 0
DWIDTH 12 0
BBX 12 24 0 -2
BITMAP 
0f00
1f80
39c0
0000
0000
70e0
70e0
70e0
70e0
70e0
70e0
7fe0
7fe0
70e0
70e0
70e0
70e0
70e0
70e0
0000
0000
0000
0000
0000
ENDCHAR
STARTCHAR U+0125
ENCODING 293
SWIDTH 500 0
DWIDTH 12 0
BBX 12 24 0 -2
BITMAP 
1e00
3f00
7380
0000
0000
7000
7000
7000
7000
7780
77c0
7de0
78e0
70e0
70e0
70e0
70e0
70e0
70e0
0000
0000
0000
0000
0000
ENDCHAR
STARTCHAR U+0126
ENCODING 294
SWIDTH 500 0
DWIDTH 12 0
BBX 12 24 0 -2
BITMAP 
0000
0000
0000
0000
0000
71c0
71c0
ffe0
ffe0
71c0
71c0
7fc0
7fc0
71c0
71c0
71c0
71c0
71c0
71c0
0000
0000
0000
0000
0000
ENDCHAR
STARTCHAR U+0127
ENCODING 295
SWIDTH 500 0
DWIDTH 12 0
BBX 12 24 0 -2
BITMAP 
0000
0000
0000
0000
7000
7000
ff00
ff00
7000
7780
77c0
7de0
78e0
70e0
70e0
70e0
70e0
70e0
70e0
0000
0000
0000
0000
0000
ENDCHAR
STARTCHAR U+0128
ENCODING 296
SWIDTH 500 0
DWIDTH 12 0
BBX 12 24 0 -2
BITMAP 
3cc0
76c0
6780
0000
0000
3f80
3f80
0e00
0e00
0e00
0e00
0e00
0e00
0e00
0e00
0e00
0e00
3f80
3f80
0000
0000
0000
0000
0000
ENDCHAR
STARTCHAR U+0129
ENCODING 297
SWIDTH 500 0
DWIDTH 12 0
BBX 12 24 0 -2
BITMAP 
0000
0000
0000
0000
3cc0
76c0
6780
0000
0000
0e00
0e00
0e00
0e00
0e00
0e00
0e00
0e00
0e00
0e00
0000
0000
0000
0000
0000
ENDCHAR
STARTCHAR U+012A
ENCODING 298
SWIDTH 500 0
DWIDTH 12 0
BBX 12 24 0 -2
BITMAP 
0000
7fc0
7fc0
0000
0000
3f80
3f80
0e00
0e00
0e00
0e00
0e00
0e00
0e00
0e00
0e00
0e00
3f80
3f80
0000
0000
0000
0000
0000
ENDCHAR
STARTCHAR U+012B
ENCODING 299
SWIDTH 500 0
DWIDTH 12 0
BBX 12 24 0 -2
BITMAP 
0000
0000
0000
0000
0000
3f80
3f80
0000
0000
0e00
0e00
0e00
0e00
0e00
0e00
0e00
0e00
0e00
0e00
0000
0000
0000
0000
0000
ENDCHAR
STARTCHAR U+012C
ENCODING 300
SWIDTH 500 0
DWIDTH 12 0
BBX 12 24 0 -2
BITMAP 
39c0
39c0
1f80
0000
0000
3f80
3f80
0e00
0e00
0e00
0e00
0e00
0e00
0e00
0e00
0e00
0e00
3f80
3f80
0000
0000
0000
0000
0000
ENDCHAR
STARTCHAR U+012D
ENCODING 301
SWIDTH 500 0
DWIDTH 12 0
BBX 12 24 0 -2
BITMAP 
0000
0000
0000
0000
3b80
3b80
1f00
0000
0000
0e00
0e00
0e00
0e00
0e00
0e00
0e00
0e00
0e00
0e00
0000
0000
0000
0000
0000
ENDCHAR
STARTCHAR U+012E
ENCODING 302
SWIDTH 500 0
DWIDTH 12 0
BBX 12 24 0 -2
BITMAP 
0000
0000
0000
0000
0000
3f80
3f80
0e00
0e00
0e00
0e00
0e00
0e00
0e00
0e00
0e00
0e00
3f80
3f80
0e00
1e00
3800
3e00
1f00
ENDCHAR
STARTCHAR U+012F
ENCODING 303
SWIDTH 500 0
DWIDTH 12 0
BBX 12 24 0 -2
BITMAP 
0000
0000
0000
0000
0000
0e00
0e00
0000
0000
0e00
0e00
0e00
0e00
0e00
0e00
0e00
0e00
0e00
0e00
0e00
1e00
3800
3e00
1f00
ENDCHAR
STARTCHAR U+0130
ENCODING 304
SWIDTH 500 0
DWIDTH 12 0
BBX 12 24 0 -2
BITMAP 
0000
0e00
0e00
0000
0000
3f80
3f80
0e00
0e00
0e00
0e00
0e00
0e00
0e00
0e00
0e00
0e00
3f80
3f80
0000
0000
0000
0000
0000
ENDCHAR
STARTCHAR U+0131
ENCODING 305
SWIDTH 500 0
DWIDTH 12 0
BBX 12 24 0 -2
BITMAP 
0000
0000
0000
0000
0000
0000
0000
0000
0000
0e00
0e00
0e00
0e00
0e00
0e00
0e00
0e00
0e00
0e00
0000
0000
0000
0000
0000
ENDCHAR
STARTCHAR U+0132
ENCODING 306
SWIDTH 500 0
DWIDTH 12 0
BBX 12 24 0 -2
BITMAP 
0000
0000
0000
0000
0000
f8e0
f8e0
70e0
70e0
70e0
70e0
70e0
70e0
70e0
70e0
76e0
76e0
fbc0
fbc0
0000
0000
0000
0000
0000
ENDCHAR
STARTCHAR U+0133
ENCODING 307
SWIDTH 500 0
DWIDTH 12 0
BBX 12 24 0 -2
BITMAP 
0000
0000
0000
0000
0000
7380
7380
0000
0000
7380
7380
7380
7380
7380
7380
7380
7380
7380
7380
0380
0380
1f80
1e00
0000
ENDCHAR
STARTCHAR U+0134
ENCODING 308
SWIDTH 500 0
DWIDTH 12 0
BBX 12 24 0 -2
BITMAP 
0780
0fc0
1ce0
0000
0000
00e0
00e0
00e0
00e0
00e0
00e0
00e0
00e0
00e0
00e0
70e0
71e0
3fc0
1f80
0000
0000
0000
0000
0000
ENDCHAR
STARTCHAR U+0135
ENCODING 309
SWIDTH 500 0
DWIDTH 12 0
BBX 12 24 0 -2
BITMAP 
0000
0000
0000
0000
1e00
3f00
7380
0000
0000
0e00
0e00
0e00
0e00
0e00
0e00
0e00
0e00
0e00
0e00
0e00
0e00
7e00
7800
0000
ENDCHAR
STARTCHAR U+0136
ENCODING 310
SWIDTH 500 0
DWIDTH 12 0
BBX 12 24 0 -2
BITMAP 
0000
0000
0000
0000
0000
70e0
71c0
7380
7700
7600
7c00
7800
7c00
7600
7700
7380
71c0
70e0
7060
3800
3c00
0e00
7e00
7c00
ENDCHAR
STARTCHAR U+0137
ENCODING 311
SWIDTH 500 0
DWIDTH 12 0
BBX 12 24 0 -2
BITMAP 
0000
0000
0000
0000
0000
7000
7000
7000
71c0
73c0
7780
7700
7e00
7c00
7e00
7700
7780
73c0
71c0
3800
3c00
0e00
7e00
7c00
ENDCHAR
STARTCHAR U+0138
ENCODING 312
SWIDTH 500 0
DWIDTH 12 0
BBX 12 24 0 -2
BITMAP 
0000
0000
0000
0000
0000
0000
0000
0000
70e0
71c0
7380
7700
7e00
7c00
7e00
7700
7380
71c0
70e0
0000
0000
0000
0000
0000
ENDCHAR
STARTCHAR U+0139
ENCODING 313
SWIDTH 500 0
DWIDTH 12 0
BBX 12 24 0 -2
BITMAP 
1c00
3c00
7000
0000
0000
7000
7000
7000
7000
7000
7000
7000
7000
7000
7000
7000
7000
7fe0
7fe0
0000
0000
0000
0000
0000
ENDCHAR
STARTCHAR U+013A
ENCODING 314
SWIDTH 500 0
DWIDTH 12 0
BBX 12 24 0 -2
BITMAP 
0700
0f00
1c00
0000
0000
0e00
0e00
0e00
0e00
0e00
0e00
0e00
0e00
0e00
0e00
0e00
0e00
0f80
0780
0000
0000
0000
0000
0000
ENDCHAR
STARTCHAR U+013B
ENCODING 315
SWIDTH 500 0
DWIDTH 12 0
BBX 12 24 0 -2
BITMAP 
0000
0000
0000
0000
0000
7000
7000
7000
7000
7000
7000
7000
7000
7000
7000
7000
7000
7fe0
7fe0
0e00
0f00
0380
1f80
1f00
ENDCHAR
STARTCHAR U+013C
ENCODING 316
SWIDTH 500 0
DWIDTH 12 0
BBX 12 24 0 -2
BITMAP 
0000
0000
0000
0000
0000
0e00
0e00
0e00
0e00
0e00
0e00
0e00
0e00
0e00
0e00
0e00
0e00
0f80
0780
0e00
0f00
0380
1f80
1f00
ENDCHAR
STARTCHAR U+013D
ENCODING 317
SWIDTH 500 0
DWIDTH 12 0
BBX 12 24 0 -2
BITMAP 
0000
0000
0000
0000
0780
7780
7180
7380
7700
7000
7000
7000
7000
7000
7000
7000
7000
7fe0
7fe0
0000
0000
0000
0000
0000
ENDCHAR
STARTCHAR U+013E
ENCODING 318
SWIDTH 500 0
DWIDTH 12 0
BBX 12 24 0 -2
BITMAP 
0000
0000
0000
0000
03c0
3bc0
38c0
39c0
3b80
3800
3800
3800
3800
3800
3800
3800
3800
3e00
1e00
0000
0000
0000
0000
0000
ENDCHAR
STARTCHAR U+013F
ENCODING 319
SWIDTH 500 0
DWIDTH 12 0
BBX 12 24 0 -2
BITMAP 
0000
0000
0000
0000
0000
7000
7000
7000
7000
7000
7180
73c0
7180
7000
7000
7000
7000
7fe0
7fe0
0000
0000
0000
0000
0000
ENDCHAR
STARTCHAR U+0140
ENCODING 320
SWIDTH 500 0
DWIDTH 12 0
BBX 12 24 0 -2
BITMAP 
0000
0000
0000
0000
0000
7000
7000
7000
7000
7000
7180
73c0
7180
7000
7000
7000
7000
7c00
3c00
0000
0000
0000
0000
0000
ENDCHAR
STARTCHAR U+0141
ENCODING 321
SWIDTH 500 0
DWIDTH 12 0
BBX 12 24 0 -2
BITMAP 
0000
0000
0000
0000
0000
7000
7000
7380
7700
7600
7c00
7800
f000
f000
7000
7000
7000
7fe0
7fe0
0000
0000
0000
0000
0000
ENDCHAR
STARTCHAR U+0142
ENCODING 322
SWIDTH 500 0
DWIDTH 12 0
BBX 12 24 0 -2
BITMAP 
0000
0000
0000
0000
0000
0e00
0e00
0e00
0e00
0ec0
0f80
0f00
1e00
3e00
7600
0e00
0e00
0f80
0780
0000
0000
0000
0000
0000
ENDCHAR
STARTCHAR U+0143
ENCODING 323
SWIDTH 500 0
DWIDTH 12 0
BBX 12 24 0 -2
BITMAP 
0700
0f00
1c00
0000
0000
70e0
78e0
78e0
7ce0
7ce0
76e0
76e0
7760
7760
73e0
73e0
71e0
71e0
70e0
0000
0000
0000
0000
0000
ENDCHAR
STARTCHAR U+0144
ENCODING 324
SWIDTH 500 0
DWIDTH 12 0
BBX 12 24 0 -2
BITMAP 
0000
0000
0000
0000
0700
0f00
1c00
0000
0000
7780
77c0
7ce0
78e0
70e0
70e0
70e0
70e0
70e0
70e0
0000
0000
0000
0000
0000
ENDCHAR
STARTCHAR U+0145
ENCODING 325
SWIDTH 500 0
DWIDTH 12 0
BBX 12 24 0 -2
BITMAP 
0000
0000
0000
0000
0000
70e0
78e0
78e0
7ce0
7ce0
76e0
76e0
7760
7760
73e0
73e0
71e0
71e0
70e0
3800
3c00
0e00
7e00
7c00
ENDCHAR
STARTCHAR U+0146
ENCODING 326
SWIDTH 500 0
DWIDTH 12 0
BBX 12 24 0 -2
BITMAP 
0000
0000
0000
0000
0000
0000
0000
0000
0000
7780
77c0
7ce0
78e0
70e0
70e0
70e0
70e0
70e0
70e0
3800
3c00
0e00
7e00
7c00
ENDCHAR
STARTCHAR U+0147
ENCODING 327
SWIDTH 500 0
DWIDTH 12 0
BBX 12 24 0 -2
BITMAP 
3b80
1f00
0e00
0000
0000
70e0
78e0
78e0
7ce0
7ce0
76e0
76e0
7760
7760
73e0
73e0
71e0
71e0
70e0
0000
0000
0000
0000
0000
ENDCHAR
STARTCHAR U+0148
ENCODING 328
SWIDTH 500 0
DWIDTH 12 0
BBX 12 24 0 -2
BITMAP 
0000
0000
0000
0000
3b80
1f00
0e00
0000
0000
7780
77c0
7ce0
78e0
70e0
70e0
70e0
70e0
70e0
70e0
0000
0000
0000
0000
0000
ENDCHAR
STARTCHAR U+0149
ENCODING 329
SWIDTH 500 0
DWIDTH 12 0
BBX 12 24 0 -2
BITMAP 
0000
0000
0000
f000
f000
3000
7000
e000
0000
7780
77c0
7ce0
78e0
70e0
70e0
70e0
70e0
70e0
70e0
0000
0000
0000
0000
0000
ENDCHAR
STARTCHAR U+014A
ENCODING 330
SWIDTH 500 0
DWIDTH 12 0
BBX 12 24 0 -2
BITMAP 
0000
0000
0000
0000
0000
7780
77c0
7de0
78e0
70e0
70e0
70e0
70e0
70e0
70e0
70e0
71e0
77c0
7780
0000
0000
0000
0000
0000
ENDCHAR
STARTCHAR U+014B
ENCODING 331
SWIDTH 500 0
DWIDTH 12 0
BBX 12 24 0 -2
BITMAP 
0000
0000
0000
0000
0000
0000
0000
0000
0000
7780
77c0
7ce0
78e0
70e0
70e0
70e0
70e0
70e0
70e0
00e0
00e0
00e0
1fc0
0f80
ENDCHAR
STARTCHAR U+014C
ENCODING 332
SWIDTH 500 0
DWIDTH 12 0
BBX 12 24 0 -2
BITMAP 
0000
3fc0
3fc0
0000
0000
1f80
3fc0
79e0
70e0
70e0
70e0
70e0
70e0
70e0
70e0
70e0
79e0
3fc0
1f80
0000
0000
0000
0000
0000
ENDCHAR
STARTCHAR U+014D
ENCODING 333
SWIDTH 500 0
DWIDTH 12 0
BBX 12 24 0 -2
BITMAP 
0000
0000
0000
0000
0000
3fc0
3fc0
0000
0000
1f80
3fc0
79e0
70e0
70e0
70e0
70e0
79e0
3fc0
1f80
0000
0000
0000
0000
0000
ENDCHAR
STARTCHAR U+014E
ENCODING 334
SWIDTH 500 0
DWIDTH 12 0
BBX 12 24 0 -2
BITMAP 
39c0
39c0
1f80
0000
0000
1f80
3fc0
79e0
70e0
70e0
70e0
70e0
70e0
70e0
70e0
70e0
79e0
3fc0
1f80
0000
0000
0000
0000
0000
ENDCHAR
STARTCHAR U+014F
ENCODING 335
SWIDTH 500 0
DWIDTH 12 0
BBX 12 24 0 -2
BITMAP 
0000
0000
0000
0000
39c0
39c0
1f80
0000
0000
1f80
3fc0
79e0
70e0
70e0
70e0
70e0
79e0
3fc0
1f80
0000
0000
0000
0000
0000
ENDCHAR
STARTCHAR U+0150
ENCODING 336
SWIDTH 500 0
DWIDTH 12 0
BBX 12 24 0 -2
BITMAP 
1ce0
3de0
7380
0000
0000
1f80
3fc0
79e0
70e0
70e0
70e0
70e0
70e0
70e0
70e0
70e0
79e0
3fc0
1f80
0000
0000
0000
0000
0000
ENDCHAR
STARTCHAR U+0151
ENCODING 337
SWIDTH 500 0
DWIDTH 12 0
BBX 12 24 0 -2
BITMAP 
0000
0000
0000
0000
1ce0
3de0
7380
0000
0000
1f80
3fc0
79e0
70e0
70e0
70e0
70e0
79e0
3fc0
1f80
0000
0000
0000
0000
0000
ENDCHAR
STARTCHAR U+0152
ENCODING 338
SWIDTH 500 0
DWIDTH 12 0
BBX 12 24 0 -2
BITMAP 
0000
0000
0000
0000
0000
3de0
7fe0
f700
e700
e700
e700
e7c0
e7c0
e700
e700
e700
f700
7fe0
3de0
0000
0000
0000
0000
0000
ENDCHAR
STARTCHAR U+0153
ENCODING 339
SWIDTH 500 0
DWIDTH 12 0
BBX 12 24 0 -2
BITMAP 
0000
0000
0000
0000
0000
0000
0000
0000
0000
3dc0
7fe0
f6e0
eee0
efe0
efe0
ee00
f6e0
7fe0
3dc0
0000
0000
0000
0000
0000
ENDCHAR
STARTCHAR U+0154
ENCODING 340
SWIDTH 500 0
DWIDTH 12 0
BBX 12 24 0 -2
BITMAP 
0700
0f00
1c00
0000
0000
7f80
7fc0
71e0
70e0
70e0
71e0
7fc0
7f80
7380
7380
71c0
71c0
70e0
70e0
0000
0000
0000
0000
0000
ENDCHAR
STARTCHAR U+0155
ENCODING 341
SWIDTH 500 0
DWIDTH 12 0
BBX 12 24 0 -2
BITMAP 
0000
0000
0000
0000
0700
0f00
1c00
0000
0000
7780
77c0
7ce0
78e0
7000
7000
7000
7000
7000
7000
0000
0000
0000
0000
0000
ENDCHAR
STARTCHAR U+0156
ENCODING 342
SWIDTH 500 0
DWIDTH 12 0
BBX 12 24 0 -2
BITMAP 
0000
0000
0000
0000
0000
7f80
7fc0
71e0
70e0
70e0
71e0
7fc0
7f80
7380
7380
71c0
71c0
70e0
70e0
3800
3c00
0e00
7e00
7c00
ENDCHAR
STARTCHAR U+0157
ENCODING 343
SWIDTH 500 0
DWIDTH 12 0
BBX 12 24 0 -2
BITMAP 
0000
0000
0000
0000
0000
0000
0000
0000
0000
7780
77c0
7ce0
78e0
7000
7000
7000
7000
7000
7000
3800
3c00
0e00
7e00
7c00
ENDCHAR
STARTCHAR U+0158
ENCODING 344
SWIDTH 500 0
DWIDTH 12 0
BBX 12 24 0 -2
BITMAP 
3b80
1f00
0e00
0000
0000
7f80
7fc0
71e0
70e0
70e0
71e0
7fc0
7f80
7380
7380
71c0
71c0
70e0
70e0
0000
0000
0000
0000
0000
ENDCHAR
STARTCHAR U+0159
ENCODING 345
SWIDTH 500 0
DWIDTH 12 0
BBX 12 24 0 -2
BITMAP 
0000
0000
0000
0000
3b80
1f00
0e00
0000
0000
7780
77c0
7ce0
78e0
7000
7000
7000
7000
7000
7000
0000
0000
0000
0000
0000
ENDCHAR
STARTCHAR U+015A
ENCODING 346
SWIDTH 500 0
DWIDTH 12 0
BBX 12 24 0 -2
BITMAP 
0700
0f00
1c00
0000
0000
1f80
3fc0
71e0
70e0
7000
7800
3f80
1fc0
01e0
00e0
70e0
71e0
7fc0
3f80
0000
0000
0000
0000
0000
ENDCHAR
STARTCHAR U+015B
ENCODING 347
SWIDTH 500 0
DWIDTH 12 0
BBX 12 24 0 -2
BITMAP 
0000
0000
0000
0000
0700
0f00
1c00
0000
0000
3fc0
7fe0
7060
7000
3f80
1fc0
00e0
70e0
7fe0
3fc0
0000
0000
0000
0000
0000
ENDCHAR
STARTCHAR U+015C
ENCODING 348
SWIDTH 500 0
DWIDTH 12 0
BBX 12 24 0 -2
BITMAP 
0f00
1f80
39c0
0000
0000
1f80
3fc0
71e0
70e0
7000
7800
3f80
1fc0
01e0
00e0
70e0
71e0
7fc0
3f80
0000
0000
0000
0000
0000
ENDCHAR
STARTCHAR U+015D
ENCODING 349
SWIDTH 500 0
DWIDTH 12 0
BBX 12 24 0 -2
BITMAP 
0000
0000
0000
0000
0f00
1f80
39c0
0000
0000
3fc0
7fe0
7060
7000
3f80
1fc0
00e0
70e0
7fe0
3fc0
0000
0000
0000
0000
0000
ENDCHAR
STARTCHAR U+015E
ENCODING 350
SWIDTH 500 0
DWIDTH 12 0
BBX 12 24 0 -2
BITMAP 
0000
0000
0000
0000
0000
1f80
3fc0
71e0
70e0
7000
7800
3f80
1fc0
01e0
00e0
70e0
71e0
7fc0
3f80
0e00
0f00
0380
1f80
1f00
ENDCHAR
STARTCHAR U+015F
ENCODING 351
SWIDTH 500 0
DWIDTH 12 0
BBX 12 24 0 -2
BITMAP 
0000
0000
0000
0000
0000
0000
0000
0000
0000
3fc0
7fe0
7060
7000
3f80
1fc0
00e0
70e0
7fe0
3fc0
0e00
0f00
0380
1f80
1f00
ENDCHAR
STARTCHAR U+0160
ENCODING 352
SWIDTH 500 0
DWIDTH 12 0
BBX 12 24 0 -2
BITMAP 
3b80
1f00
0e00
0000
0000
1f80
3fc0
71e0
70e0
7000
7800
3f80
1fc0
01e0
00e0
70e0
71e0
7fc0
3f80
0000
0000
0000
0000
0000
ENDCHAR
STARTCHAR U+0161
ENCODING 353
SWIDTH 500 0
DWIDTH 12 0
BBX 12 24 0 -2
BITMAP 
0000
0000
0000
0000
3b80
1f00
0e00
0000
0000
3fc0
7fe0
7060
7000
3f80
1fc0
00e0
70e0
7fe0
3fc0
0000
0000
0000
0000
0000
ENDCHAR
STARTCHAR U+0162
ENCODING 354
SWIDTH 500 0
DWIDTH 12 0
BBX 12 24 0 -2
BITMAP 
0000
0000
0000
0000
0000
ffe0
ffe0
0e00
0e00
0e00
0e00
0e00
0e00
0e00
0e00
0e00
0e00
0e00
0e00
0e00
0f00
0380
1f80
1f00
ENDCHAR
STARTCHAR U+0163
ENCODING 355
SWIDTH 500 0
DWIDTH 12 0
BBX 12 24 0 -2
BITMAP 
0000
0000
0000
0000
0000
0000
0e00
0e00
0e00
3f80
3f80
0e00
0e00
0e00
0e00
0e00
0e00
0f80
0f80
0e00
0f00
0380
1f80
1f00
ENDCHAR
STARTCHAR U+0164
ENCODING 356
SWIDTH 500 0
DWIDTH 12 0
BBX 12 24 0 -2
BITMAP 
3b80
1f00
0e00
0000
0000
ffe0
ffe0
0e00
0e00
0e00
0e00
0e00
0e00
0e00
0e00
0e00
0e00
0e00
0e00
0000
0000
0000
0000
0000
ENDCHAR
STARTCHAR U+0165
ENCODING 357
SWIDTH 500 0
DWIDTH 12 0
BBX 12 24 0 -2
BITMAP 
0000
0000
0000
0000
01e0
01e0
3860
38e0
39c0
fe00
fe00
3800
3800
3800
3800
3800
3800
3e00
1e00
0000
0000
0000
0000
0000
ENDCHAR
STARTCHAR U+0166
ENCODING 358
SWIDTH 500 0
DWIDTH 12 0
BBX 12 24 0 -2
BITMAP 
0000
0000
0000
0000
0000
ffe0
ffe0
0e00
0e00
0e00
0ec0
0f80
0f00
1e00
3e00
7600
0e00
0e00
0e00
0000
0000
0000
0000
0000
ENDCHAR
STARTCHAR U+0167
ENCODING 359
SWIDTH 500 0
DWIDTH 12 0
BBX 12 24 0 -2
BITMAP 
0000
0000
0000
0000
0000
0000
0e00
0e00
0e00
3f80
3f80
0e00
0ec0
0f80
1f00
3e00
7600
0f80
0780
0000
0000
0000
0000
0000
ENDCHAR
STARTCHAR U+0168
ENCODING 360
SWIDTH 500 0
DWIDTH 12 0
BBX 12 24 0 -2
BITMAP 
3c60
76e0
67c0
0000
0000
70e0
70e0
70e0
70e0
70e0
70e0
70e0
70e0
70e0
70e0
70e0
79e0
3fc0
1f80
0000
0000
0000
0000
0000
ENDCHAR
STARTCHAR U+0169
ENCODING 361
SWIDTH 500 0
DWIDTH 12 0
BBX 12 24 0 -2
BITMAP 
0000
0000
0000
0000
1e60
3b60
33c0
0000
0000
70e0
70e0
70e0
70e0
70e0
70e0
71e0
7be0
3f60
1ee0
0000
0000
0000
0000
0000
ENDCHAR
STARTCHAR U+016A
ENCODING 362
SWIDTH 500 0
DWIDTH 12 0
BBX 12 24 0 -2
BITMAP 
0000
3fc0
3fc0
0000
0000
70e0
70e0
70e0
70e0
70e0
70e0
70e0
70e0
70e0
70e0
70e0
79e0
3fc0
1f80
0000
0000
0000
0000
0000
ENDCHAR
STARTCHAR U+016B
ENCODING 363
SWIDTH 500 0
DWIDTH 12 0
BBX 12 24 0 -2
BITMAP 
0000
0000
0000
0000
0000
3fc0
3fc0
0000
0000
70e0
70e0
70e0
70e0
70e0
70e0
71e0
7be0
3f60
1ee0
0000
0000
0000
0000
0000
ENDCHAR
STARTCHAR U+016C
ENCODING 364
SWIDTH 500 0
DWIDTH 12 0
BBX 12 24 0 -2
BITMAP 
39c0
39c0
1f80
0000
0000
70e0
70e0
70e0
70e0
70e0
70e0
70e0
70e0
70e0
70e0
70e0
79e0
3fc0
1f80
0000
0000
0000
0000
0000
ENDCHAR
STARTCHAR U+016D
ENCODING 365
SWIDTH 500 0
DWIDTH 12 0
BBX 12 24 0 -2
BITMAP 
0000
0000
0000
0000
39c0
39c0
1f80
0000
0000
70e0
70e0
70e0
70e0
70e0
70e0
71e0
7be0
3f60
1ee0
0000
0000
0000
0000
0000
ENDCHAR
STARTCHAR U+016E
ENCODING 366
SWIDTH 500 0
DWIDTH 12 0
BBX 12 24 0 -2
BITMAP 
0f00
1d80
1d80
0f00
0000
70e0
70e0
70e0
70e0
70e0
70e0
70e0
70e0
70e0
70e0
70e0
79e0
3fc0
1f80
0000
0000
0000
0000
0000
ENDCHAR
STARTCHAR U+016F
ENCODING 367
SWIDTH 500 0
DWIDTH 12 0
BBX 12 24 0 -2
BITMAP 
0000
0000
0000
0f00
1d80
1d80
0f00
0000
0000
70e0
70e0
70e0
70e0
70e0
70e0
71e0
7be0
3f60
1ee0
0000
0000
0000
0000
0000
ENDCHAR
STARTCHAR U+0170
ENCODING 368
SWIDTH 500 0
DWIDTH 12 0
BBX 12 24 0 -2
BITMAP 
1ce0
3de0
7380
0000
0000
70e0
70e0
70e0
70e0
70e0
70e0
70e0
70e0
70e0
70e0
70e0
79e0
3fc0
1f80
0000
0000
0000
0000
0000
ENDCHAR
STARTCHAR U+0171
ENCODING 369
SWIDTH 500 0
DWIDTH 12 0
BBX 12 24 0 -2
BITMAP 
0000
0000
0000
0000
1ce0
3de0
7380
0000
0000
70e0
70e0
70e0
70e0
70e0
70e0
71e0
7be0
3f60
1ee0
0000
0000
0000
0000
0000
ENDCHAR
STARTCHAR U+0172
ENCODING 370
SWIDTH 500 0
DWIDTH 12 0
BBX 12 24 0 -2
BITMAP 
0000
0000
0000
0000
0000
70e0
70e0
70e0
70e0
70e0
70e0
70e0
70e0
70e0
70e0
70e0
79e0
3fc0
1f80
0e00
1e00
3800
3f00
1f00
ENDCHAR
STARTCHAR U+0173
ENCODING 371
SWIDTH 500 0
DWIDTH 12 0
BBX 12 24 0 -2
BITMAP 
0000
0000
0000
0000
0000
0000
0000
0000
0000
70e0
70e0
70e0
70e0
70e0
70e0
71e0
7be0
3f60
1ee0
01c0
03c0
0700
07e0
03e0
ENDCHAR
STARTCHAR U+0174
ENCODING 372
SWIDTH 500 0
DWIDTH 12 0
BBX 12 24 0 -2
BITMAP 
0f00
1f80
39c0
0000
0000
70e0
70e0
70e0
70e0
70e0
70e0
76e0
7760
7760
7de0
7de0
79e0
79e0
70e0
0000
0000
0000
0000
0000
ENDCHAR
STARTCHAR U+0175
ENCODING 373
SWIDTH 500 0
DWIDTH 12 0
BBX 12 24 0 -2
BITMAP 
0000
0000
0000
0000
0f00
1f80
39c0
0000
0000
70e0
70e0
70e0
70e0
76e0
7760
7760
7de0
79e0
70e0
0000
0000
0000
0000
0000
ENDCHAR
STARTCHAR U+0176
ENCODING 374
SWIDTH 500 0
DWIDTH 12 0
BBX 12 24 0 -2
BITMAP 
0f00
1f80
39c0
0000
0000
e0e0
e0e0
71c0
71c0
3b80
3f80
1f00
0e00
0e00
0e00
0e00
0e00
0e00
0e00
0000
0000
0000
0000
0000
ENDCHAR
STARTCHAR U+0177
ENCODING 375
SWIDTH 500 0
DWIDTH 12 0
BBX 12 24 0 -2
BITMAP 
0000
0000
0000
0000
0f00
1f80
39c0
0000
0000
70e0
70e0
70e0
70e0
70e0
70e0
70e0
71e0
3fe0
1f60
00e0
00e0
00e0
3fc0
1f80
ENDCHAR
STARTCHAR U+0178
ENCODING 376
SWIDTH 500 0
DWIDTH 12 0
BBX 12 24 0 -2
BITMAP 
0000
39c0
39c0
0000
0000
e0e0
e0e0
71c0
71c0
3b80
3f80
1f00
0e00
0e00
0e00
0e00
0e00
0e00
0e00
0000
0000
0000
0000
0000
ENDCHAR
STARTCHAR U+0179
ENCODING 377
SWIDTH 500 0
DWIDTH 12 0
BBX 12 24 0 -2
BITMAP 
0700
0f00
1c00
0000
0000
ffe0
ffe0
00e0
01e0
03c0
0780
0f00
1e00
3c00
7800
f000
e000
ffe0
ffe0
0000
0000
0000
0000
0000
ENDCHAR
STARTCHAR U+017A
ENCODING 378
SWIDTH 500 0
DWIDTH 12 0
BBX 12 24 0 -2
BITMAP 
0000
0000
0000
0000
0700
0f00
1c00
0000
0000
7fe0
7fe0
01c0
0380
0700
0e00
1c00
3800
7fe0
7fe0
0000
0000
0000
0000
0000
ENDCHAR
STARTCHAR U+017B
ENCODING 379
SWIDTH 500 0
DWIDTH 12 0
BBX 12 24 0 -2
BITMAP 
0000
0e00
0e00
0000
0000
ffe0
ffe0
00e0
01e0
03c0
0780
0f00
1e00
3c00
7800
f000
e000
ffe0
ffe0
0000
0000
0000
0000
0000
ENDCHAR
STARTCHAR U+017C
ENCODING 380
SWIDTH 500 0
DWIDTH 12 0
BBX 12 24 0 -2
BITMAP 
0000
0000
0000
0000
0000
0e00
0e00
0000
0000
7fe0
7fe0
01c0
0380
0700
0e00
1c00
3800
7fe0
7fe0
0000
0000
0000
0000
0000
ENDCHAR
STARTCHAR U+017D
ENCODING 381
SWIDTH 500 0
DWIDTH 12 0
BBX 12 24 0 -2
BITMAP 
3b80
1f00
0e00
0000
0000
ffe0
ffe0
00e0
01e0
03c0
0780
0f00
1e00
3c00
7800
f000
e000
ffe0
ffe0
0000
0000
0000
0000
0000
ENDCHAR
STARTCHAR U+017E
ENCODING 382
SWIDTH 500 0
DWIDTH 12 0
BBX 12 24 0 -2
BITMAP 
0000
0000
0000
0000
3b80
1f00
0e00
0000
0000
7fe0
7fe0
01c0
0380
0700
0e00
1c00
3800
7fe0
7fe0
0000
0000
0000
0000
0000
ENDCHAR
STARTCHAR U+017F
ENCODING 383
SWIDTH 500 0
DWIDTH 12 0
BBX 12 24 0 -2
BITMAP 
0000
0000
0000
0000
0000
0780
0f80
0e00
0e00
0e00
1e00
1e00
0e00
0e00
0e00
0e00
0e00
0e00
0e00
0000
0000
0000
0000
0000
ENDCHAR
STARTCHAR U+0180
ENCODING 384
SWIDTH 500 0
DWIDTH 12 0
BBX 12 24 0 -2
BITMAP 
0000
0000
0000
0000
7000
7000
fe00
fe00
7000
7780
77c0
7de0
78e0
70e0
70e0
78e0
7de0
77c0
7780
0000
0000
0000
0000
0000
ENDCHAR
STARTCHAR U+0181
ENCODING 385
SWIDTH 500 0
DWIDTH 12 0
BBX 12 24 0 -2
BITMAP 
0000
0000
0000
0000
0000
7f00
ff80
edc0
edc0
edc0
1d80
1f80
1fc0
1dc0
1ce0
1ce0
1de0
1fc0
1f80
0000
0000
0000
0000
0000
ENDCHAR
STARTCHAR U+0182
ENCODING 386
SWIDTH 500 0
DWIDTH 12 0
BBX 12 24 0 -2
BITMAP 
0000
0000
0000
0000
0000
7f80
7f80
7000
7000
7000
7000
7f80
7fc0
71c0
70e0
70e0
71e0
7fc0
7f80
0000
0000
0000
0000
0000
ENDCHAR
STARTCHAR U+0183
ENCODING 387
SWIDTH 500 0
DWIDTH 12 0
BBX 12 24 0 -2
BITMAP 
0000
0000
0000
0000
0000
7fc0
7fc0
7000
7000
7780
77c0
7de0
78e0
70e0
70e0
78e0
7de0
77c0
7780
0000
0000
0000
0000
0000
ENDCHAR
STARTCHAR U+0184
ENCODING 388
SWIDTH 500 0
DWIDTH 12 0
BBX 12 24 0 -2
BITMAP 
0000
0000
0000
0000
0000
f000
f000
7000
7000
7000
7000
7f80
7fc0
71c0
70e0
70e0
71e0
7fc0
7f80
0000
0000
0000
0000
0000
ENDCHAR
STARTCHAR U+0185
ENCODING 389
SWIDTH 500 0
DWIDTH 12 0
BBX 12 24 0 -2
BITMAP 
0000
0000
0000
0000
0000
f800
f800
3800
3800
3b80
3bc0
3ee0
3ce0
38e0
38e0
3ce0
3ee0
3bc0
3b80
0000
0000
0000
0000
0000
ENDCHAR
STARTCHAR U+0186
ENCODING 390
SWIDTH 500 0
DWIDTH 12 0
BBX 12 24 0 -2
BITMAP 
0000
0000
0000
0000
0000
1f80
3fc0
79e0
70e0
00e0
00e0
00e0
00e0
00e0
00e0
70e0
79e0
3fc0
1f80
0000
0000
0000
0000
0000
ENDCHAR
STARTCHAR U+0187
ENCODING 391
SWIDTH 500 0
DWIDTH 12 0
BBX 12 24 0 -2
BITMAP 
0000
0000
0000
00e0
01e0
3f80
7f00
f780
e380
e000
e000
e000
e000
e000
e000
e380
f780
7f00
3e00
0000
0000
0000
0000
0000
ENDCHAR
STARTCHAR U+0188
ENCODING 392
SWIDTH 500 0
DWIDTH 12 0
BBX 12 24 0 -2
BITMAP 
0000
0000
0000
0000
0000
0000
0000
00e0
01e0
3f80
7f00
f380
e380
e000
e000
e000
f380
7f80
3f00
0000
0000
0000
0000
0000
ENDCHAR
STARTCHAR U+0189
ENCODING 393
SWIDTH 500 0
DWIDTH 12 0
BBX 12 24 0 -2
BITMAP 
0000
0000
0000
0000
0000
7f80
7fc0
71e0
70e0
70e0
70e0
fee0
fee0
70e0
70e0
70e0
71e0
7fc0
7f80
0000
0000
0000
0000
0000
ENDCHAR
STARTCHAR U+018A
ENCODING 394
SWIDTH 500 0
DWIDTH 12 0
BBX 12 24 0 -2
BITMAP 
0000
0000
0000
0000
0000
7f80
ffc0
edc0
ece0
ece0
1ce0
1ce0
1ce0
1ce0
1ce0
1ce0
1de0
1fc0
1f80
0000
0000
0000
0000
0000
ENDCHAR
STARTCHAR U+018B
ENCODING 395
SWIDTH 500 0
DWIDTH 12 0
BBX 12 24 0 -2
BITMAP 
0000
0000
0000
0000
0000
1fe0
1fe0
00e0
00e0
00e0
00e0
1fe0
3fe0
38e0
70e0
70e0
78e0
3fe0
1fe0
0000
0000
0000
0000
0000
ENDCHAR
STARTCHAR U+018C
ENCODING 396
SWIDTH 500 0
DWIDTH 12 0
BBX 12 24 0 -2
BITMAP 
0000
0000
0000
0000
0000
1fe0
1fe0
00e0
00e0
1f60
3fe0
79e0
70e0
70e0
70e0
71e0
73e0
3f60
1ee0
0000
0000
0000
0000
0000
ENDCHAR
STARTCHAR U+018D
ENCODING 397
SWIDTH 500 0
DWIDTH 12 0
BBX 12 24 0 -2
BITMAP 
0000
0000
0000
0000
0000
0000
1f80
3fc0
79e0
70e0
70e0
70e0
79e0
3fc0
1f80
0380
01c0
1fc0
1f80
0000
0000
0000
0000
0000
ENDCHAR
STARTCHAR U+018E
ENCODING 398
SWIDTH 500 0
DWIDTH 12 0
BBX 12 24 0 -2
BITMAP 
0000
0000
0000
0000
0000
7fe0
7fe0
00e0
00e0
00e0
00e0
1fe0
1fe0
00e0
00e0
00e0
00e0
7fe0
7fe0
0000
0000
0000
0000
0000
ENDCHAR
STARTCHAR U+018F
ENCODING 399
SWIDTH 500 0
DWIDTH 12 0
BBX 12 24 0 -2
BITMAP 
0000
0000
0000
0000
0000
3f80
7fc0
f1e0
e0e0
00e0
00e0
00e0
ffe0
ffe0
e0e0
e0e0
f1e0
7fc0
3f80
0000
0000
0000
0000
0000
ENDCHAR
STARTCHAR U+0190
ENCODING 400
SWIDTH 500 0
DWIDTH 12 0
BBX 12 24 0 -2
BITMAP 
0000
0000
0000
0000
0000
1f80
3fc0
70e0
70e0
7000
7000
3f00
3f00
7000
7000
70e0
70e0
3fc0
1f80
0000
0000
0000
0000
0000
ENDCHAR
STARTCHAR U+0191
ENCODING 401
SWIDTH 500 0
DWIDTH 12 0
BBX 12 24 0 -2
BITMAP 
0000
0000
0000
0000
0000
3fe0
3fe0
3800
3800
3800
3800
3f80
3f80
3800
3800
3800
3800
3800
3800
3800
3800
f800
f000
0000
ENDCHAR
STARTCHAR U+0192
ENCODING 402
SWIDTH 500 0
DWIDTH 12 0
BBX 12 24 0 -2
BITMAP 
0000
0000
0000
0000
0000
0780
0f80
0e00
0e00
0e00
3f80
3f80
0e00
0e00
0e00
0e00
0e00
0e00
0e00
0e00
0e00
3e00
3c00
0000
ENDCHAR
STARTCHAR U+0193
ENCODING 403
SWIDTH 500 0
DWIDTH 12 0
BBX 12 24 0 -2
BITMAP 
0000
0000
0000
00e0
01e0
3f80
7f00
f780
e380
e000
e000
e000
ef80
ef80
e380
e380
f780
7f00
3e00
0000
0000
0000
0000
0000
ENDCHAR
STARTCHAR U+0194
ENCODING 404
SWIDTH 500 0
DWIDTH 12 0
BBX 12 24 0 -2
BITMAP 
0000
0000
0000
0000
0000
70e0
70e0
79e0
39c0
1d80
1d80
0f00
0f00
1f80
39c0
39c0
39c0
39c0
1f80
0f00
0000
0000
0000
0000
ENDCHAR
STARTCHAR U+0195
ENCODING 405
SWIDTH 500 0
DWIDTH 12 0
BBX 12 24 0 -2
BITMAP 
0000
0000
0000
0000
e000
e000
e000
e000
e000
ece0
fee0
f6e0
eee0
eee0
eee0
eee0
eee0
e7c0
e380
0000
0000
0000
0000
0000
ENDCHAR
STARTCHAR U+0196
ENCODING 406
SWIDTH 500 0
DWIDTH 12 0
BBX 12 24 0 -2
BITMAP 
0000
0000
0000
0000
0000
3e00
3e00
0e00
0e00
0e00
0e00
0e00
0e00
0e00
0e00
0e00
0e00
0f80
0780
0000
0000
0000
0000
0000
ENDCHAR
STARTCHAR U+0197
ENCODING 407
SWIDTH 500 0
DWIDTH 12 0
BBX 12 24 0 -2
BITMAP 
0000
0000
0000
0000
0000
3f80
3f80
0e00
0e00
0e00
0e00
3f80
3f80
0e00
0e00
0e00
0e00
3f80
3f80
0000
0000
0000
0000
0000
ENDCHAR
STARTCHAR U+0198
ENCODING 408
SWIDTH 500 0
DWIDTH 12 0
BBX 12 24 0 -2
BITMAP 
0000
0000
0000
0000
0000
71c0
73e0
7760
7600
7400
7c00
7800
7c00
7600
7700
7380
71c0
70e0
7060
0000
0000
0000
0000
0000
ENDCHAR
STARTCHAR U+0199
ENCODING 409
SWIDTH 500 0
DWIDTH 12 0
BBX 12 24 0 -2
BITMAP 
0000
0000
0000
0000
3c00
7c00
7000
7000
71c0
73c0
7780
7700
7e00
7c00
7e00
7700
7780
73c0
71c0
0000
0000
0000
0000
0000
ENDCHAR
STARTCHAR U+019A
ENCODING 410
SWIDTH 500 0
DWIDTH 12 0
BBX 12 24 0 -2
BITMAP 
0000
0000
0000
0000
0000
0e00
0e00
0e00
0e00
0e00
0e00
3f80
3f80
0e00
0e00
0e00
0e00
0f80
0780
0000
0000
0000
0000
0000
ENDCHAR
STARTCHAR U+019B
ENCODING 411
SWIDTH 500 0
DWIDTH 12 0
BBX 12 24 0 -2
BITMAP 
0000
0000
0000
0000
00c0
3dc0
3d80
0f00
1e00
3b00
7700
6f80
0f80
1d80
1dc0
39c0
39c0
70e0
70e0
0000
0000
0000
0000
0000
ENDCHAR
STARTCHAR U+019C
ENCODING 412
SWIDTH 500 0
DWIDTH 12 0
BBX 12 24 0 -2
BITMAP 
0000
0000
0000
0000
0000
eee0
eee0
eee0
eee0
eee0
eee0
eee0
eee0
eee0
eee0
eee0
eee0
ffe0
7b60
0000
0000
0000
0000
0000
ENDCHAR
STARTCHAR U+019D
ENCODING 413
SWIDTH 500 0
DWIDTH 12 0
BBX 12 24 0 -2
BITMAP 
0000
0000
0000
0000
0000
38e0
38e0
3ce0
3ce0
3ee0
3ae0
3b60
3b60
3be0
39e0
39e0
38e0
38e0
38e0
3800
f800
f000
0000
0000
ENDCHAR
STARTCHAR U+019E
ENCODING 414
SWIDTH 500 0
DWIDTH 12 0
BBX 12 24 0 -2
BITMAP 
0000
0000
0000
0000
0000
0000
0000
0000
0000
7780
77c0
7ce0
78e0
70e0
70e0
70e0
70e0
70e0
70e0
00e0
00e0
00e0
0000
0000
ENDCHAR
STARTCHAR U+019F
ENCODING 415
SWIDTH 500 0
DWIDTH 12 0
BBX 12 24 0 -2
BITMAP 
0000
0000
0000
0000
0000
1f80
3fc0
79e0
70e0
70e0
76e0
7fe0
7b60
70e0
70e0
70e0
79e0
3fc0
1f80
0000
0000
0000
0000
0000
ENDCHAR
STARTCHAR U+01A0
ENCODING 416
SWIDTH 500 0
DWIDTH 12 0
BBX 12 24 0 -2
BITMAP 
0000
0000
00e0
00e0
01e0
3fc0
7f80
f3c0
e1c0
e1c0
e1c0
e1c0
e1c0
e1c0
e1c0
e1c0
f3c0
7f80
3f00
0000
0000
0000
0000
0000
ENDCHAR
STARTCHAR U+01A1
ENCODING 417
SWIDTH 500 0
DWIDTH 12 0
BBX 12 24 0 -2
BITMAP 
0000
0000
0000
0000
0000
0000
00e0
00e0
01e0
3fc0
7f80
f3c0
e1c0
e1c0
e1c0
e1c0
f3c0
7f80
3f00
0000
0000
0000
0000
0000
ENDCHAR
STARTCHAR U+01A2
ENCODING 418
SWIDTH 500 0
DWIDTH 12 0
BBX 12 24 0 -2
BITMAP 
0000
0000
0000
0000
0000
3dc0
7fe0
f760
e760
e760
e760
e760
e760
e760
e760
e760
f760
7ee0
3ce0
00e0
00e0
00e0
0000
0000
ENDCHAR
STARTCHAR U+01A3
ENCODING 419
SWIDTH 500 0
DWIDTH 12 0
BBX 12 24 0 -2
BITMAP 
0000
0000
0000
0000
0000
0000
0000
0000
0000
3dc0
7fe0
f760
e760
e760
e760
e760
f760
7ee0
3ce0
00e0
00e0
00e0
0000
0000
ENDCHAR
STARTCHAR U+01A4
ENCODING 420
SWIDTH 500 0
DWIDTH 12 0
BBX 12 24 0 -2
BITMAP 
0000
0000
0000
0000
0000
7f80
ffc0
ede0
ece0
ece0
1de0
1fc0
1f80
1c00
1c00
1c00
1c00
1c00
1c00
0000
0000
0000
0000
0000
ENDCHAR
STARTCHAR U+01A5
ENCODING 421
SWIDTH 500 0
DWIDTH 12 0
BBX 12 24 0 -2
BITMAP 
0000
0000
0000
0000
0000
0000
0000
0000
00e0
eee0
ef80
fb80
f380
e380
e380
f380
fb80
ef00
ee00
e000
e000
e000
e000
0000
ENDCHAR
STARTCHAR U+01A6
ENCODING 422
SWIDTH 500 0
DWIDTH 12 0
BBX 12 24 0 -2
BITMAP 
0000
0000
0000
0000
fe00
fe00
3800
3800
3f80
3fc0
39c0
39c0
3f80
3f00
3f00
3b80
3bc0
39e0
38e0
0000
0000
0000
0000
0000
ENDCHAR
STARTCHAR U+01A7
ENCODING 423
SWIDTH 500 0
DWIDTH 12 0
BBX 12 24 0 -2
BITMAP 
0000
0000
0000
0000
0000
1f80
3fc0
78e0
70e0
00e0
01e0
1fc0
3f80
7800
7000
70e0
78e0
3fe0
1fc0
0000
0000
0000
0000
0000
ENDCHAR
STARTCHAR U+01A8
ENCODING 424
SWIDTH 500 0
DWIDTH 12 0
BBX 12 24 0 -2
BITMAP 
0000
0000
0000
0000
0000
0000
0000
0000
0000
3fc0
7fe0
60e0
00e0
1fc0
3f80
7000
70e0
7fe0
3fc0
0000
0000
0000
0000
0000
ENDCHAR
STARTCHAR U+01A9
ENCODING 425
SWIDTH 500 0
DWIDTH 12 0
BBX 12 24 0 -2
BITMAP 
0000
0000
0000
0000
0000
7fe0
7fe0
7800
3c00
1e00
0f00
0780
0780
0f00
1e00
3c00
7800
7fe0
7fe0
0000
0000
0000
0000
0000
ENDCHAR
STARTCHAR U+01AA
ENCODING 426
SWIDTH 500 0
DWIDTH 12 0
BBX 12 24 0 -2
BITMAP 
0000
0000
0000
0000
0000
7c00
fe00
ee00
ee00
fe00
7e00
0e00
0e00
0e00
0e00
0e00
0e00
0e00
0e00
0e00
0f00
07c0
03c0
0000
ENDCHAR
STARTCHAR U+01AB
ENCODING 427
SWIDTH 500 0
DWIDTH 12 0
BBX 12 24 0 -2
BITMAP 
0000
0000
0000
0000
0000
0000
0e00
0e00
0e00
3f80
3f80
0e00
0e00
0e00
0e00
0e00
0e00
0f80
0780
0380
0380
0f80
0f00
0000
ENDCHAR
STARTCHAR U+01AC
ENCODING 428
SWIDTH 500 0
DWIDTH 12 0
BBX 12 24 0 -2
BITMAP 
0000
0000
0000
0000
0000
7fe0
ffe0
ee00
ee00
0e00
0e00
0e00
0e00
0e00
0e00
0e00
0e00
0e00
0e00
0000
0000
0000
0000
0000
ENDCHAR
STARTCHAR U+01AD
ENCODING 429
SWIDTH 500 0
DWIDTH 12 0
BBX 12 24 0 -2
BITMAP 
0000
0000
0000
0000
0000
0780
0f80
0e00
0e00
3f80
3f80
0e00
0e00
0e00
0e00
0e00
0e00
0f80
0780
0000
0000
0000
0000
0000
ENDCHAR
STARTCHAR U+01AE
ENCODING 430
SWIDTH 500 0
DWIDTH 12 0
BBX 12 24 0 -2
BITMAP 
0000
0000
0000
0000
0000
ffe0
ffe0
0e00
0e00
0e00
0e00
0e00
0e00
0e00
0e00
0e00
0e00
0e00
0e00
0f80
0780
0000
0000
0000
ENDCHAR
STARTCHAR U+01AF
ENCODING 431
SWIDTH 500 0
DWIDTH 12 0
BBX 12 24 0 -2
BITMAP 
0000
0000
0000
00e0
00e0
e7e0
e7c0
e700
e700
e700
e700
e700
e700
e700
e700
e700
e700
7e00
3c00
0000
0000
0000
0000
0000
ENDCHAR
STARTCHAR U+01B0
ENCODING 432
SWIDTH 500 0
DWIDTH 12 0
BBX 12 24 0 -2
BITMAP 
0000
0000
0000
0000
0000
0000
0000
00e0
00e0
e7e0
e7c0
e700
e700
e700
e700
e700
ef00
7f00
3b00
0000
0000
0000
0000
0000
ENDCHAR
STARTCHAR U+01B1
ENCODING 433
SWIDTH 500 0
DWIDTH 12 0
BBX 12 24 0 -2
BITMAP 
0000
0000
0000
0000
0000
7de0
7de0
1d80
1d80
39c0
70e0
70e0
70e0
70e0
70e0
70e0
79e0
3fc0
1f80
0000
0000
0000
0000
0000
ENDCHAR
STARTCHAR U+01B2
ENCODING 434
SWIDTH 500 0
DWIDTH 12 0
BBX 12 24 0 -2
BITMAP 
0000
0000
0000
0000
0000
7780
77c0
71c0
71c0
71c0
71c0
71c0
73c0
7380
7780
7700
7e00
7c00
7800
0000
0000
0000
0000
0000
ENDCHAR
STARTCHAR U+01B3
ENCODING 435
SWIDTH 500 0
DWIDTH 12 0
BBX 12 24 0 -2
BITMAP 
0000
0000
0000
0000
0000
7060
f8e0
38e0
1dc0
1dc0
0f80
0f80
0700
0700
0700
0700
0700
0700
0700
0000
0000
0000
0000
0000
ENDCHAR
STARTCHAR U+01B4
ENCODING 436
SWIDTH 500 0
DWIDTH 12 0
BBX 12 24 0 -2
BITMAP 
0000
0000
0000
0000
0000
0000
0000
00e0
01e0
e780
e700
e700
e700
e700
e700
e700
ef00
7f00
3b00
0700
0700
0700
fe00
7c00
ENDCHAR
STARTCHAR U+01B5
ENCODING 437
SWIDTH 500 0
DWIDTH 12 0
BBX 12 24 0 -2
BITMAP 
0000
0000
0000
0000
0000
ffe0
ffe0
00e0
01e0
03c0
0780
7fc0
7fc0
3c00
7800
f000
e000
ffe0
ffe0
0000
0000
0000
0000
0000
ENDCHAR
STARTCHAR U+01B6
ENCODING 438
SWIDTH 500 0
DWIDTH 12 0
BBX 12 24 0 -2
BITMAP 
0000
0000
0000
0000
0000
0000
0000
0000
0000
7fe0
7fe0
01c0
0380
3fc0
3fc0
1c00
3800
7fe0
7fe0
0000
0000
0000
0000
0000
ENDCHAR
STARTCHAR U+01B7
ENCODING 439
SWIDTH 500 0
DWIDTH 12 0
BBX 12 24 0 -2
BITMAP 
0000
0000
0000
0000
0000
7fc0
7fc0
0380
0700
0e00
1f80
1fc0
01e0
00e0
00e0
00e0
71e0
7fc0
3f80
0000
0000
0000
0000
0000
ENDCHAR
STARTCHAR U+01B8
ENCODING 440
SWIDTH 500 0
DWIDTH 12 0
BBX 12 24 0 -2
BITMAP 
0000
0000
0000
0000
0000
3fe0
3fe0
1c00
0e00
0700
1f80
3f80
7800
7000
7000
7000
78e0
3fe0
1fc0
0000
0000
0000
0000
0000
ENDCHAR
STARTCHAR U+01B9
ENCODING 441
SWIDTH 500 0
DWIDTH 12 0
BBX 12 24 0 -2
BITMAP 
0000
0000
0000
0000
0000
0000
0000
0000
0000
3f80
3f80
3800
1c00
0e00
1f00
3f00
7800
7000
7000
7000
79c0
3fc0
1f80
0000
ENDCHAR
STARTCHAR U+01BA
ENCODING 442
SWIDTH 500 0
DWIDTH 12 0
BBX 12 24 0 -2
BITMAP 
0000
0000
0000
0000
0000
0000
0000
0000
0000
3f80
3f80
0380
0700
0e00
1f00
1f80
03c0
01c0
3fc0
7f80
f000
f0e0
7fe0
3fc0
ENDCHAR
STARTCHAR U+01BB
ENCODING 443
SWIDTH 500 0
DWIDTH 12 0
BBX 12 24 0 -2
BITMAP 
0000
0000
0000
0000
0000
1f80
3fc0
71e0
70e0
00e0
01c0
3fc0
3fc0
0e00
1c00
3800
7000
7fe0
7fe0
0000
0000
0000
0000
0000
ENDCHAR
STARTCHAR U+01BC
ENCODING 444
SWIDTH 500 0
DWIDTH 12 0
BBX 12 24 0 -2
BITMAP 
0000
0000
0000
0000
0000
7fc0
7fc0
1c00
1c00
1c00
1f80
1fc0
01e0
00e0
00e0
70e0
71e0
3fc0
1f80
0000
0000
0000
0000
0000
ENDCHAR
STARTCHAR U+01BD
ENCODING 445
SWIDTH 500 0
DWIDTH 12 0
BBX 12 24 0 -2
BITMAP 
0000
0000
0000
0000
0000
0000
0000
0000
0000
7fc0
7fc0
1c00
1f80
1fc0
01e0
70e0
71e0
3fc0
1f80
0000
0000
0000
0000
0000
ENDCHAR
STARTCHAR U+01BE
ENCODING 446
SWIDTH 500 0
DWIDTH 12 0
BBX 12 24 0 -2
BITMAP 
0000
0000
0000
0000
0000
0e00
0e00
7fc0
7fc0
0e00
0f00
0780
0380
0380
0380
0380
3b80
3f00
1e00
0000
0000
0000
0000
0000
ENDCHAR
STARTCHAR U+01BF
ENCODING 447
SWIDTH 500 0
DWIDTH 12 0
BBX 12 24 0 -2
BITMAP 
0000
0000
0000
0000
0000
0000
0000
0000
0000
7780
77c0
7de0
78e0
70e0
71e0
73c0
7780
7700
7e00
7c00
7000
7000
7000
0000
ENDCHAR
STARTCHAR U+01C0
ENCODING 448
SWIDTH 500 0
DWIDTH 12 0
BBX 12 24 0 -2
BITMAP 
0000
0000
0000
0000
0000
0e00
0e00
0e00
0e00
0e00
0e00
0e00
0e00
0e00
0e00
0e00
0e00
0e00
0e00
0000
0000
0000
0000
0000
ENDCHAR
STARTCHAR U+01C1
ENCODING 449
SWIDTH 500 0
DWIDTH 12 0
BBX 12 24 0 -2
BITMAP 
0000
0000
0000
0000
0000
3b80
3b80
3b80
3b80
3b80
3b80
3b80
3b80
3b80
3b80
3b80
3b80
3b80
3b80
0000
0000
0000
0000
0000
ENDCHAR
STARTCHAR U+01C2
ENCODING 450
SWIDTH 500 0
DWIDTH 12 0
BBX 12 24 0 -2
BITMAP 
0000
0000
0000
0000
0000
0e00
0e00
0e00
0e00
7fc0
7fc0
0e00
0e00
7fc0
7fc0
0e00
0e00
0e00
0e00
0000
0000
0000
0000
0000
ENDCHAR
STARTCHAR U+01C3
ENCODING 451
SWIDTH 500 0
DWIDTH 12 0
BBX 12 24 0 -2
BITMAP 
0000
0000
0000
0000
0000
0e00
0e00
0e00
0e00
0e00
0e00
0e00
0e00
0e00
0e00
0000
0000
0e00
0e00
0000
0000
0000
0000
0000
ENDCHAR
STARTCHAR U+01C4
ENCODING 452
SWIDTH 500 0
DWIDTH 12 0
BBX 12 24 0 -2
BITMAP 
0ee0
07c0
0380
0000
0000
f7e0
fbe0
fce0
ece0
ede0
edc0
edc0
edc0
edc0
ed80
ed80
fd80
fbe0
f7e0
0000
0000
0000
0000
0000
ENDCHAR
STARTCHAR U+01C5
ENCODING 453
SWIDTH 500 0
DWIDTH 12 0
BBX 12 24 0 -2
BITMAP 
0000
0000
0000
0000
0770
f3e0
f9c0
fc00
ec00
ede0
ede0
ece0
ece0
edc0
edc0
ed80
fd80
fbe0
f3e0
0000
0000
0000
0000
0000
ENDCHAR
STARTCHAR U+01C6
ENCODING 454
SWIDTH 500 0
DWIDTH 12 0
BBX 12 24 0 -2
BITMAP 
0000
0000
0000
0000
0770
1de0
1dc0
1c00
1c00
7de0
fde0
ece0
ece0
edc0
edc0
ed80
ed80
fde0
75e0
0000
0000
0000
0000
0000
ENDCHAR
STARTCHAR U+01C7
ENCODING 455
SWIDTH 500 0
DWIDTH 12 0
BBX 12 24 0 -2
BITMAP 
0000
0000
0000
0000
0000
e0e0
e0e0
e0e0
e0e0
e0e0
e0e0
e0e0
e0e0
e0e0
e0e0
eee0
eee0
fbe0
fbc0
0000
0000
0000
0000
0000
ENDCHAR
STARTCHAR U+01C8
ENCODING 456
SWIDTH 500 0
DWIDTH 12 0
BBX 12 24 0 -2
BITMAP 
0000
0000
0000
0000
0000
e0e0
e0e0
e000
e000
e0e0
e0e0
e0e0
e0e0
e0e0
e0e0
e0e0
e0e0
fee0
fee0
00e0
00e0
07e0
0780
0000
ENDCHAR
STARTCHAR U+01C9
ENCODING 457
SWIDTH 500 0
DWIDTH 12 0
BBX 12 24 0 -2
BITMAP 
0000
0000
0000
0000
0000
71c0
71c0
7000
7000
71c0
71c0
71c0
71c0
71c0
71c0
71c0
71c0
7dc0
3dc0
01c0
01c0
0fc0
0f00
0000
ENDCHAR
STARTCHAR U+01CA
ENCODING 458
SWIDTH 500 0
DWIDTH 12 0
BBX 12 24 0 -2
BITMAP 
0000
0000
0000
0000
0000
eee0
eee0
eee0
f6e0
f6e0
f6e0
fee0
fee0
eee0
eee0
eee0
ef60
efe0
edc0
0000
0000
0000
0000
0000
ENDCHAR
STARTCHAR U+01CB
ENCODING 459
SWIDTH 500 0
DWIDTH 12 0
BBX 12 24 0 -2
BITMAP 
0000
0000
0000
0000
0000
eee0
eee0
ee00
f600
f6e0
f6e0
fee0
fee0
eee0
eee0
eee0
eee0
eee0
eee0
00e0
00e0
07e0
0780
0000
ENDCHAR
STARTCHAR U+01CC
ENCODING 460
SWIDTH 500 0
DWIDTH 12 0
BBX 12 24 0 -2
BITMAP 
0000
0000
0000
0000
0000
00e0
00e0
0000
0000
eee0
ef60
fb60
f760
e760
e760
e760
e760
e760
e760
00e0
00e0
07e0
0780
0000
ENDCHAR
STARTCHAR U+01CD
ENCODING 461
SWIDTH 500 0
DWIDTH 12 0
BBX 12 24 0 -2
BITMAP 
1dc0
0f80
0700
0000
0000
1f80
3fc0
79e0
70e0
70e0
70e0
7fe0
7fe0
70e0
70e0
70e0
70e0
70e0
70e0
0000
0000
0000
0000
0000
ENDCHAR
STARTCHAR U+01CE
ENCODING 462
SWIDTH 500 0
DWIDTH 12 0
BBX 12 24 0 -2
BITMAP 
0000
0000
0000
1dc0
0f80
0700
0000
0000
0f80
1fc0
38e0
00e0
0fe0
3fe0
70e0
71e0
73e0
7f60
3ee0
0000
0000
0000
0000
0000
ENDCHAR
STARTCHAR U+01CF
ENCODING 463
SWIDTH 500 0
DWIDTH 12 0
BBX 12 24 0 -2
BITMAP 
3b80
1f00
0e00
0000
0000
3f80
3f80
0e00
0e00
0e00
0e00
0e00
0e00
0e00
0e00
0e00
0e00
3f80
3f80
0000
0000
0000
0000
0000
ENDCHAR
STARTCHAR U+01D0
ENCODING 464
SWIDTH 500 0
DWIDTH 12 0
BBX 12 24 0 -2
BITMAP 
0000
0000
0000
0000
3b80
1f00
0e00
0000
0000
0e00
0e00
0e00
0e00
0e00
0e00
0e00
0e00
0e00
0e00
0000
0000
0000
0000
0000
ENDCHAR
STARTCHAR U+01D1
ENCODING 465
SWIDTH 500 0
DWIDTH 12 0
BBX 12 24 0 -2
BITMAP 
3b80
1f00
0e00
0000
0000
1f80
3fc0
79e0
70e0
70e0
70e0
70e0
70e0
70e0
70e0
70e0
79e0
3fc0
1f80
0000
0000
0000
0000
0000
ENDCHAR
STARTCHAR U+01D2
ENCODING 466
SWIDTH 500 0
DWIDTH 12 0
BBX 12 24 0 -2
BITMAP 
0000
0000
0000
0000
3b80
1f00
0e00
0000
0000
1f80
3fc0
79e0
70e0
70e0
70e0
70e0
79e0
3fc0
1f80
0000
0000
0000
0000
0000
ENDCHAR
STARTCHAR U+01D3
ENCODING 467
SWIDTH 500 0
DWIDTH 12 0
BBX 12 24 0 -2
BITMAP 
3b80
1f00
0e00
0000
0000
70e0
70e0
70e0
70e0
70e0
70e0
70e0
70e0
70e0
70e0
70e0
79e0
3fc0
1f80
0000
0000
0000
0000
0000
ENDCHAR
STARTCHAR U+01D4
ENCODING 468
SWIDTH 500 0
DWIDTH 12 0
BBX 12 24 0 -2
BITMAP 
0000
0000
0000
0000
1dc0
0f80
0700
0000
0000
70e0
70e0
70e0
70e0
70e0
70e0
71e0
7be0
3f60
1ee0
0000
0000
0000
0000
0000
ENDCHAR
STARTCHAR U+01D5
ENCODING 469
SWIDTH 500 0
DWIDTH 12 0
BBX 12 24 0 -2
BITMAP 
3fc0
3fc0
0000
39c0
39c0
0000
70e0
70e0
70e0
70e0
70e0
70e0
70e0
70e0
70e0
70e0
79e0
3fc0
1f80
0000
0000
0000
0000
0000
ENDCHAR
STARTCHAR U+01D6
ENCODING 470
SWIDTH 500 0
DWIDTH 12 0
BBX 12 24 0 -2
BITMAP 
0000
0000
0000
3fc0
3fc0
0000
39c0
39c0
0000
70e0
70e0
70e0
70e0
70e0
70e0
71e0
7be0
3f60
1ee0
0000
0000
0000
0000
0000
ENDCHAR
STARTCHAR U+01D7
ENCODING 471
SWIDTH 500 0
DWIDTH 12 0
BBX 12 24 0 -2
BITMAP 
0380
0780
0e00
0000
39c0
39c0
0000
70e0
70e0
70e0
70e0
70e0
70e0
70e0
70e0
70e0
79e0
3fc0
1f80
0000
0000
0000
0000
0000
ENDCHAR
STARTCHAR U+01D8
ENCODING 472
SWIDTH 500 0
DWIDTH 12 0
BBX 12 24 0 -2
BITMAP 
0000
0000
0380
0780
0e00
0000
39c0
39c0
0000
70e0
70e0
70e0
70e0
70e0
70e0
71e0
7be0
3f60
1ee0
0000
0000
0000
0000
0000
ENDCHAR
STARTCHAR U+01D9
ENCODING 473
SWIDTH 500 0
DWIDTH 12 0
BBX 12 24 0 -2
BITMAP 
3b80
1f00
0e00
0000
39c0
39c0
0000
70e0
70e0
70e0
70e0
70e0
70e0
70e0
70e0
70e0
79e0
3fc0
1f80
0000
0000
0000
0000
0000
ENDCHAR
STARTCHAR U+01DA
ENCODING 474
SWIDTH 500 0
DWIDTH 12 0
BBX 12 24 0 -2
BITMAP 
0000
0000
3b80
1f00
0e00
0000
39c0
39c0
0000
70e0
70e0
70e0
70e0
70e0
70e0
71e0
7be0
3f60
1ee0
0000
0000
0000
0000
0000
ENDCHAR
STARTCHAR U+01DB
ENCODING 475
SWIDTH 500 0
DWIDTH 12 0
BBX 12 24 0 -2
BITMAP 
1c00
1e00
0700
0000
39c0
39c0
0000
70e0
70e0
70e0
70e0
70e0
70e0
70e0
70e0
70e0
79e0
3fc0
1f80
0000
0000
0000
0000
0000
ENDCHAR
STARTCHAR U+01DC
ENCODING 476
SWIDTH 500 0
DWIDTH 12 0
BBX 12 24 0 -2
BITMAP 
0000
0000
1c00
1e00
0700
0000
39c0
39c0
0000
70e0
70e0
70e0
70e0
70e0
70e0
71e0
7be0
3f60
1ee0
0000
0000
0000
0000
0000
ENDCHAR
STARTCHAR U+01DD
ENCODING 477
SWIDTH 500 0
DWIDTH 12 0
BBX 12 24 0 -2
BITMAP 
0000
0000
0000
0000
0000
0000
0000
0000
0000
3f80
7fc0
70e0
00e0
7fe0
7fe0
70e0
71e0
3fc0
1f80
0000
0000
0000
0000
0000
ENDCHAR
STARTCHAR U+01DE
ENCODING 478
SWIDTH 500 0
DWIDTH 12 0
BBX 12 24 0 -2
BITMAP 
3fc0
3fc0
0000
39c0
39c0
0000
1f80
3fc0
79e0
70e0
70e0
70e0
7fe0
7fe0
70e0
70e0
70e0
70e0
70e0
0000
0000
0000
0000
0000
ENDCHAR
STARTCHAR U+01DF
ENCODING 479
SWIDTH 500 0
DWIDTH 12 0
BBX 12 24 0 -2
BITMAP 
0000
0000
3fc0
3fc0
0000
39c0
39c0
0000
0f80
1fc0
38e0
00e0
0fe0
3fe0
70e0
71e0
73e0
7f60
3ee0
0000
0000
0000
0000
0000
ENDCHAR
STARTCHAR U+01E0
ENCODING 480
SWIDTH 500 0
DWIDTH 12 0
BBX 12 24 0 -2
BITMAP 
3f80
3f80
0000
0e00
0e00
0000
1f80
3fc0
79e0
70e0
70e0
70e0
7fe0
7fe0
70e0
70e0
70e0
70e0
70e0
0000
0000
0000
0000
0000
ENDCHAR
STARTCHAR U+01E1
ENCODING 481
SWIDTH 500 0
DWIDTH 12 0
BBX 12 24 0 -2
BITMAP 
0000
0000
1fc0
1fc0
0000
0700
0700
0000
0f80
1fc0
38e0
00e0
0fe0
3fe0
70e0
71e0
73e0
7f60
3ee0
0000
0000
0000
0000
0000
ENDCHAR
STARTCHAR U+01E2
ENCODING 482
SWIDTH 500 0
DWIDTH 12 0
BBX 12 24 0 -2
BITMAP 
0000
3fc0
3fc0
0000
0000
3fe0
3fe0
7700
7700
e700
e7e0
ffe0
ff00
e700
e700
e700
e700
e7e0
e7e0
0000
0000
0000
0000
0000
ENDCHAR
STARTCHAR U+01E3
ENCODING 483
SWIDTH 500 0
DWIDTH 12 0
BBX 12 24 0 -2
BITMAP 
0000
0000
0000
0000
3fc0
3fc0
0000
0000
7bc0
ffe0
cee0
0ee0
3fe0
7fc0
ee00
ee00
eee0
ffe0
7fc0
0000
0000
0000
0000
0000
ENDCHAR
STARTCHAR U+01E4
ENCODING 484
SWIDTH 500 0
DWIDTH 12 0
BBX 12 24 0 -2
BITMAP 
0000
0000
0000
0000
0000
3f00
7f80
f3c0
e1c0
e000
e000
e7c0
e7c0
e1c0
efe0
efe0
f3c0
7f80
3f00
0000
0000
0000
0000
0000
ENDCHAR
STARTCHAR U+01E5
ENCODING 485
SWIDTH 500 0
DWIDTH 12 0
BBX 12 24 0 -2
BITMAP 
0000
0000
0000
0000
0000
0000
0000
0000
0000
3dc0
7ec0
f7c0
e3c0
e1c0
e1c0
f3c0
7fc0
3ec0
01c0
0fe0
0fe0
01c0
3f80
1f00
ENDCHAR
STARTCHAR U+01E6
ENCODING 486
SWIDTH 500 0
DWIDTH 12 0
BBX 12 24 0 -2
BITMAP 
3b80
1f00
0e00
0000
0000
1f80
3fc0
79e0
70e0
7000
7000
7000
73e0
73e0
70e0
70e0
79e0
3fc0
1f80
0000
0000
0000
0000
0000
ENDCHAR
STARTCHAR U+01E7
ENCODING 487
SWIDTH 500 0
DWIDTH 12 0
BBX 12 24 0 -2
BITMAP 
0000
0000
0000
0000
3b80
1f00
0e00
0000
0000
1ee0
3f60
7be0
71e0
70e0
70e0
70e0
79e0
3fe0
1f60
00e0
00e0
00e0
1fc0
0f80
ENDCHAR
STARTCHAR U+01E8
ENCODING 488
SWIDTH 500 0
DWIDTH 12 0
BBX 12 24 0 -2
BITMAP 
3b80
1f00
0e00
0000
0000
70e0
71c0
7380
7700
7600
7c00
7800
7c00
7600
7700
7380
71c0
70e0
7060
0000
0000
0000
0000
0000
ENDCHAR
STARTCHAR U+01E9
ENCODING 489
SWIDTH 500 0
DWIDTH 12 0
BBX 12 24 0 -2
BITMAP 
0000
7700
3e00
1c00
0000
0000
7000
7000
71c0
73c0
7780
7700
7e00
7c00
7e00
7700
7780
73c0
71c0
0000
0000
0000
0000
0000
ENDCHAR
STARTCHAR U+01EA
ENCODING 490
SWIDTH 500 0
DWIDTH 12 0
BBX 12 24 0 -2
BITMAP 
0000
0000
0000
0000
0000
1f80
3fc0
79e0
70e0
70e0
70e0
70e0
70e0
70e0
70e0
70e0
79e0
3fc0
1f80
0700
0f00
1c00
1f80
0f00
ENDCHAR
STARTCHAR U+01EB
ENCODING 491
SWIDTH 500 0
DWIDTH 12 0
BBX 12 24 0 -2
BITMAP 
0000
0000
0000
0000
0000
0000
0000
0000
0000
1f80
3fc0
79e0
70e0
70e0
70e0
70e0
79e0
3fc0
1f80
0700
0f00
1c00
1f80
0f00
ENDCHAR
STARTCHAR U+01EC
ENCODING 492
SWIDTH 500 0
DWIDTH 12 0
BBX 12 24 0 -2
BITMAP 
0000
3fc0
3fc0
0000
0000
1f80
3fc0
79e0
70e0
70e0
70e0
70e0
70e0
70e0
70e0
70e0
79e0
3fc0
1f80
0700
0f00
1c00
1f80
0f00
ENDCHAR
STARTCHAR U+01ED
ENCODING 493
SWIDTH 500 0
DWIDTH 12 0
BBX 12 24 0 -2
BITMAP 
0000
0000
0000
0000
0000
3fc0
3fc0
0000
0000
1f80
3fc0
79e0
70e0
70e0
70e0
70e0
79e0
3fc0
1f80
0700
0f00
1c00
1f80
0f00
ENDCHAR
STARTCHAR U+01EE
ENCODING 494
SWIDTH 500 0
DWIDTH 12 0
BBX 12 24 0 -2
BITMAP 
3b80
1f00
0e00
0000
0000
7fc0
7fc0
0380
0700
0e00
1f80
1fc0
01e0
00e0
00e0
00e0
71e0
7fc0
3f80
0000
0000
0000
0000
0000
ENDCHAR
STARTCHAR U+01EF
ENCODING 495
SWIDTH 500 0
DWIDTH 12 0
BBX 12 24 0 -2
BITMAP 
0000
0000
0000
0000
3b80
1f00
0e00
0000
0000
3f80
3f80
0380
0700
0e00
1f00
1f80
03c0
01c0
01c0
01c0
73c0
7f80
3f00
0000
ENDCHAR
STARTCHAR U+01F0
ENCODING 496
SWIDTH 500 0
DWIDTH 12 0
BBX 12 24 0 -2
BITMAP 
0000
0000
0000
0000
3b80
1f00
0e00
0000
0000
0e00
0e00
0e00
0e00
0e00
0e00
0e00
0e00
0e00
0e00
0e00
0e00
7e00
7800
0000
ENDCHAR
STARTCHAR U+01F1
ENCODING 497
SWIDTH 500 0
DWIDTH 12 0
BBX 12 24 0 -2
BITMAP 
0000
0000
0000
0000
0000
f7e0
fbe0
ece0
ece0
ede0
edc0
edc0
edc0
edc0
ed80
ed80
ed80
fbe0
f7e0
0000
0000
0000
0000
0000
ENDCHAR
STARTCHAR U+01F2
ENCODING 498
SWIDTH 500 0
DWIDTH 12 0
BBX 12 24 0 -2
BITMAP 
0000
0000
0000
0000
0000
f000
f800
fc00
ec00
ede0
ede0
ece0
ece0
edc0
edc0
ed80
fd80
fbe0
f3e0
0000
0000
0000
0000
0000
ENDCHAR
STARTCHAR U+01F3
ENCODING 499
SWIDTH 500 0
DWIDTH 12 0
BBX 12 24 0 -2
BITMAP 
0000
0000
0000
0000
0000
1c00
1c00
1c00
1c00
7de0
fde0
ece0
ece0
edc0
edc0
ed80
ed80
fde0
75e0
0000
0000
0000
0000
0000
ENDCHAR
STARTCHAR U+01F4
ENCODING 500
SWIDTH 500 0
DWIDTH 12 0
BBX 12 24 0 -2
BITMAP 
0380
0780
0e00
0000
0000
1f80
3fc0
79e0
70e0
7000
7000
7000
73e0
73e0
70e0
70e0
79e0
3fc0
1f80
0000
0000
0000
0000
0000
ENDCHAR
STARTCHAR U+01F5
ENCODING 501
SWIDTH 500 0
DWIDTH 12 0
BBX 12 24 0 -2
BITMAP 
0000
0000
0000
0000
0380
0780
0e00
0000
0000
1ee0
3f60
7be0
71e0
70e0
70e0
70e0
79e0
3fe0
1f60
00e0
00e0
00e0
1fc0
0f80
ENDCHAR
STARTCHAR U+01FA
ENCODING 506
SWIDTH 500 0
DWIDTH 12 0
BBX 12 24 0 -2
BITMAP 
0780
0e00
0000
0f00
1d80
0f00
0000
1f80
3fc0
79e0
70e0
70e0
7fe0
7fe0
70e0
70e0
70e0
70e0
70e0
0000
0000
0000
0000
0000
ENDCHAR
STARTCHAR U+01FB
ENCODING 507
SWIDTH 500 0
DWIDTH 12 0
BBX 12 24 0 -2
BITMAP 
0380
0780
0e00
0000
0f00
1d80
0f00
0000
0f80
1fc0
38e0
00e0
0fe0
3fe0
70e0
71e0
73e0
7f60
3ee0
0000
0000
0000
0000
0000
ENDCHAR
STARTCHAR U+01FC
ENCODING 508
SWIDTH 500 0
DWIDTH 12 0
BBX 12 24 0 -2
BITMAP 
0700
0f00
1c00
0000
0000
3fe0
3fe0
7700
7700
e700
e7e0
ffe0
ff00
e700
e700
e700
e700
e7e0
e7e0
0000
0000
0000
0000
0000
ENDCHAR
STARTCHAR U+01FD
ENCODING 509
SWIDTH 500 0
DWIDTH 12 0
BBX 12 24 0 -2
BITMAP 
0000
0000
0000
0700
0f00
1c00
0000
0000
7bc0
ffe0
cee0
0ee0
3fe0
7fc0
ee00
ee00
eee0
ffe0
7fc0
0000
0000
0000
0000
0000
ENDCHAR
STARTCHAR U+01FE
ENCODING 510
SWIDTH 500 0
DWIDTH 12 0
BBX 12 24 0 -2
BITMAP 
0380
0780
0e00
0000
0000
1fa0
3fe0
79e0
71e0
73e0
7360
7760
76e0
74e0
7ce0
78e0
79e0
7fc0
6f80
0000
0000
0000
0000
0000
ENDCHAR
STARTCHAR U+01FF
ENCODING 511
SWIDTH 500 0
DWIDTH 12 0
BBX 12 24 0 -2
BITMAP 
0000
0000
0000
0000
0380
0780
0e00
0000
0000
1f60
3fe0
7bc0
77e0
7760
7760
7ee0
3de0
7fc0
7780
0000
0000
0000
0000
0000
ENDCHAR
STARTCHAR U+0200
ENCODING 512
SWIDTH 500 0
DWIDTH 12 0
BBX 12 24 0 -2
BITMAP 
7380
7bc0
1ce0
0000
0000
1f80
3fc0
79e0
70e0
70e0
70e0
7fe0
7fe0
70e0
70e0
70e0
70e0
70e0
70e0
0000
0000
0000
0000
0000
ENDCHAR
STARTCHAR U+0201
ENCODING 513
SWIDTH 500 0
DWIDTH 12 0
BBX 12 24 0 -2
BITMAP 
0000
0000
0000
7380
7bc0
1ce0
0000
0000
0f80
1fc0
38e0
00e0
0fe0
3fe0
70e0
71e0
73e0
7f60
3ee0
0000
0000
0000
0000
0000
ENDCHAR
STARTCHAR U+0202
ENCODING 514
SWIDTH 500 0
DWIDTH 12 0
BBX 12 24 0 -2
BITMAP 
1f80
39c0
39c0
0000
0000
1f80
3fc0
79e0
70e0
70e0
70e0
7fe0
7fe0
70e0
70e0
70e0
70e0
70e0
70e0
0000
0000
0000
0000
0000
ENDCHAR
STARTCHAR U+0203
ENCODING 515
SWIDTH 500 0
DWIDTH 12 0
BBX 12 24 0 -2
BITMAP 
0000
0000
0000
1f80
39c0
39c0
0000
0000
0f80
1fc0
38e0
00e0
0fe0
3fe0
70e0
71e0
73e0
7f60
3ee0
0000
0000
0000
0000
0000
ENDCHAR
STARTCHAR U+0204
ENCODING 516
SWIDTH 500 0
DWIDTH 12 0
BBX 12 24 0 -2
BITMAP 
7380
7bc0
1ce0
0000
0000
7fe0
7fe0
7000
7000
7000
7000
7f80
7f80
7000
7000
7000
7000
7fe0
7fe0
0000
0000
0000
0000
0000
ENDCHAR
STARTCHAR U+0205
ENCODING 517
SWIDTH 500 0
DWIDTH 12 0
BBX 12 24 0 -2
BITMAP 
0000
0000
0000
0000
7380
7bc0
1ce0
0000
0000
1f80
3fc0
78e0
70e0
7fe0
7fe0
7000
70e0
3fe0
1fc0
0000
0000
0000
0000
0000
ENDCHAR
STARTCHAR U+0206
ENCODING 518
SWIDTH 500 0
DWIDTH 12 0
BBX 12 24 0 -2
BITMAP 
1f80
39c0
39c0
0000
0000
7fe0
7fe0
7000
7000
7000
7000
7f80
7f80
7000
7000
7000
7000
7fe0
7fe0
0000
0000
0000
0000
0000
ENDCHAR
STARTCHAR U+0207
ENCODING 519
SWIDTH 500 0
DWIDTH 12 0
BBX 12 24 0 -2
BITMAP 
0000
0000
0000
0000
1f80
39c0
39c0
0000
0000
1f80
3fc0
78e0
70e0
7fe0
7fe0
7000
70e0
3fe0
1fc0
0000
0000
0000
0000
0000
ENDCHAR
STARTCHAR U+0208
ENCODING 520
SWIDTH 500 0
DWIDTH 12 0
BBX 12 24 0 -2
BITMAP 
e700
f780
39c0
0000
0000
3f80
3f80
0e00
0e00
0e00
0e00
0e00
0e00
0e00
0e00
0e00
0e00
3f80
3f80
0000
0000
0000
0000
0000
ENDCHAR
STARTCHAR U+0209
ENCODING 521
SWIDTH 500 0
DWIDTH 12 0
BBX 12 24 0 -2
BITMAP 
0000
0000
0000
0000
e700
f780
39c0
0000
0000
0e00
0e00
0e00
0e00
0e00
0e00
0e00
0e00
0e00
0e00
0000
0000
0000
0000
0000
ENDCHAR
STARTCHAR U+020A
ENCODING 522
SWIDTH 500 0
DWIDTH 12 0
BBX 12 24 0 -2
BITMAP 
1f00
3b80
3b80
0000
0000
3f80
3f80
0e00
0e00
0e00
0e00
0e00
0e00
0e00
0e00
0e00
0e00
3f80
3f80
0000
0000
0000
0000
0000
ENDCHAR
STARTCHAR U+020B
ENCODING 523
SWIDTH 500 0
DWIDTH 12 0
BBX 12 24 0 -2
BITMAP 
0000
0000
0000
0000
1f00
3b80
3b80
0000
0000
0e00
0e00
0e00
0e00
0e00
0e00
0e00
0e00
0e00
0e00
0000
0000
0000
0000
0000
ENDCHAR
STARTCHAR U+020C
ENCODING 524
SWIDTH 500 0
DWIDTH 12 0
BBX 12 24 0 -2
BITMAP 
7380
7bc0
1ce0
0000
0000
1f80
3fc0
79e0
70e0
70e0
70e0
70e0
70e0
70e0
70e0
70e0
79e0
3fc0
1f80
0000
0000
0000
0000
0000
ENDCHAR
STARTCHAR U+020D
ENCODING 525
SWIDTH 500 0
DWIDTH 12 0
BBX 12 24 0 -2
BITMAP 
0000
0000
0000
0000
7380
7bc0
1ce0
0000
0000
1f80
3fc0
79e0
70e0
70e0
70e0
70e0
79e0
3fc0
1f80
0000
0000
0000
0000
0000
ENDCHAR
STARTCHAR U+020E
ENCODING 526
SWIDTH 500 0
DWIDTH 12 0
BBX 12 24 0 -2
BITMAP 
1f80
39c0
39c0
0000
0000
1f80
3fc0
79e0
70e0
70e0
70e0
70e0
70e0
70e0
70e0
70e0
79e0
3fc0
1f80
0000
0000
0000
0000
0000
ENDCHAR
STARTCHAR U+020F
ENCODING 527
SWIDTH 500 0
DWIDTH 12 0
BBX 12 24 0 -2
BITMAP 
0000
0000
0000
0000
1f80
39c0
39c0
0000
0000
1f80
3fc0
79e0
70e0
70e0
70e0
70e0
79e0
3fc0
1f80
0000
0000
0000
0000
0000
ENDCHAR
STARTCHAR U+0210
ENCODING 528
SWIDTH 500 0
DWIDTH 12 0
BBX 12 24 0 -2
BITMAP 
7380
7bc0
1ce0
0000
0000
7f80
7fc0
71e0
70e0
70e0
71e0
7fc0
7f80
7380
7380
71c0
71c0
70e0
70e0
0000
0000
0000
0000
0000
ENDCHAR
STARTCHAR U+0211
ENCODING 529
SWIDTH 500 0
DWIDTH 12 0
BBX 12 24 0 -2
BITMAP 
0000
0000
0000
0000
7380
7bc0
1ce0
0000
0000
7780
77c0
7ce0
78e0
7000
7000
7000
7000
7000
7000
0000
0000
0000
0000
0000
ENDCHAR
STARTCHAR U+0212
ENCODING 530
SWIDTH 500 0
DWIDTH 12 0
BBX 12 24 0 -2
BITMAP 
1f80
39c0
39c0
0000
0000
7f80
7fc0
71e0
70e0
70e0
71e0
7fc0
7f80
7380
7380
71c0
71c0
70e0
70e0
0000
0000
0000
0000
0000
ENDCHAR
STARTCHAR U+0213
ENCODING 531
SWIDTH 500 0
DWIDTH 12 0
BBX 12 24 0 -2
BITMAP 
0000
0000
0000
0000
1f80
39c0
39c0
0000
0000
7780
77c0
7ce0
78e0
7000
7000
7000
7000
7000
7000
0000
0000
0000
0000
0000
ENDCHAR
STARTCHAR U+0214
ENCODING 532
SWIDTH 500 0
DWIDTH 12 0
BBX 12 24 0 -2
BITMAP 
7380
7bc0
1ce0
0000
0000
70e0
70e0
70e0
70e0
70e0
70e0
70e0
70e0
70e0
70e0
70e0
79e0
3fc0
1f80
0000
0000
0000
0000
0000
ENDCHAR
STARTCHAR U+0215
ENCODING 533
SWIDTH 500 0
DWIDTH 12 0
BBX 12 24 0 -2
BITMAP 
0000
0000
0000
0000
7380
7bc0
1ce0
0000
0000
70e0
70e0
70e0
70e0
70e0
70e0
71e0
7be0
3f60
1ee0
0000
0000
0000
0000
0000
ENDCHAR
STARTCHAR U+0216
ENCODING 534
SWIDTH 500 0
DWIDTH 12 0
BBX 12 24 0 -2
BITMAP 
1f80
39c0
39c0
0000
0000
70e0
70e0
70e0
70e0
70e0
70e0
70e0
70e0
70e0
70e0
70e0
79e0
3fc0
1f80
0000
0000
0000
0000
0000
ENDCHAR
STARTCHAR U+0217
ENCODING 535
SWIDTH 500 0
DWIDTH 12 0
BBX 12 24 0 -2
BITMAP 
0000
0000
0000
0000
1f80
39c0
39c0
0000
0000
70e0
70e0
70e0
70e0
70e0
70e0
71e0
7be0
3f60
1ee0
0000
0000
0000
0000
0000
ENDCHAR
STARTCHAR U+0250
ENCODING 592
SWIDTH 500 0
DWIDTH 12 0
BBX 12 24 0 -2
BITMAP 
0000
0000
0000
0000
0000
0000
0000
0000
0000
77c0
7fe0
78e0
70e0
7fc0
7f80
7000
70e0
3fc0
1f80
0000
0000
0000
0000
0000
ENDCHAR
STARTCHAR U+0251
ENCODING 593
SWIDTH 500 0
DWIDTH 12 0
BBX 12 24 0 -2
BITMAP 
0000
0000
0000
0000
0000
0000
0000
0000
0000
1f60
3fe0
71e0
70e0
70e0
70e0
71e0
73e0
3f60
1ee0
0000
0000
0000
0000
0000
ENDCHAR
STARTCHAR U+0252
ENCODING 594
SWIDTH 500 0
DWIDTH 12 0
BBX 12 24 0 -2
BITMAP 
0000
0000
0000
0000
0000
0000
0000
0000
0000
7780
77c0
7ce0
78e0
70e0
70e0
70e0
78e0
7fc0
7780
0000
0000
0000
0000
0000
ENDCHAR
STARTCHAR U+0253
ENCODING 595
SWIDTH 500 0
DWIDTH 12 0
BBX 12 24 0 -2
BITMAP 
0000
0000
0000
0000
3c00
7c00
7000
7000
7000
7780
77c0
7de0
78e0
70e0
70e0
78e0
7de0
77c0
7780
0000
0000
0000
0000
0000
ENDCHAR
STARTCHAR U+0254
ENCODING 596
SWIDTH 500 0
DWIDTH 12 0
BBX 12 24 0 -2
BITMAP 
0000
0000
0000
0000
0000
0000
0000
0000
0000
3f80
7fc0
71e0
00e0
00e0
00e0
70e0
71e0
3fc0
3f80
0000
0000
0000
0000
0000
ENDCHAR
STARTCHAR U+0255
ENCODING 597
SWIDTH 500 0
DWIDTH 12 0
BBX 12 24 0 -2
BITMAP 
0000
0000
0000
0000
0000
0000
0000
0000
0000
1fc0
3fc0
78e0
70e0
7000
73c0
77e0
7ee0
3fe0
1fc0
3800
0000
0000
0000
0000
ENDCHAR
STARTCHAR U+0256
ENCODING 598
SWIDTH 500 0
DWIDTH 12 0
BBX 12 24 0 -2
BITMAP 
0000
0000
0000
0000
0000
0380
0380
0380
0380
3d80
7f80
f780
e380
e380
e380
e780
ef80
7d80
3be0
01e0
0000
0000
0000
0000
ENDCHAR
STARTCHAR U+0257
ENCODING 599
SWIDTH 500 0
DWIDTH 12 0
BBX 12 24 0 -2
BITMAP 
0000
0000
0000
0000
01e0
03e0
0380
0380
0380
3d80
7f80
f780
e380
e380
e380
e780
ef80
7d80
3b80
0000
0000
0000
0000
0000
ENDCHAR
STARTCHAR U+0258
ENCODING 600
SWIDTH 500 0
DWIDTH 12 0
BBX 12 24 0 -2
BITMAP 
0000
0000
0000
0000
0000
0000
0000
0000
0000
1f80
3fc0
71e0
70e0
7fe0
7fe0
00e0
70e0
7fc0
3f80
0000
0000
0000
0000
0000
ENDCHAR
STARTCHAR U+0259
ENCODING 601
SWIDTH 500 0
DWIDTH 12 0
BBX 12 24 0 -2
BITMAP 
0000
0000
0000
0000
0000
0000
0000
0000
0000
3f80
7fc0
70e0
00e0
7fe0
7fe0
70e0
71e0
3fc0
1f80
0000
0000
0000
0000
0000
ENDCHAR
STARTCHAR U+025A
ENCODING 602
SWIDTH 500 0
DWIDTH 12 0
BBX 12 24 0 -2
BITMAP 
0000
0000
0000
0000
0000
0000
0000
0000
00e0
7ee0
ff80
e380
0380
ff80
ff80
e380
e780
7f00
3e00
0000
0000
0000
0000
0000
ENDCHAR
STARTCHAR U+025B
ENCODING 603
SWIDTH 500 0
DWIDTH 12 0
BBX 12 24 0 -2
BITMAP 
0000
0000
0000
0000
0000
0000
0000
0000
0000
1f80
3fc0
70e0
7000
3f00
3f00
7000
70e0
3fc0
1f80
0000
0000
0000
0000
0000
ENDCHAR
STARTCHAR U+025C
ENCODING 604
SWIDTH 500 0
DWIDTH 12 0
BBX 12 24 0 -2
BITMAP 
0000
0000
0000
0000
0000
0000
0000
0000
0000
1f80
3fc0
70e0
00e0
0fc0
0fc0
00e0
70e0
3fc0
1f80
0000
0000
0000
0000
0000
ENDCHAR
STARTCHAR U+025D
ENCODING 605
SWIDTH 500 0
DWIDTH 12 0
BBX 12 24 0 -2
BITMAP 
0000
0000
0000
0000
0000
0000
0000
0000
00e0
3ee0
7f80
e380
0380
1f00
1f00
0380
e380
7f00
3e00
0000
0000
0000
0000
0000
ENDCHAR
STARTCHAR U+025E
ENCODING 606
SWIDTH 500 0
DWIDTH 12 0
BBX 12 24 0 -2
BITMAP 
0000
0000
0000
0000
0000
0000
0000
0000
0000
1f80
3fc0
70e0
70e0
77c0
77c0
70e0
70e0
3fc0
1f80
0000
0000
0000
0000
0000
ENDCHAR
STARTCHAR U+025F
ENCODING 607
SWIDTH 500 0
DWIDTH 12 0
BBX 12 24 0 -2
BITMAP 
0000
0000
0000
0000
0000
0000
0000
0000
0000
0e00
0e00
0e00
0e00
0e00
0e00
0e00
7fc0
7fc0
0e00
0e00
0e00
7e00
7800
0000
ENDCHAR
STARTCHAR U+0260
ENCODING 608
SWIDTH 500 0
DWIDTH 12 0
BBX 12 24 0 -2
BITMAP 
0000
0000
0000
0000
0000
0000
0000
00e0
01e0
3b80
7d80
f780
e780
e380
e380
e380
f780
7f80
3d80
0380
0380
0380
ff00
7e00
ENDCHAR
STARTCHAR U+0261
ENCODING 609
SWIDTH 500 0
DWIDTH 12 0
BBX 12 24 0 -2
BITMAP 
0000
0000
0000
0000
0000
0000
0000
0000
0000
1ee0
3f60
7be0
71e0
70e0
70e0
70e0
79e0
3fe0
1f60
00e0
00e0
00e0
3fc0
1f80
ENDCHAR
STARTCHAR U+0262
ENCODING 610
SWIDTH 500 0
DWIDTH 12 0
BBX 12 24 0 -2
BITMAP 
0000
0000
0000
0000
0000
0000
0000
0000
0000
1f80
3fc0
79e0
7000
7000
73e0
73e0
78e0
3fe0
1fc0
0000
0000
0000
0000
0000
ENDCHAR
STARTCHAR U+0263
ENCODING 611
SWIDTH 500 0
DWIDTH 12 0
BBX 12 24 0 -2
BITMAP 
0000
0000
0000
0000
0000
0000
0000
0000
0000
70e0
79e0
1d80
0f00
1f80
39c0
39c0
39c0
39c0
1f80
0f00
0000
0000
0000
0000
ENDCHAR
STARTCHAR U+0264
ENCODING 612
SWIDTH 500 0
DWIDTH 12 0
BBX 12 24 0 -2
BITMAP 
0000
0000
0000
0000
0000
0000
0000
0000
0000
70e0
79e0
39c0
1d80
1d80
0f00
1f80
1d80
1f80
0f00
0000
0000
0000
0000
0000
ENDCHAR
STARTCHAR U+0265
ENCODING 613
SWIDTH 500 0
DWIDTH 12 0
BBX 12 24 0 -2
BITMAP 
0000
0000
0000
0000
0000
0000
0000
0000
0000
70e0
70e0
70e0
70e0
70e0
70e0
71e0
7be0
3f60
1ee0
00e0
00e0
00e0
00e0
00e0
ENDCHAR
STARTCHAR U+0266
ENCODING 614
SWIDTH 500 0
DWIDTH 12 0
BBX 12 24 0 -2
BITMAP 
0000
0000
0000
0000
1e00
3e00
7000
7000
7000
7780
77c0
7de0
78e0
70e0
70e0
70e0
70e0
70e0
70e0
0000
0000
0000
0000
0000
ENDCHAR
STARTCHAR U+0267
ENCODING 615
SWIDTH 500 0
DWIDTH 12 0
BBX 12 24 0 -2
BITMAP 
0000
0000
0000
0000
1e00
3e00
7000
7000
7000
7780
77c0
7de0
78e0
70e0
70e0
70e0
70e0
70e0
70e0
00e0
00e0
00e0
0fc0
0780
ENDCHAR
STARTCHAR U+0268
ENCODING 616
SWIDTH 500 0
DWIDTH 12 0
BBX 12 24 0 -2
BITMAP 
0000
0000
0000
0000
0000
0e00
0e00
0000
0000
0e00
0e00
0e00
0e00
3f80
3f80
0e00
0e00
0e00
0e00
0000
0000
0000
0000
0000
ENDCHAR
STARTCHAR U+0269
ENCODING 617
SWIDTH 500 0
DWIDTH 12 0
BBX 12 24 0 -2
BITMAP 
0000
0000
0000
0000
0000
0000
0000
0000
0000
0e00
0e00
0e00
0e00
0e00
0e00
0e00
0e00
0f80
0780
0000
0000
0000
0000
0000
ENDCHAR
STARTCHAR U+026A
ENCODING 618
SWIDTH 500 0
DWIDTH 12 0
BBX 12 24 0 -2
BITMAP 
0000
0000
0000
0000
0000
0000
0000
0000
0000
3f80
3f80
0e00
0e00
0e00
0e00
0e00
0e00
3f80
3f80
0000
0000
0000
0000
0000
ENDCHAR
STARTCHAR U+026B
ENCODING 619
SWIDTH 500 0
DWIDTH 12 0
BBX 12 24 0 -2
BITMAP 
0000
0000
0000
0000
0000
0e00
0e00
0e00
0e00
0e00
3ec0
76c0
6f80
0e00
0e00
0e00
0e00
0f80
0780
0000
0000
0000
0000
0000
ENDCHAR
STARTCHAR U+026C
ENCODING 620
SWIDTH 500 0
DWIDTH 12 0
BBX 12 24 0 -2
BITMAP 
0000
0000
0000
0000
0000
0e00
0e00
0e00
0e00
7600
fe00
ee00
ffc0
7fc0
0e00
0e00
0e00
0f80
0780
0000
0000
0000
0000
0000
ENDCHAR
STARTCHAR U+026D
ENCODING 621
SWIDTH 500 0
DWIDTH 12 0
BBX 12 24 0 -2
BITMAP 
0000
0000
0000
0000
0000
0e00
0e00
0e00
0e00
0e00
0e00
0e00
0e00
0e00
0e00
0e00
0e00
0e00
0e00
0e00
07c0
03c0
0000
0000
ENDCHAR
STARTCHAR U+026E
ENCODING 622
SWIDTH 500 0
DWIDTH 12 0
BBX 12 24 0 -2
BITMAP 
0000
0000
0000
0000
0000
7000
7000
7000
7000
7fc0
7fc0
71c0
7380
7700
7780
77c0
71e0
7ce0
3ce0
00e0
01e0
1fc0
0f80
0000
ENDCHAR
STARTCHAR U+026F
ENCODING 623
SWIDTH 500 0
DWIDTH 12 0
BBX 12 24 0 -2
BITMAP 
0000
0000
0000
0000
0000
0000
0000
0000
0000
eee0
eee0
eee0
eee0
eee0
eee0
eee0
eee0
ffe0
7b60
0000
0000
0000
0000
0000
ENDCHAR
STARTCHAR U+0270
ENCODING 624
SWIDTH 500 0
DWIDTH 12 0
BBX 12 24 0 -2
BITMAP 
0000
0000
0000
0000
0000
0000
0000
0000
0000
eee0
eee0
eee0
eee0
eee0
eee0
eee0
eee0
ffe0
7b60
00e0
00e0
00e0
00e0
0000
ENDCHAR
STARTCHAR U+0271
ENCODING 625
SWIDTH 500 0
DWIDTH 12 0
BBX 12 24 0 -2
BITMAP 
0000
0000
0000
0000
0000
0000
0000
0000
0000
edc0
ffe0
eee0
eee0
eee0
eee0
eee0
eee0
eee0
eee0
00e0
03e0
03c0
0000
0000
ENDCHAR
STARTCHAR U+0272
ENCODING 626
SWIDTH 500 0
DWIDTH 12 0
BBX 12 24 0 -2
BITMAP 
0000
0000
0000
0000
0000
0000
0000
0000
0000
3b80
3bc0
3ee0
3ce0
38e0
38e0
38e0
38e0
38e0
38e0
3800
3800
f800
f000
0000
ENDCHAR
STARTCHAR U+0273
ENCODING 627
SWIDTH 500 0
DWIDTH 12 0
BBX 12 24 0 -2
BITMAP 
0000
0000
0000
0000
0000
0000
0000
0000
0000
ee00
ef00
fb80
f380
e380
e380
e380
e380
e380
e380
0380
0380
03e0
01e0
0000
ENDCHAR
STARTCHAR U+0274
ENCODING 628
SWIDTH 500 0
DWIDTH 12 0
BBX 12 24 0 -2
BITMAP 
0000
0000
0000
0000
0000
0000
0000
0000
0000
70e0
70e0
78e0
7ce0
76e0
7760
73e0
71e0
70e0
70e0
0000
0000
0000
0000
0000
ENDCHAR
STARTCHAR U+0275
ENCODING 629
SWIDTH 500 0
DWIDTH 12 0
BBX 12 24 0 -2
BITMAP 
0000
0000
0000
0000
0000
0000
0000
0000
0000
1f80
3fc0
79e0
70e0
7fe0
7fe0
70e0
79e0
3fc0
1f80
0000
0000
0000
0000
0000
ENDCHAR
STARTCHAR U+0276
ENCODING 630
SWIDTH 500 0
DWIDTH 12 0
BBX 12 24 0 -2
BITMAP 
0000
0000
0000
0000
0000
0000
0000
0000
0000
7fe0
ffe0
ee00
ee00
efc0
efc0
ee00
ee00
ffe0
7fe0
0000
0000
0000
0000
0000
ENDCHAR
STARTCHAR U+0277
ENCODING 631
SWIDTH 500 0
DWIDTH 12 0
BBX 12 24 0 -2
BITMAP 
0000
0000
0000
0000
0000
0000
0000
0000
0000
3f80
7fc0
e0e0
e0e0
eee0
eee0
eee0
eee0
7fc0
3b80
0000
0000
0000
0000
0000
ENDCHAR
STARTCHAR U+0278
ENCODING 632
SWIDTH 500 0
DWIDTH 12 0
BBX 12 24 0 -2
BITMAP 
0000
0000
0000
0000
0000
0e00
0e00
0e00
0e00
3f80
7fc0
f6e0
eee0
eee0
eee0
eee0
f6e0
7fc0
3f80
0e00
0e00
0e00
0e00
0000
ENDCHAR
STARTCHAR U+0279
ENCODING 633
SWIDTH 500 0
DWIDTH 12 0
BBX 12 24 0 -2
BITMAP 
0000
0000
0000
0000
0000
0000
0000
0000
0000
00e0
00e0
00e0
00e0
00e0
00e0
71e0
73e0
3f60
1ee0
0000
0000
0000
0000
0000
ENDCHAR
STARTCHAR U+027A
ENCODING 634
SWIDTH 500 0
DWIDTH 12 0
BBX 12 24 0 -2
BITMAP 
0000
0000
0000
0000
0000
00e0
00e0
00e0
00e0
00e0
00e0
00e0
00e0
00e0
00e0
71e0
73e0
3f60
1ee0
0000
0000
0000
0000
0000
ENDCHAR
STARTCHAR U+027B
ENCODING 635
SWIDTH 500 0
DWIDTH 12 0
BBX 12 24 0 -2
BITMAP 
0000
0000
0000
0000
0000
0000
0000
0000
0000
0380
0380
0380
0380
0380
0380
e780
ef80
7d80
39e0
00e0
0000
0000
0000
0000
ENDCHAR
STARTCHAR U+027C
ENCODING 636
SWIDTH 500 0
DWIDTH 12 0
BBX 12 24 0 -2
BITMAP 
0000
0000
0000
0000
0000
7780
77c0
7ce0
78e0
7000
7000
7000
7000
7000
7000
7000
7000
7000
7000
0000
0000
0000
0000
0000
ENDCHAR
STARTCHAR U+027D
ENCODING 637
SWIDTH 500 0
DWIDTH 12 0
BBX 12 24 0 -2
BITMAP 
0000
0000
0000
0000
0000
0000
0000
0000
0000
7780
77c0
7ce0
78e0
7000
7000
7000
7000
7000
7000
7000
3e00
1e00
0000
0000
ENDCHAR
STARTCHAR U+027E
ENCODING 638
SWIDTH 500 0
DWIDTH 12 0
BBX 12 24 0 -2
BITMAP 
0000
0000
0000
0000
0000
0000
0000
0000
0000
1f00
3f80
71c0
71c0
7000
7000
7000
7000
7000
7000
0000
0000
0000
0000
0000
ENDCHAR
STARTCHAR U+027F
ENCODING 639
SWIDTH 500 0
DWIDTH 12 0
BBX 12 24 0 -2
BITMAP 
0000
0000
0000
0000
0000
0000
0000
0000
0000
1f00
3f80
71c0
71c0
01c0
01c0
01c0
01c0
01c0
01c0
0000
0000
0000
0000
0000
ENDCHAR
STARTCHAR U+0280
ENCODING 640
SWIDTH 500 0
DWIDTH 12 0
BBX 12 24 0 -2
BITMAP 
0000
0000
0000
0000
0000
0000
0000
0000
0000
7fc0
7fe0
70e0
70e0
7fe0
7fc0
7380
73c0
71e0
70e0
0000
0000
0000
0000
0000
ENDCHAR
STARTCHAR U+0281
ENCODING 641
SWIDTH 500 0
DWIDTH 12 0
BBX 12 24 0 -2
BITMAP 
0000
0000
0000
0000
0000
0000
0000
0000
0000
70e0
71e0
73c0
7380
7fc0
7fe0
70e0
70e0
7fe0
7fc0
0000
0000
0000
0000
0000
ENDCHAR
STARTCHAR U+0282
ENCODING 642
SWIDTH 500 0
DWIDTH 12 0
BBX 12 24 0 -2
BITMAP 
0000
0000
0000
0000
0000
0000
0000
0000
0000
3fc0
7fe0
7060
7000
3f80
1fc0
00e0
00e0
7fe0
7fc0
7000
7000
3e00
1e00
0000
ENDCHAR
STARTCHAR U+0283
ENCODING 643
SWIDTH 500 0
DWIDTH 12 0
BBX 12 24 0 -2
BITMAP 
0000
0000
0000
0000
0000
03c0
07c0
0f00
0e00
0e00
0e00
0e00
0e00
0e00
0e00
0e00
0e00
0e00
0e00
0e00
1e00
7c00
7800
0000
ENDCHAR
STARTCHAR U+0284
ENCODING 644
SWIDTH 500 0
DWIDTH 12 0
BBX 12 24 0 -2
BITMAP 
0000
0000
0000
0000
0000
03c0
07c0
0f00
0e00
0e00
7fc0
7fc0
0e00
0e00
0e00
0e00
7fc0
7fc0
0e00
0e00
1e00
7c00
7800
0000
ENDCHAR
STARTCHAR U+0285
ENCODING 645
SWIDTH 500 0
DWIDTH 12 0
BBX 12 24 0 -2
BITMAP 
0000
0000
0000
0000
0000
0000
0000
0000
0000
7800
7c00
1e00
0e00
0e00
0e00
0e00
0e00
0e00
0e00
0e00
0f00
07c0
03c0
0000
ENDCHAR
STARTCHAR U+0286
ENCODING 646
SWIDTH 500 0
DWIDTH 12 0
BBX 12 24 0 -2
BITMAP 
0000
0000
0000
0000
0000
01e0
03e0
0780
0700
0700
0700
0700
0700
0700
0700
0700
0700
3b00
7f00
7700
7780
7fe0
3ce0
0000
ENDCHAR
STARTCHAR U+0287
ENCODING 647
SWIDTH 500 0
DWIDTH 12 0
BBX 12 24 0 -2
BITMAP 
0000
0000
0000
0000
0000
0000
3c00
3e00
0e00
0e00
0e00
0e00
0e00
0e00
3f80
3f80
0e00
0e00
0e00
0000
0000
0000
0000
0000
ENDCHAR
STARTCHAR U+0288
ENCODING 648
SWIDTH 500 0
DWIDTH 12 0
BBX 12 24 0 -2
BITMAP 
0000
0000
0000
0000
0000
0000
0e00
0e00
0e00
3f80
3f80
0e00
0e00
0e00
0e00
0e00
0e00
0e00
0e00
0e00
07c0
03c0
0000
0000
ENDCHAR
STARTCHAR U+0289
ENCODING 649
SWIDTH 500 0
DWIDTH 12 0
BBX 12 24 0 -2
BITMAP 
0000
0000
0000
0000
0000
0000
0000
0000
0000
71c0
71c0
71c0
ffe0
ffe0
71c0
71c0
7bc0
3fc0
1ec0
0000
0000
0000
0000
0000
ENDCHAR
STARTCHAR U+028A
ENCODING 650
SWIDTH 500 0
DWIDTH 12 0
BBX 12 24 0 -2
BITMAP 
0000
0000
0000
0000
0000
0000
0000
0000
0000
7de0
7de0
1d80
1d80
39c0
70e0
70e0
79e0
3fc0
1f80
0000
0000
0000
0000
0000
ENDCHAR
STARTCHAR U+028B
ENCODING 651
SWIDTH 500 0
DWIDTH 12 0
BBX 12 24 0 -2
BITMAP 
0000
0000
0000
0000
0000
0000
0000
0000
0000
79c0
79e0
38e0
38e0
38e0
39c0
39c0
3b80
3f80
1e00
0000
0000
0000
0000
0000
ENDCHAR
STARTCHAR U+028C
ENCODING 652
SWIDTH 500 0
DWIDTH 12 0
BBX 12 24 0 -2
BITMAP 
0000
0000
0000
0000
0000
0000
0000
0000
0000
0f00
0f00
1d80
1d80
39c0
39c0
39c0
70e0
70e0
70e0
0000
0000
0000
0000
0000
ENDCHAR
STARTCHAR U+028D
ENCODING 653
SWIDTH 500 0
DWIDTH 12 0
BBX 12 24 0 -2
BITMAP 
0000
0000
0000
0000
0000
0000
0000
0000
0000
39c0
39c0
39c0
3dc0
7760
7760
7760
76e0
70e0
70e0
0000
0000
0000
0000
0000
ENDCHAR
STARTCHAR U+028E
ENCODING 654
SWIDTH 500 0
DWIDTH 12 0
BBX 12 24 0 -2
BITMAP 
0000
0000
0000
0000
0000
01c0
03c0
0380
0780
0700
0f00
0f00
1f80
1d80
3dc0
39c0
79e0
70e0
70e0
0000
0000
0000
0000
0000
ENDCHAR
STARTCHAR U+028F
ENCODING 655
SWIDTH 500 0
DWIDTH 12 0
BBX 12 24 0 -2
BITMAP 
0000
0000
0000
0000
0000
0000
0000
0000
0000
e0e0
f1e0
7bc0
3f80
1f00
0e00
0e00
0e00
0e00
0e00
0000
0000
0000
0000
0000
ENDCHAR
STARTCHAR U+0290
ENCODING 656
SWIDTH 500 0
DWIDTH 12 0
BBX 12 24 0 -2
BITMAP 
0000
0000
0000
0000
0000
0000
0000
0000
0000
7f80
7f80
0380
0700
0e00
1c00
3800
7000
7f80
7f80
0380
01e0
00e0
0000
0000
ENDCHAR
STARTCHAR U+0291
ENCODING 657
SWIDTH 500 0
DWIDTH 12 0
BBX 12 24 0 -2
BITMAP 
0000
0000
0000
0000
0000
0000
0000
0000
0000
7fc0
7fc0
0380
0700
0e00
1c00
3bc0
7760
7f60
7fc0
0e00
1c00
0000
0000
0000
ENDCHAR
STARTCHAR U+0292
ENCODING 658
SWIDTH 500 0
DWIDTH 12 0
BBX 12 24 0 -2
BITMAP 
0000
0000
0000
0000
0000
0000
0000
0000
0000
3f80
3f80
0380
0700
0e00
1f00
1f80
03c0
01c0
01c0
01c0
73c0
7f80
3f00
0000
ENDCHAR
STARTCHAR U+0293
ENCODING 659
SWIDTH 500 0
DWIDTH 12 0
BBX 12 24 0 -2
BITMAP 
0000
0000
0000
0000
0000
0000
0000
0000
0000
3f80
3f80
0380
0700
0e00
1f00
1f80
03c0
01c0
3dc0
7ec0
7780
7fc0
3f40
0000
ENDCHAR
STARTCHAR U+0294
ENCODING 660
SWIDTH 500 0
DWIDTH 12 0
BBX 12 24 0 -2
BITMAP 
0000
0000
0000
0000
0000
1e00
3f00
3b80
0380
0380
0380
0380
0780
0f00
0e00
0e00
0e00
0e00
0e00
0000
0000
0000
0000
0000
ENDCHAR
STARTCHAR U+0295
ENCODING 661
SWIDTH 500 0
DWIDTH 12 0
BBX 12 24 0 -2
BITMAP 
0000
0000
0000
0000
0000
0f00
1f80
3b80
3800
3800
3800
3800
3c00
1e00
0e00
0e00
0e00
0e00
0e00
0000
0000
0000
0000
0000
ENDCHAR
STARTCHAR U+0296
ENCODING 662
SWIDTH 500 0
DWIDTH 12 0
BBX 12 24 0 -2
BITMAP 
0000
0000
0000
0000
0000
0e00
0e00
0e00
0e00
0e00
0f00
0780
0380
0380
0380
0380
3b80
3f00
1e00
0000
0000
0000
0000
0000
ENDCHAR
STARTCHAR U+0297
ENCODING 663
SWIDTH 500 0
DWIDTH 12 0
BBX 12 24 0 -2
BITMAP 
0000
0000
0000
0000
0000
1f00
3f80
7bc0
71c0
7000
7000
7000
7000
7000
7000
71c0
7bc0
3f80
1f00
0000
0000
0000
0000
0000
ENDCHAR
STARTCHAR U+0298
ENCODING 664
SWIDTH 500 0
DWIDTH 12 0
BBX 12 24 0 -2
BITMAP 
0000
0000
0000
0000
0000
0000
0000
0000
0000
1f80
3fc0
79e0
70e0
7760
7760
70e0
79e0
3fc0
1f80
0000
0000
0000
0000
0000
ENDCHAR
STARTCHAR U+0299
ENCODING 665
SWIDTH 500 0
DWIDTH 12 0
BBX 12 24 0 -2
BITMAP 
0000
0000
0000
0000
0000
0000
0000
0000
0000
7f00
7f80
71c0
71c0
7f80
7fc0
71e0
70e0
7fc0
7f80
0000
0000
0000
0000
0000
ENDCHAR
STARTCHAR U+029A
ENCODING 666
SWIDTH 500 0
DWIDTH 12 0
BBX 12 24 0 -2
BITMAP 
0000
0000
0000
0000
0000
0000
0000
0000
0000
1f80
3fc0
70e0
70e0
3f60
3f60
70e0
70e0
3fc0
1f80
0000
0000
0000
0000
0000
ENDCHAR
STARTCHAR U+029B
ENCODING 667
SWIDTH 500 0
DWIDTH 12 0
BBX 12 24 0 -2
BITMAP 
0000
0000
0000
0000
0000
0000
01e0
03e0
0380
3f80
7f80
f000
e000
e000
e7c0
e7c0
f1c0
7fc0
3f80
0000
0000
0000
0000
0000
ENDCHAR
STARTCHAR U+029C
ENCODING 668
SWIDTH 500 0
DWIDTH 12 0
BBX 12 24 0 -2
BITMAP 
0000
0000
0000
0000
0000
0000
0000
0000
0000
70e0
70e0
70e0
70e0
7fe0
7fe0
70e0
70e0
70e0
70e0
0000
0000
0000
0000
0000
ENDCHAR
STARTCHAR U+029D
ENCODING 669
SWIDTH 500 0
DWIDTH 12 0
BBX 12 24 0 -2
BITMAP 
0000
0000
0000
0000
0000
0700
0700
0000
0000
0700
0700
0700
0700
0700
0700
0700
0700
1fc0
3fc0
7700
7700
3e00
1c00
0000
ENDCHAR
STARTCHAR U+029E
ENCODING 670
SWIDTH 500 0
DWIDTH 12 0
BBX 12 24 0 -2
BITMAP 
0000
0000
0000
0000
0000
0000
0000
0000
71c0
79c0
3dc0
1ec0
0fc0
07c0
0fc0
1ec0
3dc0
79c0
71c0
01c0
01c0
0000
0000
0000
ENDCHAR
STARTCHAR U+029F
ENCODING 671
SWIDTH 500 0
DWIDTH 12 0
BBX 12 24 0 -2
BITMAP 
0000
0000
0000
0000
0000
0000
0000
0000
0000
7000
7000
7000
7000
7000
7000
7000
7000
7fe0
7fe0
0000
0000
0000
0000
0000
ENDCHAR
STARTCHAR U+02A0
ENCODING 672
SWIDTH 500 0
DWIDTH 12 0
BBX 12 24 0 -2
BITMAP 
0000
0000
0000
0000
0000
0000
0000
00e0
01e0
3b80
7d80
f780
e780
e380
e380
e780
f780
7d80
3b80
0380
0380
0380
0380
0000
ENDCHAR
STARTCHAR U+02A1
ENCODING 673
SWIDTH 500 0
DWIDTH 12 0
BBX 12 24 0 -2
BITMAP 
0000
0000
0000
0000
0000
1e00
3f00
3b80
0380
0380
0380
0380
0780
0f00
0e00
7fc0
7fc0
0e00
0e00
0000
0000
0000
0000
0000
ENDCHAR
STARTCHAR U+02A2
ENCODING 674
SWIDTH 500 0
DWIDTH 12 0
BBX 12 24 0 -2
BITMAP 
0000
0000
0000
0000
0000
0f00
1f80
3b80
3800
3800
3800
3800
3c00
1e00
0e00
7fc0
7fc0
0e00
0e00
0000
0000
0000
0000
0000
ENDCHAR
STARTCHAR U+02A3
ENCODING 675
SWIDTH 500 0
DWIDTH 12 0
BBX 12 24 0 -2
BITMAP 
0000
0000
0000
0000
0000
1c00
1c00
1c00
1c00
7fe0
ffe0
ece0
ece0
edc0
edc0
ed80
ed80
ffe0
77e0
0000
0000
0000
0000
0000
ENDCHAR
STARTCHAR U+02A4
ENCODING 676
SWIDTH 500 0
DWIDTH 12 0
BBX 12 24 0 -2
BITMAP 
0000
0000
0000
0000
0000
1c00
1c00
1c00
1c00
7fc0
ffc0
edc0
ed80
ef00
efc0
ede0
ece0
fee0
76e0
00e0
01e0
1fc0
0f80
0000
ENDCHAR
STARTCHAR U+02A5
ENCODING 677
SWIDTH 500 0
DWIDTH 12 0
BBX 12 24 0 -2
BITMAP 
0000
0000
0000
0000
0000
1c00
1c00
1c00
1c00
7fe0
ffe0
ece0
edc0
ed80
ef80
efe0
ef60
ffe0
77c0
0700
0e00
0000
0000
0000
ENDCHAR
STARTCHAR U+02A6
ENCODING 678
SWIDTH 500 0
DWIDTH 12 0
BBX 12 24 0 -2
BITMAP 
0000
0000
0000
0000
0000
0000
7000
7000
7000
ffc0
ffe0
7660
7600
7780
73c0
70e0
70e0
7fe0
3fc0
0000
0000
0000
0000
0000
ENDCHAR
STARTCHAR U+02A7
ENCODING 679
SWIDTH 500 0
DWIDTH 12 0
BBX 12 24 0 -2
BITMAP 
0000
0000
0000
0000
00e0
01e0
3b80
3b80
3b80
ff80
ff80
3b80
3b80
3b80
3b80
3b80
3b80
3f80
1f80
0380
0380
0f00
0e00
0000
ENDCHAR
STARTCHAR U+02A8
ENCODING 680
SWIDTH 500 0
DWIDTH 12 0
BBX 12 24 0 -2
BITMAP 
0000
0000
0000
0000
0000
0000
7000
7000
7000
fbc0
ffe0
7660
7600
7600
76c0
77e0
7760
7fe0
3fc0
0000
0000
0000
0000
0000
ENDCHAR
STARTCHAR U+02B0
ENCODING 688
SWIDTH 500 0
DWIDTH 12 0
BBX 12 24 0 -2
BITMAP 
3800
3800
3800
3b00
3f80
3d80
3b80
3b80
3b80
3b80
0000
0000
0000
0000
0000
0000
0000
0000
0000
0000
0000
0000
0000
0000
ENDCHAR
STARTCHAR U+02B1
ENCODING 689
SWIDTH 500 0
DWIDTH 12 0
BBX 12 24 0 -2
BITMAP 
1e00
3e00
3800
3b00
3f80
3d80
3b80
3b80
3b80
3b80
0000
0000
0000
0000
0000
0000
0000
0000
0000
0000
0000
0000
0000
0000
ENDCHAR
STARTCHAR U+02B2
ENCODING 690
SWIDTH 500 0
DWIDTH 12 0
BBX 12 24 0 -2
BITMAP 
0700
0700
0000
0700
0700
0700
0700
0700
1f00
1e00
0000
0000
0000
0000
0000
0000
0000
0000
0000
0000
0000
0000
0000
0000
ENDCHAR
STARTCHAR U+02B3
ENCODING 691
SWIDTH 500 0
DWIDTH 12 0
BBX 12 24 0 -2
BITMAP 
3b00
3f80
3d80
3800
3800
3800
3800
3800
0000
0000
0000
0000
0000
0000
0000
0000
0000
0000
0000
0000
0000
0000
0000
0000
ENDCHAR
STARTCHAR U+02B4
ENCODING 692
SWIDTH 500 0
DWIDTH 12 0
BBX 12 24 0 -2
BITMAP 
0380
0380
0380
0380
0380
3b80
3f80
1d80
0000
0000
0000
0000
0000
0000
0000
0000
0000
0000
0000
0000
0000
0000
0000
0000
ENDCHAR
STARTCHAR U+02B5
ENCODING 693
SWIDTH 500 0
DWIDTH 12 0
BBX 12 24 0 -2
BITMAP 
0380
0380
0380
0380
0380
3b80
3f80
1d80
0380
03c0
01c0
0000
0000
0000
0000
0000
0000
0000
0000
0000
0000
0000
0000
0000
ENDCHAR
STARTCHAR U+02B6
ENCODING 694
SWIDTH 500 0
DWIDTH 12 0
BBX 12 24 0 -2
BITMAP 
39c0
3b80
3b80
3b00
3f00
3f00
3b80
3b80
3f80
3f00
0000
0000
0000
0000
0000
0000
0000
0000
0000
0000
0000
0000
0000
0000
ENDCHAR
STARTCHAR U+02B7
ENCODING 695
SWIDTH 500 0
DWIDTH 12 0
BBX 12 24 0 -2
BITMAP 
7380
7380
7580
7580
3f00
3f00
3b00
3b00
0000
0000
0000
0000
0000
0000
0000
0000
0000
0000
0000
0000
0000
0000
0000
0000
ENDCHAR
STARTCHAR U+02B8
ENCODING 696
SWIDTH 500 0
DWIDTH 12 0
BBX 12 24 0 -2
BITMAP 
3b80
3b80
3b80
3b80
3b80
3f80
1d80
0380
3f80
1f00
0000
0000
0000
0000
0000
0000
0000
0000
0000
0000
0000
0000
0000
0000
ENDCHAR
STARTCHAR U+02B9
ENCODING 697
SWIDTH 500 0
DWIDTH 12 0
BBX 12 24 0 -2
BITMAP 
0000
0000
0700
0700
0f00
0e00
1c00
1c00
3800
3000
0000
0000
0000
0000
0000
0000
0000
0000
0000
0000
0000
0000
0000
0000
ENDCHAR
STARTCHAR U+02BA
ENCODING 698
SWIDTH 500 0
DWIDTH 12 0
BBX 12 24 0 -2
BITMAP 
0000
0000
1dc0
1dc0
3dc0
3b80
7700
7700
ee00
cc00
0000
0000
0000
0000
0000
0000
0000
0000
0000
0000
0000
0000
0000
0000
ENDCHAR
STARTCHAR U+02BB
ENCODING 699
SWIDTH 500 0
DWIDTH 12 0
BBX 12 24 0 -2
BITMAP 
0000
0000
0000
0000
0700
0e00
1c00
1c00
1f00
1f00
0e00
0000
0000
0000
0000
0000
0000
0000
0000
0000
0000
0000
0000
0000
ENDCHAR
STARTCHAR U+02BC
ENCODING 700
SWIDTH 500 0
DWIDTH 12 0
BBX 12 24 0 -2
BITMAP 
0000
0000
0000
0000
0e00
1f00
1f00
0700
0700
0e00
1c00
0000
0000
0000
0000
0000
0000
0000
0000
0000
0000
0000
0000
0000
ENDCHAR
STARTCHAR U+02BD
ENCODING 701
SWIDTH 500 0
DWIDTH 12 0
BBX 12 24 0 -2
BITMAP 
0000
0000
0000
0000
0e00
1f00
1f00
1c00
1c00
0e00
0700
0000
0000
0000
0000
0000
0000
0000
0000
0000
0000
0000
0000
0000
ENDCHAR
STARTCHAR U+02BE
ENCODING 702
SWIDTH 500 0
DWIDTH 12 0
BBX 12 24 0 -2
BITMAP 
0000
0000
0700
0380
0380
0700
0000
0000
0000
0000
0000
0000
0000
0000
0000
0000
0000
0000
0000
0000
0000
0000
0000
0000
ENDCHAR
STARTCHAR U+02BF
ENCODING 703
SWIDTH 500 0
DWIDTH 12 0
BBX 12 24 0 -2
BITMAP 
0000
0000
1c00
3800
3800
1c00
0000
0000
0000
0000
0000
0000
0000
0000
0000
0000
0000
0000
0000
0000
0000
0000
0000
0000
ENDCHAR
STARTCHAR U+02C0
ENCODING 704
SWIDTH 500 0
DWIDTH 12 0
BBX 12 24 0 -2
BITMAP 
0000
1f00
1d80
0380
0380
0780
0e00
0e00
0000
0000
0000
0000
0000
0000
0000
0000
0000
0000
0000
0000
0000
0000
0000
0000
ENDCHAR
STARTCHAR U+02C1
ENCODING 705
SWIDTH 500 0
DWIDTH 12 0
BBX 12 24 0 -2
BITMAP 
0000
0f80
1d80
1c00
1c00
1e00
0700
0700
0000
0000
0000
0000
0000
0000
0000
0000
0000
0000
0000
0000
0000
0000
0000
0000
ENDCHAR
STARTCHAR U+02C2
ENCODING 706
SWIDTH 500 0
DWIDTH 12 0
BBX 12 24 0 -2
BITMAP 
01c0
07c0
1f00
7c00
7c00
1f00
07c0
01c0
0000
0000
0000
0000
0000
0000
0000
0000
0000
0000
0000
0000
0000
0000
0000
0000
ENDCHAR
STARTCHAR U+02C3
ENCODING 707
SWIDTH 500 0
DWIDTH 12 0
BBX 12 24 0 -2
BITMAP 
7000
7c00
1f00
07c0
07c0
1f00
7c00
7000
0000
0000
0000
0000
0000
0000
0000
0000
0000
0000
0000
0000
0000
0000
0000
0000
ENDCHAR
STARTCHAR U+02C4
ENCODING 708
SWIDTH 500 0
DWIDTH 12 0
BBX 12 24 0 -2
BITMAP 
0e00
0e00
1f00
1f00
3b80
3b80
71c0
71c0
0000
0000
0000
0000
0000
0000
0000
0000
0000
0000
0000
0000
0000
0000
0000
0000
ENDCHAR
STARTCHAR U+02C5
ENCODING 709
SWIDTH 500 0
DWIDTH 12 0
BBX 12 24 0 -2
BITMAP 
71c0
71c0
3b80
3b80
1f00
1f00
0e00
0e00
0000
0000
0000
0000
0000
0000
0000
0000
0000
0000
0000
0000
0000
0000
0000
0000
ENDCHAR
STARTCHAR U+02C6
ENCODING 710
SWIDTH 500 0
DWIDTH 12 0
BBX 12 24 0 -2
BITMAP 
0f00
1f80
39c0
0000
0000
0000
0000
0000
0000
0000
0000
0000
0000
0000
0000
0000
0000
0000
0000
0000
0000
0000
0000
0000
ENDCHAR
STARTCHAR U+02C7
ENCODING 711
SWIDTH 500 0
DWIDTH 12 0
BBX 12 24 0 -2
BITMAP 
3b80
1f00
0e00
0000
0000
0000
0000
0000
0000
0000
0000
0000
0000
0000
0000
0000
0000
0000
0000
0000
0000
0000
0000
0000
ENDCHAR
STARTCHAR U+02C8
ENCODING 712
SWIDTH 500 0
DWIDTH 12 0
BBX 12 24 0 -2
BITMAP 
0e00
0e00
0e00
0e00
0000
0000
0000
0000
0000
0000
0000
0000
0000
0000
0000
0000
0000
0000
0000
0000
0000
0000
0000
0000
ENDCHAR
STARTCHAR U+02C9
ENCODING 713
SWIDTH 500 0
DWIDTH 12 0
BBX 12 24 0 -2
BITMAP 
0000
3fc0
3fc0
0000
0000
0000
0000
0000
0000
0000
0000
0000
0000
0000
0000
0000
0000
0000
0000
0000
0000
0000
0000
0000
ENDCHAR
STARTCHAR U+02CA
ENCODING 714
SWIDTH 500 0
DWIDTH 12 0
BBX 12 24 0 -2
BITMAP 
0000
0700
0f00
1c00
0000
0000
0000
0000
0000
0000
0000
0000
0000
0000
0000
0000
0000
0000
0000
0000
0000
0000
0000
0000
ENDCHAR
STARTCHAR U+02CB
ENCODING 715
SWIDTH 500 0
DWIDTH 12 0
BBX 12 24 0 -2
BITMAP 
0000
1c00
1e00
0700
0000
0000
0000
0000
0000
0000
0000
0000
0000
0000
0000
0000
0000
0000
0000
0000
0000
0000
0000
0000
ENDCHAR
STARTCHAR U+02CC
ENCODING 716
SWIDTH 500 0
DWIDTH 12 0
BBX 12 24 0 -2
BITMAP 
0000
0000
0000
0000
0000
0000
0000
0000
0000
0000
0000
0000
0000
0000
0000
0000
0000
0000
0000
0e00
0e00
0e00
0e00
0000
ENDCHAR
STARTCHAR U+02CD
ENCODING 717
SWIDTH 500 0
DWIDTH 12 0
BBX 12 24 0 -2
BITMAP 
0000
0000
0000
0000
0000
0000
0000
0000
0000
0000
0000
0000
0000
0000
0000
0000
0000
0000
0000
0000
0000
3fc0
3fc0
0000
ENDCHAR
STARTCHAR U+02CE
ENCODING 718
SWIDTH 500 0
DWIDTH 12 0
BBX 12 24 0 -2
BITMAP 
0000
0000
0000
0000
0000
0000
0000
0000
0000
0000
0000
0000
0000
0000
0000
0000
0000
0000
0000
0000
1c00
1e00
0700
0000
ENDCHAR
STARTCHAR U+02CF
ENCODING 719
SWIDTH 500 0
DWIDTH 12 0
BBX 12 24 0 -2
BITMAP 
0000
0000
0000
0000
0000
0000
0000
0000
0000
0000
0000
0000
0000
0000
0000
0000
0000
0000
0000
0000
0700
0f00
1c00
0000
ENDCHAR
STARTCHAR U+02D0
ENCODING 720
SWIDTH 500 0
DWIDTH 12 0
BBX 12 24 0 -2
BITMAP 
0000
0000
0000
0000
0000
0000
0000
0000
1f80
0f00
0f00
0600
0000
0000
0000
0600
0f00
0f00
1f80
0000
0000
0000
0000
0000
ENDCHAR
STARTCHAR U+02D1
ENCODING 721
SWIDTH 500 0
DWIDTH 12 0
BBX 12 24 0 -2
BITMAP 
0000
0000
0000
0000
0000
0000
0000
0000
0000
0000
1f80
0f00
0f00
0600
0000
0000
0000
0000
0000
0000
0000
0000
0000
0000
ENDCHAR
STARTCHAR U+02D2
ENCODING 722
SWIDTH 500 0
DWIDTH 12 0
BBX 12 24 0 -2
BITMAP 
0000
0000
0000
0000
0000
0000
0000
0000
0000
0000
0000
0700
0380
0380
0700
0000
0000
0000
0000
0000
0000
0000
0000
0000
ENDCHAR
STARTCHAR U+02D3
ENCODING 723
SWIDTH 500 0
DWIDTH 12 0
BBX 12 24 0 -2
BITMAP 
0000
0000
0000
0000
0000
0000
0000
0000
0000
0000
0000
1c00
3800
3800
1c00
0000
0000
0000
0000
0000
0000
0000
0000
0000
ENDCHAR
STARTCHAR U+02D4
ENCODING 724
SWIDTH 500 0
DWIDTH 12 0
BBX 12 24 0 -2
BITMAP 
0000
0000
0000
0000
0000
0000
0000
0000
0000
0000
0000
0e00
0e00
3f80
3f80
0000
0000
0000
0000
0000
0000
0000
0000
0000
ENDCHAR
STARTCHAR U+02D5
ENCODING 725
SWIDTH 500 0
DWIDTH 12 0
BBX 12 24 0 -2
BITMAP 
0000
0000
0000
0000
0000
0000
0000
0000
0000
0000
0000
0000
0000
3f80
3f80
0e00
0e00
0000
0000
0000
0000
0000
0000
0000
ENDCHAR
STARTCHAR U+02D6
ENCODING 726
SWIDTH 500 0
DWIDTH 12 0
BBX 12 24 0 -2
BITMAP 
0000
0000
0000
0000
0000
0000
0000
0000
0000
0000
0000
0e00
0e00
3f80
3f80
0e00
0e00
0000
0000
0000
0000
0000
0000
0000
ENDCHAR
STARTCHAR U+02D7
ENCODING 727
SWIDTH 500 0
DWIDTH 12 0
BBX 12 24 0 -2
BITMAP 
0000
0000
0000
0000
0000
0000
0000
0000
0000
0000
0000
0000
0000
3f80
3f80
0000
0000
0000
0000
0000
0000
0000
0000
0000
ENDCHAR
STARTCHAR U+02D8
ENCODING 728
SWIDTH 500 0
DWIDTH 12 0
BBX 12 24 0 -2
BITMAP 
39c0
39c0
1f80
0000
0000
0000
0000
0000
0000
0000
0000
0000
0000
0000
0000
0000
0000
0000
0000
0000
0000
0000
0000
0000
ENDCHAR
STARTCHAR U+02D9
ENCODING 729
SWIDTH 500 0
DWIDTH 12 0
BBX 12 24 0 -2
BITMAP 
0000
0e00
0e00
0000
0000
0000
0000
0000
0000
0000
0000
0000
0000
0000
0000
0000
0000
0000
0000
0000
0000
0000
0000
0000
ENDCHAR
STARTCHAR U+02DA
ENCODING 730
SWIDTH 500 0
DWIDTH 12 0
BBX 12 24 0 -2
BITMAP 
0f00
1d80
1d80
0f00
0000
0000
0000
0000
0000
0000
0000
0000
0000
0000
0000
0000
0000
0000
0000
0000
0000
0000
0000
0000
ENDCHAR
STARTCHAR U+02DB
ENCODING 731
SWIDTH 500 0
DWIDTH 12 0
BBX 12 24 0 -2
BITMAP 
0000
0000
0000
0000
0000
0000
0000
0000
0000
0000
0000
0000
0000
0000
0000
0000
0000
0000
0000
01f0
03c0
0700
07e0
03e0
ENDCHAR
STARTCHAR U+02DC
ENCODING 732
SWIDTH 500 0
DWIDTH 12 0
BBX 12 24 0 -2
BITMAP 
3cc0
76c0
6780
0000
0000
0000
0000
0000
0000
0000
0000
0000
0000
0000
0000
0000
0000
0000
0000
0000
0000
0000
0000
0000
ENDCHAR
STARTCHAR U+02DD
ENCODING 733
SWIDTH 500 0
DWIDTH 12 0
BBX 12 24 0 -2
BITMAP 
1ce0
3de0
7380
0000
0000
0000
0000
0000
0000
0000
0000
0000
0000
0000
0000
0000
0000
0000
0000
0000
0000
0000
0000
0000
ENDCHAR
STARTCHAR U+0300
ENCODING 768
SWIDTH 500 0
DWIDTH 12 0
BBX 12 24 0 -2
BITMAP 
0000
1c00
1e00
0700
0000
0000
0000
0000
0000
0000
0000
0000
0000
0000
0000
0000
0000
0000
0000
0000
0000
0000
0000
0000
ENDCHAR
STARTCHAR U+0301
ENCODING 769
SWIDTH 500 0
DWIDTH 12 0
BBX 12 24 0 -2
BITMAP 
0000
0700
0f00
1c00
0000
0000
0000
0000
0000
0000
0000
0000
0000
0000
0000
0000
0000
0000
0000
0000
0000
0000
0000
0000
ENDCHAR
STARTCHAR U+0302
ENCODING 770
SWIDTH 500 0
DWIDTH 12 0
BBX 12 24 0 -2
BITMAP 
0000
0600
0f00
1d80
39c0
70e0
0000
0000
0000
0000
0000
0000
0000
0000
0000
0000
0000
0000
0000
0000
0000
0000
0000
0000
ENDCHAR
STARTCHAR U+0303
ENCODING 771
SWIDTH 500 0
DWIDTH 12 0
BBX 12 24 0 -2
BITMAP 
0000
3cc0
76c0
6780
0000
0000
0000
0000
0000
0000
0000
0000
0000
0000
0000
0000
0000
0000
0000
0000
0000
0000
0000
0000
ENDCHAR
STARTCHAR U+0304
ENCODING 772
SWIDTH 500 0
DWIDTH 12 0
BBX 12 24 0 -2
BITMAP 
0000
7fc0
7fc0
0000
0000
0000
0000
0000
0000
0000
0000
0000
0000
0000
0000
0000
0000
0000
0000
0000
0000
0000
0000
0000
ENDCHAR
STARTCHAR U+0305
ENCODING 773
SWIDTH 500 0
DWIDTH 12 0
BBX 12 24 0 -2
BITMAP 
0000
fff0
fff0
0000
0000
0000
0000
0000
0000
0000
0000
0000
0000
0000
0000
0000
0000
0000
0000
0000
0000
0000
0000
0000
ENDCHAR
STARTCHAR U+0306
ENCODING 774
SWIDTH 500 0
DWIDTH 12 0
BBX 12 24 0 -2
BITMAP 
0000
39c0
39c0
1f80
0000
0000
0000
0000
0000
0000
0000
0000
0000
0000
0000
0000
0000
0000
0000
0000
0000
0000
0000
0000
ENDCHAR
STARTCHAR U+0307
ENCODING 775
SWIDTH 500 0
DWIDTH 12 0
BBX 12 24 0 -2
BITMAP 
0000
0e00
0e00
0000
0000
0000
0000
0000
0000
0000
0000
0000
0000
0000
0000
0000
0000
0000
0000
0000
0000
0000
0000
0000
ENDCHAR
STARTCHAR U+0308
ENCODING 776
SWIDTH 500 0
DWIDTH 12 0
BBX 12 24 0 -2
BITMAP 
0000
39c0
39c0
0000
0000
0000
0000
0000
0000
0000
0000
0000
0000
0000
0000
0000
0000
0000
0000
0000
0000
0000
0000
0000
ENDCHAR
STARTCHAR U+0309
ENCODING 777
SWIDTH 500 0
DWIDTH 12 0
BBX 12 24 0 -2
BITMAP 
0000
1e00
1b00
0700
0e00
0e00
0000
0000
0000
0000
0000
0000
0000
0000
0000
0000
0000
0000
0000
0000
0000
0000
0000
0000
ENDCHAR
STARTCHAR U+030A
ENCODING 778
SWIDTH 500 0
DWIDTH 12 0
BBX 12 24 0 -2
BITMAP 
0000
0f00
1d80
1d80
0f00
0000
0000
0000
0000
0000
0000
0000
0000
0000
0000
0000
0000
0000
0000
0000
0000
0000
0000
0000
ENDCHAR
STARTCHAR U+030B
ENCODING 779
SWIDTH 500 0
DWIDTH 12 0
BBX 12 24 0 -2
BITMAP 
0000
1ce0
3de0
7380
0000
0000
0000
0000
0000
0000
0000
0000
0000
0000
0000
0000
0000
0000
0000
0000
0000
0000
0000
0000
ENDCHAR
STARTCHAR U+030C
ENCODING 780
SWIDTH 500 0
DWIDTH 12 0
BBX 12 24 0 -2
BITMAP 
0000
70e0
39c0
1d80
0f00
0600
0000
0000
0000
0000
0000
0000
0000
0000
0000
0000
0000
0000
0000
0000
0000
0000
0000
0000
ENDCHAR
STARTCHAR U+030D
ENCODING 781
SWIDTH 500 0
DWIDTH 12 0
BBX 12 24 0 -2
BITMAP 
0c00
0e00
0e00
0e00
0e00
0600
0000
0000
0000
0000
0000
0000
0000
0000
0000
0000
0000
0000
0000
0000
0000
0000
0000
0000
ENDCHAR
STARTCHAR U+030E
ENCODING 782
SWIDTH 500 0
DWIDTH 12 0
BBX 12 24 0 -2
BITMAP 
3300
3b80
3b80
3b80
3b80
1980
0000
0000
0000
0000
0000
0000
0000
0000
0000
0000
0000
0000
0000
0000
0000
0000
0000
0000
ENDCHAR
STARTCHAR U+030F
ENCODING 783
SWIDTH 500 0
DWIDTH 12 0
BBX 12 24 0 -2
BITMAP 
0000
7380
7bc0
1ce0
0000
0000
0000
0000
0000
0000
0000
0000
0000
0000
0000
0000
0000
0000
0000
0000
0000
0000
0000
0000
ENDCHAR
STARTCHAR U+0310
ENCODING 784
SWIDTH 500 0
DWIDTH 12 0
BBX 12 24 0 -2
BITMAP 
0000
0e00
6ec0
71c0
3f80
0e00
0000
0000
0000
0000
0000
0000
0000
0000
0000
0000
0000
0000
0000
0000
0000
0000
0000
0000
ENDCHAR
STARTCHAR U+0311
ENCODING 785
SWIDTH 500 0
DWIDTH 12 0
BBX 12 24 0 -2
BITMAP 
0000
1f80
39c0
39c0
0000
0000
0000
0000
0000
0000
0000
0000
0000
0000
0000
0000
0000
0000
0000
0000
0000
0000
0000
0000
ENDCHAR
STARTCHAR U+0312
ENCODING 786
SWIDTH 500 0
DWIDTH 12 0
BBX 12 24 0 -2
BITMAP 
0000
0000
0000
0000
0700
0e00
1c00
1c00
1f00
1f00
0e00
0000
0000
0000
0000
0000
0000
0000
0000
0000
0000
0000
0000
0000
ENDCHAR
STARTCHAR U+0313
ENCODING 787
SWIDTH 500 0
DWIDTH 12 0
BBX 12 24 0 -2
BITMAP 
0000
0000
0000
1e00
1e00
0600
0e00
1c00
0000
0000
0000
0000
0000
0000
0000
0000
0000
0000
0000
0000
0000
0000
0000
0000
ENDCHAR
STARTCHAR U+0314
ENCODING 788
SWIDTH 500 0
DWIDTH 12 0
BBX 12 24 0 -2
BITMAP 
0000
0000
0000
1e00
1e00
1800
1c00
0e00
0000
0000
0000
0000
0000
0000
0000
0000
0000
0000
0000
0000
0000
0000
0000
0000
ENDCHAR
STARTCHAR U+0315
ENCODING 789
SWIDTH 500 0
DWIDTH 12 0
BBX 12 24 0 -2
BITMAP 
0000
0000
0000
0000
00e0
01f0
01f0
0070
0070
00e0
01c0
0000
0000
0000
0000
0000
0000
0000
0000
0000
0000
0000
0000
0000
ENDCHAR
STARTCHAR U+0316
ENCODING 790
SWIDTH 500 0
DWIDTH 12 0
BBX 12 24 0 -2
BITMAP 
0000
0000
0000
0000
0000
0000
0000
0000
0000
0000
0000
0000
0000
0000
0000
0000
0000
0000
0000
0000
1c00
1e00
0700
0000
ENDCHAR
STARTCHAR U+0317
ENCODING 791
SWIDTH 500 0
DWIDTH 12 0
BBX 12 24 0 -2
BITMAP 
0000
0000
0000
0000
0000
0000
0000
0000
0000
0000
0000
0000
0000
0000
0000
0000
0000
0000
0000
0000
0700
0f00
1c00
0000
ENDCHAR
STARTCHAR U+0318
ENCODING 792
SWIDTH 500 0
DWIDTH 12 0
BBX 12 24 0 -2
BITMAP 
0000
0000
0000
0000
0000
0000
0000
0000
0000
0000
0000
0000
0000
0000
0000
0000
0000
0380
0380
3f80
3f80
0380
0380
0000
ENDCHAR
STARTCHAR U+0319
ENCODING 793
SWIDTH 500 0
DWIDTH 12 0
BBX 12 24 0 -2
BITMAP 
0000
0000
0000
0000
0000
0000
0000
0000
0000
0000
0000
0000
0000
0000
0000
0000
0000
3800
3800
3f80
3f80
3800
3800
0000
ENDCHAR
STARTCHAR U+031A
ENCODING 794
SWIDTH 500 0
DWIDTH 12 0
BBX 12 24 0 -2
BITMAP 
0000
7fc0
7fc0
01c0
01c0
01c0
0000
0000
0000
0000
0000
0000
0000
0000
0000
0000
0000
0000
0000
0000
0000
0000
0000
0000
ENDCHAR
STARTCHAR U+031B
ENCODING 795
SWIDTH 500 0
DWIDTH 12 0
BBX 12 24 0 -2
BITMAP 
0000
0000
0000
00e0
00e0
03e0
01c0
0000
0000
0000
0000
0000
0000
0000
0000
0000
0000
0000
0000
0000
0000
0000
0000
0000
ENDCHAR
STARTCHAR U+031C
ENCODING 796
SWIDTH 500 0
DWIDTH 12 0
BBX 12 24 0 -2
BITMAP 
0000
0000
0000
0000
0000
0000
0000
0000
0000
0000
0000
0000
0000
0000
0000
0000
0000
0000
0000
1e00
3800
3800
1e00
0000
ENDCHAR
STARTCHAR U+031D
ENCODING 797
SWIDTH 500 0
DWIDTH 12 0
BBX 12 24 0 -2
BITMAP 
0000
0000
0000
0000
0000
0000
0000
0000
0000
0000
0000
0000
0000
0000
0000
0000
0000
0e00
0e00
0e00
0e00
3f80
3f80
0000
ENDCHAR
STARTCHAR U+031E
ENCODING 798
SWIDTH 500 0
DWIDTH 12 0
BBX 12 24 0 -2
BITMAP 
0000
0000
0000
0000
0000
0000
0000
0000
0000
0000
0000
0000
0000
0000
0000
0000
0000
3f80
3f80
0e00
0e00
0e00
0e00
0000
ENDCHAR
STARTCHAR U+031F
ENCODING 799
SWIDTH 500 0
DWIDTH 12 0
BBX 12 24 0 -2
BITMAP 
0000
0000
0000
0000
0000
0000
0000
0000
0000
0000
0000
0000
0000
0000
0000
0000
0000
0e00
0e00
3f80
3f80
0e00
0e00
0000
ENDCHAR
STARTCHAR U+0320
ENCODING 800
SWIDTH 500 0
DWIDTH 12 0
BBX 12 24 0 -2
BITMAP 
0000
0000
0000
0000
0000
0000
0000
0000
0000
0000
0000
0000
0000
0000
0000
0000
0000
0000
0000
0000
0000
3f80
3f80
0000
ENDCHAR
STARTCHAR U+0321
ENCODING 801
SWIDTH 500 0
DWIDTH 12 0
BBX 12 24 0 -2
BITMAP 
0000
0000
0000
0000
0000
0000
0000
0000
0000
0000
0000
0000
0000
0000
0000
0000
00e0
00e0
00e0
00e0
0760
03e0
01c0
0000
ENDCHAR
STARTCHAR U+0322
ENCODING 802
SWIDTH 500 0
DWIDTH 12 0
BBX 12 24 0 -2
BITMAP 
0000
0000
0000
0000
0000
0000
0000
0000
0000
0000
0000
0000
0000
0000
0000
0000
0380
0380
0380
0380
0380
03f0
01e0
0000
ENDCHAR
STARTCHAR U+0323
ENCODING 803
SWIDTH 500 0
DWIDTH 12 0
BBX 12 24 0 -2
BITMAP 
0000
0000
0000
0000
0000
0000
0000
0000
0000
0000
0000
0000
0000
0000
0000
0000
0000
0000
0000
0000
0000
0e00
0e00
0000
ENDCHAR
STARTCHAR U+0324
ENCODING 804
SWIDTH 500 0
DWIDTH 12 0
BBX 12 24 0 -2
BITMAP 
0000
0000
0000
0000
0000
0000
0000
0000
0000
0000
0000
0000
0000
0000
0000
0000
0000
0000
0000
0000
0000
39c0
39c0
0000
ENDCHAR
STARTCHAR U+0325
ENCODING 805
SWIDTH 500 0
DWIDTH 12 0
BBX 12 24 0 -2
BITMAP 
0000
0000
0000
0000
0000
0000
0000
0000
0000
0000
0000
0000
0000
0000
0000
0000
0000
0000
0000
0f00
1d80
1d80
0f00
0000
ENDCHAR
STARTCHAR U+0326
ENCODING 806
SWIDTH 500 0
DWIDTH 12 0
BBX 12 24 0 -2
BITMAP 
0000
0000
0000
0000
0000
0000
0000
0000
0000
0000
0000
0000
0000
0000
0000
0000
0000
0000
1e00
1e00
0600
0e00
1c00
0000
ENDCHAR
STARTCHAR U+0327
ENCODING 807
SWIDTH 500 0
DWIDTH 12 0
BBX 12 24 0 -2
BITMAP 
0000
0000
0000
0000
0000
0000
0000
0000
0000
0000
0000
0000
0000
0000
0000
0000
0000
0000
0e00
0e00
0f00
0380
1f80
1f00
ENDCHAR
STARTCHAR U+0328
ENCODING 808
SWIDTH 500 0
DWIDTH 12 0
BBX 12 24 0 -2
BITMAP 
0000
0000
0000
0000
0000
0000
0000
0000
0000
0000
0000
0000
0000
0000
0000
0000
0000
0000
0380
0700
0700
07e0
03c0
0000
ENDCHAR
STARTCHAR U+0329
ENCODING 809
SWIDTH 500 0
DWIDTH 12 0
BBX 12 24 0 -2
BITMAP 
0000
0000
0000
0000
0000
0000
0000
0000
0000
0000
0000
0000
0000
0000
0000
0000
0000
0000
0000
0e00
0e00
0e00
0e00
0000
ENDCHAR
STARTCHAR U+032A
ENCODING 810
SWIDTH 500 0
DWIDTH 12 0
BBX 12 24 0 -2
BITMAP 
0000
0000
0000
0000
0000
0000
0000
0000
0000
0000
0000
0000
0000
0000
0000
0000
0000
0000
0000
7fc0
7fc0
71c0
71c0
0000
ENDCHAR
STARTCHAR U+032B
ENCODING 811
SWIDTH 500 0
DWIDTH 12 0
BBX 12 24 0 -2
BITMAP 
0000
0000
0000
0000
0000
0000
0000
0000
0000
0000
0000
0000
0000
0000
0000
0000
0000
0000
eee0
eee0
eee0
7fc0
3b80
0000
ENDCHAR
STARTCHAR U+032C
ENCODING 812
SWIDTH 500 0
DWIDTH 12 0
BBX 12 24 0 -2
BITMAP 
0000
0000
0000
0000
0000
0000
0000
0000
0000
0000
0000
0000
0000
0000
0000
0000
0000
0000
70e0
39c0
1d80
0f00
0600
0000
ENDCHAR
STARTCHAR U+032D
ENCODING 813
SWIDTH 500 0
DWIDTH 12 0
BBX 12 24 0 -2
BITMAP 
0000
0000
0000
0000
0000
0000
0000
0000
0000
0000
0000
0000
0000
0000
0000
0000
0000
0000
0600
0f00
1d80
39c0
70e0
0000
ENDCHAR
STARTCHAR U+032E
ENCODING 814
SWIDTH 500 0
DWIDTH 12 0
BBX 12 24 0 -2
BITMAP 
0000
0000
0000
0000
0000
0000
0000
0000
0000
0000
0000
0000
0000
0000
0000
0000
0000
0000
0000
0000
39c0
39c0
1f80
0000
ENDCHAR
STARTCHAR U+032F
ENCODING 815
SWIDTH 500 0
DWIDTH 12 0
BBX 12 24 0 -2
BITMAP 
0000
0000
0000
0000
0000
0000
0000
0000
0000
0000
0000
0000
0000
0000
0000
0000
0000
0000
0000
0000
1f80
39c0
39c0
0000
ENDCHAR
STARTCHAR U+0330
ENCODING 816
SWIDTH 500 0
DWIDTH 12 0
BBX 12 24 0 -2
BITMAP 
0000
0000
0000
0000
0000
0000
0000
0000
0000
0000
0000
0000
0000
0000
0000
0000
0000
0000
0000
0000
0000
3c60
76e0
67c0
ENDCHAR
STARTCHAR U+0331
ENCODING 817
SWIDTH 500 0
DWIDTH 12 0
BBX 12 24 0 -2
BITMAP 
0000
0000
0000
0000
0000
0000
0000
0000
0000
0000
0000
0000
0000
0000
0000
0000
0000
0000
0000
0000
0000
7fc0
7fc0
0000
ENDCHAR
STARTCHAR U+0332
ENCODING 818
SWIDTH 500 0
DWIDTH 12 0
BBX 12 24 0 -2
BITMAP 
0000
0000
0000
0000
0000
0000
0000
0000
0000
0000
0000
0000
0000
0000
0000
0000
0000
0000
0000
0000
fff0
fff0
0000
0000
ENDCHAR
STARTCHAR U+0333
ENCODING 819
SWIDTH 500 0
DWIDTH 12 0
BBX 12 24 0 -2
BITMAP 
0000
0000
0000
0000
0000
0000
0000
0000
0000
0000
0000
0000
0000
0000
0000
0000
0000
0000
7fe0
7fe0
0000
7fe0
7fe0
0000
ENDCHAR
STARTCHAR U+0334
ENCODING 820
SWIDTH 500 0
DWIDTH 12 0
BBX 12 24 0 -2
BITMAP 
0000
0000
0000
0000
0000
0000
0000
0000
0000
0000
7c60
ee60
cf60
c7c0
0000
0000
0000
0000
0000
0000
0000
0000
0000
0000
ENDCHAR
STARTCHAR U+0335
ENCODING 821
SWIDTH 500 0
DWIDTH 12 0
BBX 12 24 0 -2
BITMAP 
0000
0000
0000
0000
0000
0000
0000
0000
0000
0000
0000
7fc0
7fc0
0000
0000
0000
0000
0000
0000
0000
0000
0000
0000
0000
ENDCHAR
STARTCHAR U+0336
ENCODING 822
SWIDTH 500 0
DWIDTH 12 0
BBX 12 24 0 -2
BITMAP 
0000
0000
0000
0000
0000
0000
0000
0000
0000
0000
0000
fff0
fff0
0000
0000
0000
0000
0000
0000
0000
0000
0000
0000
0000
ENDCHAR
STARTCHAR U+0337
ENCODING 823
SWIDTH 500 0
DWIDTH 12 0
BBX 12 24 0 -2
BITMAP 
0000
0000
0000
0000
0000
0000
0000
0000
00c0
01c0
0380
0700
0e00
1c00
3800
7000
6000
0000
0000
0000
0000
0000
0000
0000
ENDCHAR
STARTCHAR U+0338
ENCODING 824
SWIDTH 500 0
DWIDTH 12 0
BBX 12 24 0 -2
BITMAP 
0000
0000
0000
0000
00c0
00c0
01c0
0180
0380
0300
0700
0600
0e00
0c00
1c00
1800
3800
3000
7000
6000
6000
0000
0000
0000
ENDCHAR
STARTCHAR U+0339
ENCODING 825
SWIDTH 500 0
DWIDTH 12 0
BBX 12 24 0 -2
BITMAP 
0000
0000
0000
0000
0000
0000
0000
0000
0000
0000
0000
0000
0000
0000
0000
0000
0000
0000
0000
0f00
0380
0380
0f00
0000
ENDCHAR
STARTCHAR U+033A
ENCODING 826
SWIDTH 500 0
DWIDTH 12 0
BBX 12 24 0 -2
BITMAP 
0000
0000
0000
0000
0000
0000
0000
0000
0000
0000
0000
0000
0000
0000
0000
0000
0000
0000
0000
71c0
71c0
7fc0
7fc0
0000
ENDCHAR
STARTCHAR U+033B
ENCODING 827
SWIDTH 500 0
DWIDTH 12 0
BBX 12 24 0 -2
BITMAP 
0000
0000
0000
0000
0000
0000
0000
0000
0000
0000
0000
0000
0000
0000
0000
0000
0000
0000
0000
1f00
1b00
1b00
1f00
0000
ENDCHAR
STARTCHAR U+033C
ENCODING 828
SWIDTH 500 0
DWIDTH 12 0
BBX 12 24 0 -2
BITMAP 
0000
0000
0000
0000
0000
0000
0000
0000
0000
0000
0000
0000
0000
0000
0000
0000
0000
0000
0000
3b80
ffe0
ce60
0e00
0000
ENDCHAR
STARTCHAR U+033D
ENCODING 829
SWIDTH 500 0
DWIDTH 12 0
BBX 12 24 0 -2
BITMAP 
60c0
3b80
0e00
3b80
60c0
0000
0000
0000
0000
0000
0000
0000
0000
0000
0000
0000
0000
0000
0000
0000
0000
0000
0000
0000
ENDCHAR
STARTCHAR U+033E
ENCODING 830
SWIDTH 500 0
DWIDTH 12 0
BBX 12 24 0 -2
BITMAP 
0e00
1c00
1c00
0e00
0e00
1c00
0000
0000
0000
0000
0000
0000
0000
0000
0000
0000
0000
0000
0000
0000
0000
0000
0000
0000
ENDCHAR
STARTCHAR U+033F
ENCODING 831
SWIDTH 500 0
DWIDTH 12 0
BBX 12 24 0 -2
BITMAP 
0000
ffe0
ffe0
0000
ffe0
ffe0
0000
0000
0000
0000
0000
0000
0000
0000
0000
0000
0000
0000
0000
0000
0000
0000
0000
0000
ENDCHAR
STARTCHAR U+0340
ENCODING 832
SWIDTH 500 0
DWIDTH 12 0
BBX 12 24 0 -2
BITMAP 
0000
1c00
1e00
0700
0000
0000
0000
0000
0000
0000
0000
0000
0000
0000
0000
0000
0000
0000
0000
0000
0000
0000
0000
0000
ENDCHAR
STARTCHAR U+0341
ENCODING 833
SWIDTH 500 0
DWIDTH 12 0
BBX 12 24 0 -2
BITMAP 
0000
0700
0f00
1c00
0000
0000
0000
0000
0000
0000
0000
0000
0000
0000
0000
0000
0000
0000
0000
0000
0000
0000
0000
0000
ENDCHAR
STARTCHAR U+0342
ENCODING 834
SWIDTH 500 0
DWIDTH 12 0
BBX 12 24 0 -2
BITMAP 
3d80
3780
0000
0000
0000
0000
0000
0000
0000
0000
0000
0000
0000
0000
0000
0000
0000
0000
0000
0000
0000
0000
0000
0000
ENDCHAR
STARTCHAR U+0343
ENCODING 835
SWIDTH 500 0
DWIDTH 12 0
BBX 12 24 0 -2
BITMAP 
0000
0000
0000
1e00
1e00
0600
0e00
1c00
0000
0000
0000
0000
0000
0000
0000
0000
0000
0000
0000
0000
0000
0000
0000
0000
ENDCHAR
STARTCHAR U+0344
ENCODING 836
SWIDTH 500 0
DWIDTH 12 0
BBX 12 24 0 -2
BITMAP 
0000
0c00
6d80
f5c0
6d80
0c00
0000
0000
0000
0000
0000
0000
0000
0000
0000
0000
0000
0000
0000
0000
0000
0000
0000
0000
ENDCHAR
STARTCHAR U+0345
ENCODING 837
SWIDTH 500 0
DWIDTH 12 0
BBX 12 24 0 -2
BITMAP 
0000
0000
0000
0000
0000
0000
0000
0000
0000
0000
0000
0000
0000
0000
0000
0000
0000
0000
0000
0000
1c00
1c00
1c00
0f00
ENDCHAR
STARTCHAR U+0346
ENCODING 838
SWIDTH 500 0
DWIDTH 12 0
BBX 12 24 0 -2
BITMAP 
0000
3f80
3f80
3b80
3b80
0000
0000
0000
0000
0000
0000
0000
0000
0000
0000
0000
0000
0000
0000
0000
0000
0000
0000
0000
ENDCHAR
STARTCHAR U+0347
ENCODING 839
SWIDTH 500 0
DWIDTH 12 0
BBX 12 24 0 -2
BITMAP 
0000
0000
0000
0000
0000
0000
0000
0000
0000
0000
0000
0000
0000
0000
0000
0000
0000
0000
3f80
3f80
0000
3f80
3f80
0000
ENDCHAR
STARTCHAR U+0348
ENCODING 840
SWIDTH 500 0
DWIDTH 12 0
BBX 12 24 0 -2
BITMAP 
0000
0000
0000
0000
0000
0000
0000
0000
0000
0000
0000
0000
0000
0000
0000
0000
0000
0000
3b80
3b80
3b80
3b80
3b80
0000
ENDCHAR
STARTCHAR U+0349
ENCODING 841
SWIDTH 500 0
DWIDTH 12 0
BBX 12 24 0 -2
BITMAP 
0000
0000
0000
0000
0000
0000
0000
0000
0000
0000
0000
0000
0000
0000
0000
0000
0000
0000
0000
3f80
3f80
0380
0380
0000
ENDCHAR
STARTCHAR U+034A
ENCODING 842
SWIDTH 500 0
DWIDTH 12 0
BBX 12 24 0 -2
BITMAP 
0000
0300
3ec0
76c0
6f80
1800
0000
0000
0000
0000
0000
0000
0000
0000
0000
0000
0000
0000
0000
0000
0000
0000
0000
0000
ENDCHAR
STARTCHAR U+034B
ENCODING 843
SWIDTH 500 0
DWIDTH 12 0
BBX 12 24 0 -2
BITMAP 
0700
0700
7c60
eee0
c7c0
1c00
1c00
0000
0000
0000
0000
0000
0000
0000
0000
0000
0000
0000
0000
0000
0000
0000
0000
0000
ENDCHAR
STARTCHAR U+034C
ENCODING 844
SWIDTH 500 0
DWIDTH 12 0
BBX 12 24 0 -2
BITMAP 
0000
3c00
66c0
3d80
66c0
0380
0000
0000
0000
0000
0000
0000
0000
0000
0000
0000
0000
0000
0000
0000
0000
0000
0000
0000
ENDCHAR
STARTCHAR U+034D
ENCODING 845
SWIDTH 500 0
DWIDTH 12 0
BBX 12 24 0 -2
BITMAP 
0000
0000
0000
0000
0000
0000
0000
0000
0000
0000
0000
0000
0000
0000
0000
0000
0000
3180
60c0
ffe0
ffe0
60c0
3180
0000
ENDCHAR
STARTCHAR U+034E
ENCODING 846
SWIDTH 500 0
DWIDTH 12 0
BBX 12 24 0 -2
BITMAP 
0000
0000
0000
0000
0000
0000
0000
0000
0000
0000
0000
0000
0000
0000
0000
0000
0000
0e00
1f00
3f80
3680
0e00
0e00
0000
ENDCHAR
STARTCHAR U+0374
ENCODING 884
SWIDTH 500 0
DWIDTH 12 0
BBX 12 24 0 -2
BITMAP 
0000
0000
0000
0000
0000
0f00
0f00
1e00
1c00
3800
3000
0000
0000
0000
0000
0000
0000
0000
0000
0000
0000
0000
0000
0000
ENDCHAR
STARTCHAR U+0375
ENCODING 885
SWIDTH 500 0
DWIDTH 12 0
BBX 12 24 0 -2
BITMAP 
0000
0000
0000
0000
0000
0000
0000
0000
0000
0000
0000
0000
0000
0000
0000
0000
0000
0f00
0f00
1e00
1c00
3800
3000
0000
ENDCHAR
STARTCHAR U+037A
ENCODING 890
SWIDTH 500 0
DWIDTH 12 0
BBX 12 24 0 -2
BITMAP 
0000
0000
0000
0000
0000
0000
0000
0000
0000
0000
0000
0000
0000
0000
0000
0000
0000
0000
0000
0000
1c00
1c00
1c00
0f00
ENDCHAR
STARTCHAR U+037E
ENCODING 894
SWIDTH 500 0
DWIDTH 12 0
BBX 12 24 0 -2
BITMAP 
0000
0000
0000
0000
0000
0000
0000
0000
0000
0000
0000
0e00
0e00
0000
0000
0000
0000
0000
1c00
1e00
0e00
0600
0e00
0c00
ENDCHAR
STARTCHAR U+0384
ENCODING 900
SWIDTH 500 0
DWIDTH 12 0
BBX 12 24 0 -2
BITMAP 
0e00
0e00
0e00
0e00
0000
0000
0000
0000
0000
0000
0000
0000
0000
0000
0000
0000
0000
0000
0000
0000
0000
0000
0000
0000
ENDCHAR
STARTCHAR U+0385
ENCODING 901
SWIDTH 500 0
DWIDTH 12 0
BBX 12 24 0 -2
BITMAP 
0e00
0e00
0e00
0e00
0000
0000
3b80
3b80
0000
0000
0000
0000
0000
0000
0000
0000
0000
0000
0000
0000
0000
0000
0000
0000
ENDCHAR
STARTCHAR U+0386
ENCODING 902
SWIDTH 500 0
DWIDTH 12 0
BBX 12 24 0 -2
BITMAP 
e000
e000
e000
e000
0000
0f00
0f00
0f00
1d80
1d80
1d80
39c0
39c0
3fc0
3fc0
70e0
70e0
70e0
70e0
0000
0000
0000
0000
0000
ENDCHAR
STARTCHAR U+0387
ENCODING 903
SWIDTH 500 0
DWIDTH 12 0
BBX 12 24 0 -2
BITMAP 
0000
0000
0000
0000
0000
0000
0000
0000
0000
0000
0000
0c00
1e00
0c00
0000
0000
0000
0000
0000
0000
0000
0000
0000
0000
ENDCHAR
STARTCHAR U+0388
ENCODING 904
SWIDTH 500 0
DWIDTH 12 0
BBX 12 24 0 -2
BITMAP 
e000
e000
e000
e000
0000
7fe0
7fe0
7000
7000
7000
7000
7f80
7f80
7000
7000
7000
7000
7fe0
7fe0
0000
0000
0000
0000
0000
ENDCHAR
STARTCHAR U+0389
ENCODING 905
SWIDTH 500 0
DWIDTH 12 0
BBX 12 24 0 -2
BITMAP 
e000
e000
e000
e000
0000
70e0
70e0
70e0
70e0
70e0
70e0
7fe0
7fe0
70e0
70e0
70e0
70e0
70e0
70e0
0000
0000
0000
0000
0000
ENDCHAR
STARTCHAR U+038A
ENCODING 906
SWIDTH 500 0
DWIDTH 12 0
BBX 12 24 0 -2
BITMAP 
e000
e000
e000
e000
0000
3f80
3f80
0e00
0e00
0e00
0e00
0e00
0e00
0e00
0e00
0e00
0e00
3f80
3f80
0000
0000
0000
0000
0000
ENDCHAR
STARTCHAR U+038C
ENCODING 908
SWIDTH 500 0
DWIDTH 12 0
BBX 12 24 0 -2
BITMAP 
e000
e000
e000
e000
0000
1f80
3fc0
79e0
70e0
70e0
70e0
70e0
70e0
70e0
70e0
70e0
79e0
3fc0
1f80
0000
0000
0000
0000
0000
ENDCHAR
STARTCHAR U+038E
ENCODING 910
SWIDTH 500 0
DWIDTH 12 0
BBX 12 24 0 -2
BITMAP 
e000
e000
e000
e000
0000
e0e0
e0e0
71c0
71c0
3b80
3f80
1f00
0e00
0e00
0e00
0e00
0e00
0e00
0e00
0000
0000
0000
0000
0000
ENDCHAR
STARTCHAR U+038F
ENCODING 911
SWIDTH 500 0
DWIDTH 12 0
BBX 12 24 0 -2
BITMAP 
e000
e000
e000
e000
0000
1f80
3fc0
79e0
70e0
70e0
70e0
70e0
70e0
70e0
79e0
39c0
1d80
1d80
7de0
7de0
0000
0000
0000
0000
ENDCHAR
STARTCHAR U+0390
ENCODING 912
SWIDTH 500 0
DWIDTH 12 0
BBX 12 24 0 -2
BITMAP 
0e00
0e00
0e00
0e00
0000
0000
3b80
3b80
0000
0e00
0e00
0e00
0e00
0e00
0e00
0e00
0e00
0f80
0780
0000
0000
0000
0000
0000
ENDCHAR
STARTCHAR U+0391
ENCODING 913
SWIDTH 500 0
DWIDTH 12 0
BBX 12 24 0 -2
BITMAP 
0000
0000
0000
0000
0000
0f00
0f00
0f00
1d80
1d80
1d80
39c0
39c0
3fc0
3fc0
70e0
70e0
70e0
70e0
0000
0000
0000
0000
0000
ENDCHAR
STARTCHAR U+0392
ENCODING 914
SWIDTH 500 0
DWIDTH 12 0
BBX 12 24 0 -2
BITMAP 
0000
0000
0000
0000
0000
7f00
7f80
73c0
71c0
71c0
7380
7f80
7fc0
71c0
70e0
70e0
71e0
7fc0
7f80
0000
0000
0000
0000
0000
ENDCHAR
STARTCHAR U+0393
ENCODING 915
SWIDTH 500 0
DWIDTH 12 0
BBX 12 24 0 -2
BITMAP 
0000
0000
0000
0000
0000
7fe0
7fe0
7000
7000
7000
7000
7000
7000
7000
7000
7000
7000
7000
7000
0000
0000
0000
0000
0000
ENDCHAR
STARTCHAR U+0394
ENCODING 916
SWIDTH 500 0
DWIDTH 12 0
BBX 12 24 0 -2
BITMAP 
0000
0000
0000
0000
0000
0f00
0f00
0f00
1d80
1d80
1d80
39c0
39c0
39c0
70e0
70e0
70e0
7fe0
7fe0
0000
0000
0000
0000
0000
ENDCHAR
STARTCHAR U+0395
ENCODING 917
SWIDTH 500 0
DWIDTH 12 0
BBX 12 24 0 -2
BITMAP 
0000
0000
0000
0000
0000
7fe0
7fe0
7000
7000
7000
7000
7f80
7f80
7000
7000
7000
7000
7fe0
7fe0
0000
0000
0000
0000
0000
ENDCHAR
STARTCHAR U+0396
ENCODING 918
SWIDTH 500 0
DWIDTH 12 0
BBX 12 24 0 -2
BITMAP 
0000
0000
0000
0000
0000
ffe0
ffe0
00e0
01e0
03c0
0780
0f00
1e00
3c00
7800
f000
e000
ffe0
ffe0
0000
0000
0000
0000
0000
ENDCHAR
STARTCHAR U+0397
ENCODING 919
SWIDTH 500 0
DWIDTH 12 0
BBX 12 24 0 -2
BITMAP 
0000
0000
0000
0000
0000
70e0
70e0
70e0
70e0
70e0
70e0
7fe0
7fe0
70e0
70e0
70e0
70e0
70e0
70e0
0000
0000
0000
0000
0000
ENDCHAR
STARTCHAR U+0398
ENCODING 920
SWIDTH 500 0
DWIDTH 12 0
BBX 12 24 0 -2
BITMAP 
0000
0000
0000
0000
0000
1f80
3fc0
79e0
70e0
70e0
70e0
7760
7760
70e0
70e0
70e0
79e0
3fc0
1f80
0000
0000
0000
0000
0000
ENDCHAR
STARTCHAR U+0399
ENCODING 921
SWIDTH 500 0
DWIDTH 12 0
BBX 12 24 0 -2
BITMAP 
0000
0000
0000
0000
0000
3f80
3f80
0e00
0e00
0e00
0e00
0e00
0e00
0e00
0e00
0e00
0e00
3f80
3f80
0000
0000
0000
0000
0000
ENDCHAR
STARTCHAR U+039A
ENCODING 922
SWIDTH 500 0
DWIDTH 12 0
BBX 12 24 0 -2
BITMAP 
0000
0000
0000
0000
0000
70e0
71c0
7380
7700
7600
7c00
7800
7c00
7600
7700
7380
71c0
70e0
7060
0000
0000
0000
0000
0000
ENDCHAR
STARTCHAR U+039B
ENCODING 923
SWIDTH 500 0
DWIDTH 12 0
BBX 12 24 0 -2
BITMAP 
0000
0000
0000
0000
0000
0f00
0f00
0f00
1d80
1d80
1d80
39c0
39c0
39c0
39c0
70e0
70e0
70e0
70e0
0000
0000
0000
0000
0000
ENDCHAR
STARTCHAR U+039C
ENCODING 924
SWIDTH 500 0
DWIDTH 12 0
BBX 12 24 0 -2
BITMAP 
0000
0000
0000
0000
0000
70e0
79e0
79e0
7de0
7fe0
7760
7760
76e0
70e0
70e0
70e0
70e0
70e0
70e0
0000
0000
0000
0000
0000
ENDCHAR
STARTCHAR U+039D
ENCODING 925
SWIDTH 500 0
DWIDTH 12 0
BBX 12 24 0 -2
BITMAP 
0000
0000
0000
0000
0000
70e0
78e0
78e0
7ce0
7ce0
76e0
76e0
7760
7760
73e0
73e0
71e0
71e0
70e0
0000
0000
0000
0000
0000
ENDCHAR
STARTCHAR U+039E
ENCODING 926
SWIDTH 500 0
DWIDTH 12 0
BBX 12 24 0 -2
BITMAP 
0000
0000
0000
0000
0000
7fe0
7fe0
0000
0000
0000
0000
3fc0
3fc0
0000
0000
0000
0000
7fe0
7fe0
0000
0000
0000
0000
0000
ENDCHAR
STARTCHAR U+039F
ENCODING 927
SWIDTH 500 0
DWIDTH 12 0
BBX 12 24 0 -2
BITMAP 
0000
0000
0000
0000
0000
1f80
3fc0
78e0
70e0
70e0
70e0
70e0
70e0
70e0
70e0
70e0
79e0
3fc0
1f80
0000
0000
0000
0000
0000
ENDCHAR
STARTCHAR U+03A0
ENCODING 928
SWIDTH 500 0
DWIDTH 12 0
BBX 12 24 0 -2
BITMAP 
0000
0000
0000
0000
0000
ffe0
ffe0
71c0
71c0
71c0
71c0
71c0
71c0
71c0
71c0
71c0
71c0
71c0
71c0
0000
0000
0000
0000
0000
ENDCHAR
STARTCHAR U+03A1
ENCODING 929
SWIDTH 500 0
DWIDTH 12 0
BBX 12 24 0 -2
BITMAP 
0000
0000
0000
0000
0000
7f80
7fc0
71e0
70e0
70e0
71e0
7fc0
7f80
7000
7000
7000
7000
7000
7000
0000
0000
0000
0000
0000
ENDCHAR
STARTCHAR U+03A3
ENCODING 931
SWIDTH 500 0
DWIDTH 12 0
BBX 12 24 0 -2
BITMAP 
0000
0000
0000
0000
0000
7fe0
7fe0
7800
3c00
1e00
0f00
0780
0780
0f00
1e00
3c00
7800
7fe0
7fe0
0000
0000
0000
0000
0000
ENDCHAR
STARTCHAR U+03A4
ENCODING 932
SWIDTH 500 0
DWIDTH 12 0
BBX 12 24 0 -2
BITMAP 
0000
0000
0000
0000
0000
ffe0
ffe0
0e00
0e00
0e00
0e00
0e00
0e00
0e00
0e00
0e00
0e00
0e00
0e00
0000
0000
0000
0000
0000
ENDCHAR
STARTCHAR U+03A5
ENCODING 933
SWIDTH 500 0
DWIDTH 12 0
BBX 12 24 0 -2
BITMAP 
0000
0000
0000
0000
0000
e0e0
e0e0
71c0
71c0
3b80
3f80
1f00
0e00
0e00
0e00
0e00
0e00
0e00
0e00
0000
0000
0000
0000
0000
ENDCHAR
STARTCHAR U+03A6
ENCODING 934
SWIDTH 500 0
DWIDTH 12 0
BBX 12 24 0 -2
BITMAP 
0000
0000
0000
0000
0000
0e00
0e00
3f80
7fc0
eee0
eee0
eee0
eee0
eee0
eee0
7fc0
3f80
0e00
0e00
0000
0000
0000
0000
0000
ENDCHAR
STARTCHAR U+03A7
ENCODING 935
SWIDTH 500 0
DWIDTH 12 0
BBX 12 24 0 -2
BITMAP 
0000
0000
0000
0000
0000
70e0
70e0
39c0
39c0
1d80
1d80
0f00
0f00
1d80
1d80
39c0
39c0
70e0
70e0
0000
0000
0000
0000
0000
ENDCHAR
STARTCHAR U+03A8
ENCODING 936
SWIDTH 500 0
DWIDTH 12 0
BBX 12 24 0 -2
BITMAP 
0000
0000
0000
0000
0000
eee0
eee0
eee0
eee0
eee0
eee0
f6e0
7fc0
3f80
0e00
0e00
0e00
0e00
0e00
0000
0000
0000
0000
0000
ENDCHAR
STARTCHAR U+03A9
ENCODING 937
SWIDTH 500 0
DWIDTH 12 0
BBX 12 24 0 -2
BITMAP 
0000
0000
0000
0000
0000
1f80
3fc0
79e0
70e0
70e0
70e0
70e0
70e0
79e0
39c0
1d80
1d80
7de0
7de0
0000
0000
0000
0000
0000
ENDCHAR
STARTCHAR U+03AA
ENCODING 938
SWIDTH 500 0
DWIDTH 12 0
BBX 12 24 0 -2
BITMAP 
0000
3b80
3b80
0000
0000
3f80
3f80
0e00
0e00
0e00
0e00
0e00
0e00
0e00
0e00
0e00
0e00
3f80
3f80
0000
0000
0000
0000
0000
ENDCHAR
STARTCHAR U+03AB
ENCODING 939
SWIDTH 500 0
DWIDTH 12 0
BBX 12 24 0 -2
BITMAP 
0000
3b80
3b80
0000
0000
e0e0
e0e0
71c0
71c0
3b80
3f80
1f00
0e00
0e00
0e00
0e00
0e00
0e00
0e00
0000
0000
0000
0000
0000
ENDCHAR
STARTCHAR U+03AC
ENCODING 940
SWIDTH 500 0
DWIDTH 12 0
BBX 12 24 0 -2
BITMAP 
0000
0000
0000
0e00
0e00
0e00
0e00
0000
0000
3ce0
7ee0
e740
e3c0
e380
e380
e3c0
e740
7ee0
3ce0
0000
0000
0000
0000
0000
ENDCHAR
STARTCHAR U+03AD
ENCODING 941
SWIDTH 500 0
DWIDTH 12 0
BBX 12 24 0 -2
BITMAP 
0000
0000
0000
0e00
0e00
0e00
0e00
0000
0000
1f80
3fc0
7000
7000
7f80
7f80
7000
7000
3fc0
1f80
0000
0000
0000
0000
0000
ENDCHAR
STARTCHAR U+03AE
ENCODING 942
SWIDTH 500 0
DWIDTH 12 0
BBX 12 24 0 -2
BITMAP 
0000
0000
0000
0e00
0e00
0e00
0e00
0000
0000
7780
77c0
7ce0
78e0
70e0
70e0
70e0
70e0
70e0
70e0
00e0
00e0
00e0
00e0
00e0
ENDCHAR
STARTCHAR U+03AF
ENCODING 943
SWIDTH 500 0
DWIDTH 12 0
BBX 12 24 0 -2
BITMAP 
0000
0000
0000
0e00
0e00
0e00
0e00
0000
0000
0e00
0e00
0e00
0e00
0e00
0e00
0e00
0e00
0f80
0780
0000
0000
0000
0000
0000
ENDCHAR
STARTCHAR U+03B0
ENCODING 944
SWIDTH 500 0
DWIDTH 12 0
BBX 12 24 0 -2
BITMAP 
0e00
0e00
0e00
0e00
0000
39c0
39c0
0000
0000
70e0
70e0
70e0
70e0
70e0
70e0
70e0
79e0
3fc0
1f80
0000
0000
0000
0000
0000
ENDCHAR
STARTCHAR U+03B1
ENCODING 945
SWIDTH 500 0
DWIDTH 12 0
BBX 12 24 0 -2
BITMAP 
0000
0000
0000
0000
0000
0000
0000
0000
0000
3ce0
7ee0
e740
e3c0
e380
e380
e3c0
e740
7ee0
3ce0
0000
0000
0000
0000
0000
ENDCHAR
STARTCHAR U+03B2
ENCODING 946
SWIDTH 500 0
DWIDTH 12 0
BBX 12 24 0 -2
BITMAP 
0000
0000
0000
0000
0000
1e00
3f80
7bc0
71c0
71c0
71c0
7f80
7fc0
70e0
70e0
70e0
71e0
7fc0
7f80
7000
7000
7000
7000
0000
ENDCHAR
STARTCHAR U+03B3
ENCODING 947
SWIDTH 500 0
DWIDTH 12 0
BBX 12 24 0 -2
BITMAP 
0000
0000
0000
0000
0000
0000
0000
0000
0000
3ce0
7ce0
76c0
0ec0
0780
0780
0700
0700
0e00
0e00
1c00
1c00
0000
0000
0000
ENDCHAR
STARTCHAR U+03B4
ENCODING 948
SWIDTH 500 0
DWIDTH 12 0
BBX 12 24 0 -2
BITMAP 
0000
0000
0000
0000
0000
1f80
3f80
3800
3800
1c00
1f80
3fc0
79e0
70e0
70e0
70e0
79e0
3fc0
1f80
0000
0000
0000
0000
0000
ENDCHAR
STARTCHAR U+03B5
ENCODING 949
SWIDTH 500 0
DWIDTH 12 0
BBX 12 24 0 -2
BITMAP 
0000
0000
0000
0000
0000
0000
0000
0000
0000
1f80
3fc0
7800
7000
7f80
7f80
7000
7800
3fc0
1f80
0000
0000
0000
0000
0000
ENDCHAR
STARTCHAR U+03B6
ENCODING 950
SWIDTH 500 0
DWIDTH 12 0
BBX 12 24 0 -2
BITMAP 
0000
0000
0000
0000
0000
3f80
3f80
0f00
0e00
1e00
1c00
3c00
3800
3800
7000
7000
7000
7f80
3fc0
00e0
00e0
00e0
0fc0
0f80
ENDCHAR
STARTCHAR U+03B7
ENCODING 951
SWIDTH 500 0
DWIDTH 12 0
BBX 12 24 0 -2
BITMAP 
0000
0000
0000
0000
0000
0000
0000
0000
0000
7780
77c0
7ce0
78e0
70e0
70e0
70e0
70e0
70e0
70e0
00e0
00e0
00e0
00e0
00e0
ENDCHAR
STARTCHAR U+03B8
ENCODING 952
SWIDTH 500 0
DWIDTH 12 0
BBX 12 24 0 -2
BITMAP 
0000
0000
0000
0000
0000
1f00
3f80
3b80
71c0
71c0
71c0
7fc0
7fc0
71c0
71c0
71c0
3b80
3f80
1f00
0000
0000
0000
0000
0000
ENDCHAR
STARTCHAR U+03B9
ENCODING 953
SWIDTH 500 0
DWIDTH 12 0
BBX 12 24 0 -2
BITMAP 
0000
0000
0000
0000
0000
0000
0000
0000
0000
0e00
0e00
0e00
0e00
0e00
0e00
0e00
0e00
0f80
0780
0000
0000
0000
0000
0000
ENDCHAR
STARTCHAR U+03BA
ENCODING 954
SWIDTH 500 0
DWIDTH 12 0
BBX 12 24 0 -2
BITMAP 
0000
0000
0000
0000
0000
0000
0000
0000
0000
71c0
73c0
7780
7700
7e00
7e00
7700
7780
73c0
71c0
0000
0000
0000
0000
0000
ENDCHAR
STARTCHAR U+03BB
ENCODING 955
SWIDTH 500 0
DWIDTH 12 0
BBX 12 24 0 -2
BITMAP 
0000
0000
0000
0000
0000
3c00
3c00
0e00
0e00
0700
0700
0f80
0f80
1d80
1dc0
39c0
39c0
70e0
70e0
0000
0000
0000
0000
0000
ENDCHAR
STARTCHAR U+03BC
ENCODING 956
SWIDTH 500 0
DWIDTH 12 0
BBX 12 24 0 -2
BITMAP 
0000
0000
0000
0000
0000
0000
0000
0000
0000
70e0
70e0
70e0
70e0
70e0
79e0
7de0
7fe0
7760
70e0
7000
7000
7000
7000
7000
ENDCHAR
STARTCHAR U+03BD
ENCODING 957
SWIDTH 500 0
DWIDTH 12 0
BBX 12 24 0 -2
BITMAP 
0000
0000
0000
0000
0000
0000
0000
0000
0000
70e0
70e0
70e0
70e0
71e0
71c0
73c0
7780
7f00
7c00
0000
0000
0000
0000
0000
ENDCHAR
STARTCHAR U+03BE
ENCODING 958
SWIDTH 500 0
DWIDTH 12 0
BBX 12 24 0 -2
BITMAP 
0000
0000
0000
0000
0000
3800
3800
1fc0
3fc0
7000
7000
7000
3fe0
3fe0
7000
7000
7000
3f80
1fc0
00e0
00e0
00e0
1fc0
1f80
ENDCHAR
STARTCHAR U+03BF
ENCODING 959
SWIDTH 500 0
DWIDTH 12 0
BBX 12 24 0 -2
BITMAP 
0000
0000
0000
0000
0000
0000
0000
0000
0000
1f80
3fc0
79e0
70e0
70e0
70e0
70e0
79e0
3fc0
1f80
0000
0000
0000
0000
0000
ENDCHAR
STARTCHAR U+03C0
ENCODING 960
SWIDTH 500 0
DWIDTH 12 0
BBX 12 24 0 -2
BITMAP 
0000
0000
0000
0000
0000
0000
0000
0000
0000
ffe0
ffe0
3b80
3b80
3b80
3b80
3b80
3b80
3b80
3b80
0000
0000
0000
0000
0000
ENDCHAR
STARTCHAR U+03C1
ENCODING 961
SWIDTH 500 0
DWIDTH 12 0
BBX 12 24 0 -2
BITMAP 
0000
0000
0000
0000
0000
0000
0000
0000
0000
1f80
3fc0
79e0
70e0
70e0
70e0
70e0
79e0
7fc0
7780
7000
7000
7000
7000
7000
ENDCHAR
STARTCHAR U+03C2
ENCODING 962
SWIDTH 500 0
DWIDTH 12 0
BBX 12 24 0 -2
BITMAP 
0000
0000
0000
0000
0000
0000
0000
0000
0000
1fc0
3fe0
78e0
7000
7000
7000
7800
3c00
1fc0
0fe0
00e0
3fe0
3fc0
0000
0000
ENDCHAR
STARTCHAR U+03C3
ENCODING 963
SWIDTH 500 0
DWIDTH 12 0
BBX 12 24 0 -2
BITMAP 
0000
0000
0000
0000
0000
0000
0000
0000
0000
3fe0
7fe0
f700
e380
e380
e380
e380
f780
7f00
3e00
0000
0000
0000
0000
0000
ENDCHAR
STARTCHAR U+03C4
ENCODING 964
SWIDTH 500 0
DWIDTH 12 0
BBX 12 24 0 -2
BITMAP 
0000
0000
0000
0000
0000
0000
0000
0000
0000
7fc0
7fc0
0e00
0e00
0e00
0e00
0e00
0e00
0e00
0e00
0000
0000
0000
0000
0000
ENDCHAR
STARTCHAR U+03C5
ENCODING 965
SWIDTH 500 0
DWIDTH 12 0
BBX 12 24 0 -2
BITMAP 
0000
0000
0000
0000
0000
0000
0000
0000
0000
70e0
70e0
70e0
70e0
70e0
70e0
70e0
79e0
3fc0
1f80
0000
0000
0000
0000
0000
ENDCHAR
STARTCHAR U+03C6
ENCODING 966
SWIDTH 500 0
DWIDTH 12 0
BBX 12 24 0 -2
BITMAP 
0000
0000
0000
0000
0000
0000
0000
0000
0000
3f80
7fc0
f6e0
eee0
eee0
eee0
eee0
f6e0
7fc0
3f80
0e00
0e00
0e00
0e00
0e00
ENDCHAR
STARTCHAR U+03C7
ENCODING 967
SWIDTH 500 0
DWIDTH 12 0
BBX 12 24 0 -2
BITMAP 
0000
0000
0000
0000
0000
0000
0000
0000
0000
70e0
70e0
39c0
39c0
1d80
1d80
0f00
0f00
0f00
1d80
1d80
39c0
39c0
70e0
70e0
ENDCHAR
STARTCHAR U+03C8
ENCODING 968
SWIDTH 500 0
DWIDTH 12 0
BBX 12 24 0 -2
BITMAP 
0000
0000
0000
0000
0000
0000
0e00
0e00
0e00
eee0
eee0
eee0
eee0
eee0
eee0
eee0
f6e0
7fc0
3f80
0e00
0e00
0e00
0e00
0e00
ENDCHAR
STARTCHAR U+03C9
ENCODING 969
SWIDTH 500 0
DWIDTH 12 0
BBX 12 24 0 -2
BITMAP 
0000
0000
0000
0000
0000
0000
0000
0000
0000
71c0
71c0
e0e0
eee0
eee0
eee0
eee0
eee0
7fc0
3b80
0000
0000
0000
0000
0000
ENDCHAR
STARTCHAR U+03CA
ENCODING 970
SWIDTH 500 0
DWIDTH 12 0
BBX 12 24 0 -2
BITMAP 
0000
0000
0000
0000
0000
3b80
3b80
0000
0000
0e00
0e00
0e00
0e00
0e00
0e00
0e00
0e00
0f80
0780
0000
0000
0000
0000
0000
ENDCHAR
STARTCHAR U+03CB
ENCODING 971
SWIDTH 500 0
DWIDTH 12 0
BBX 12 24 0 -2
BITMAP 
0000
0000
0000
0000
0000
39c0
39c0
0000
0000
70e0
70e0
70e0
70e0
70e0
70e0
70e0
79e0
3fc0
1f80
0000
0000
0000
0000
0000
ENDCHAR
STARTCHAR U+03CC
ENCODING 972
SWIDTH 500 0
DWIDTH 12 0
BBX 12 24 0 -2
BITMAP 
0000
0000
0000
0e00
0e00
0e00
0e00
0000
0000
1f80
3fc0
79e0
70e0
70e0
70e0
70e0
79e0
3fc0
1f80
0000
0000
0000
0000
0000
ENDCHAR
STARTCHAR U+03CD
ENCODING 973
SWIDTH 500 0
DWIDTH 12 0
BBX 12 24 0 -2
BITMAP 
0000
0000
0000
0e00
0e00
0e00
0e00
0000
0000
70e0
70e0
70e0
70e0
70e0
70e0
70e0
79e0
3fc0
1f80
0000
0000
0000
0000
0000
ENDCHAR
STARTCHAR U+03CE
ENCODING 974
SWIDTH 500 0
DWIDTH 12 0
BBX 12 24 0 -2
BITMAP 
0000
0000
0000
0e00
0e00
0e00
0e00
0000
0000
71c0
71c0
e0e0
e0e0
eee0
eee0
eee0
eee0
7fc0
3b80
0000
0000
0000
0000
0000
ENDCHAR
STARTCHAR U+0401
ENCODING 1025
SWIDTH 500 0
DWIDTH 12 0
BBX 12 24 0 -2
BITMAP 
0000
39c0
39c0
0000
0000
7fe0
7fe0
7000
7000
7000
7000
7f80
7f80
7000
7000
7000
7000
7fe0
7fe0
0000
0000
0000
0000
0000
ENDCHAR
STARTCHAR U+0402
ENCODING 1026
SWIDTH 500 0
DWIDTH 12 0
BBX 12 24 0 -2
BITMAP 
0000
0000
0000
0000
0000
ffc0
ffc0
1c00
1c00
1c00
1c00
1fc0
1fe0
1ce0
1ce0
1ce0
1ce0
1fe0
1fc0
0000
0000
0000
0000
0000
ENDCHAR
STARTCHAR U+0403
ENCODING 1027
SWIDTH 500 0
DWIDTH 12 0
BBX 12 24 0 -2
BITMAP 
0700
0f00
1c00
0000
0000
7fe0
7fe0
7000
7000
7000
7000
7000
7000
7000
7000
7000
7000
7000
7000
0000
0000
0000
0000
0000
ENDCHAR
STARTCHAR U+0404
ENCODING 1028
SWIDTH 500 0
DWIDTH 12 0
BBX 12 24 0 -2
BITMAP 
0000
0000
0000
0000
0000
1f80
3fc0
79c0
70e0
7000
7000
7f80
7f80
7000
7000
70e0
79e0
3fc0
1f80
0000
0000
0000
0000
0000
ENDCHAR
STARTCHAR U+0405
ENCODING 1029
SWIDTH 500 0
DWIDTH 12 0
BBX 12 24 0 -2
BITMAP 
0000
0000
0000
0000
0000
1f80
3fc0
71e0
70e0
7000
7800
3f80
1fc0
01e0
00e0
70e0
71e0
7fc0
3f80
0000
0000
0000
0000
0000
ENDCHAR
STARTCHAR U+0406
ENCODING 1030
SWIDTH 500 0
DWIDTH 12 0
BBX 12 24 0 -2
BITMAP 
0000
0000
0000
0000
0000
3f80
3f80
0e00
0e00
0e00
0e00
0e00
0e00
0e00
0e00
0e00
0e00
3f80
3f80
0000
0000
0000
0000
0000
ENDCHAR
STARTCHAR U+0407
ENCODING 1031
SWIDTH 500 0
DWIDTH 12 0
BBX 12 24 0 -2
BITMAP 
0000
3b80
3b80
0000
0000
3f80
3f80
0e00
0e00
0e00
0e00
0e00
0e00
0e00
0e00
0e00
0e00
3f80
3f80
0000
0000
0000
0000
0000
ENDCHAR
STARTCHAR U+0408
ENCODING 1032
SWIDTH 500 0
DWIDTH 12 0
BBX 12 24 0 -2
BITMAP 
0000
0000
0000
0000
0000
00e0
00e0
00e0
00e0
00e0
00e0
00e0
00e0
00e0
00e0
70e0
71e0
3fc0
1f80
0000
0000
0000
0000
0000
ENDCHAR
STARTCHAR U+0409
ENCODING 1033
SWIDTH 500 0
DWIDTH 12 0
BBX 12 24 0 -2
BITMAP 
0000
0000
0000
0000
0000
3f00
3f00
3b00
3b00
3b00
3b00
3bc0
3be0
3b60
3b60
3b60
3b60
fbe0
e7c0
0000
0000
0000
0000
0000
ENDCHAR
STARTCHAR U+040A
ENCODING 1034
SWIDTH 500 0
DWIDTH 12 0
BBX 12 24 0 -2
BITMAP 
0000
0000
0000
0000
0000
ee00
ee00
ee00
ee00
ee00
ee00
ffc0
ffe0
eee0
eee0
eee0
eee0
efe0
efc0
0000
0000
0000
0000
0000
ENDCHAR
STARTCHAR U+040B
ENCODING 1035
SWIDTH 500 0
DWIDTH 12 0
BBX 12 24 0 -2
BITMAP 
0000
0000
0000
0000
0000
ffc0
ffc0
1c00
1c00
1c00
1c00
1dc0
1fe0
1ee0
1ce0
1ce0
1ce0
1ce0
1ce0
0000
0000
0000
0000
0000
ENDCHAR
STARTCHAR U+040C
ENCODING 1036
SWIDTH 500 0
DWIDTH 12 0
BBX 12 24 0 -2
BITMAP 
0700
0f00
1c00
0000
0000
70e0
71e0
7380
7380
7700
7700
7e00
7e00
7700
7380
7380
71c0
70e0
70e0
0000
0000
0000
0000
0000
ENDCHAR
STARTCHAR U+040E
ENCODING 1038
SWIDTH 500 0
DWIDTH 12 0
BBX 12 24 0 -2
BITMAP 
39c0
39c0
1f80
0000
0000
70e0
70e0
70e0
79e0
39c0
3dc0
1d80
1f80
0f00
0f00
0e00
1e00
7c00
7800
0000
0000
0000
0000
0000
ENDCHAR
STARTCHAR U+040F
ENCODING 1039
SWIDTH 500 0
DWIDTH 12 0
BBX 12 24 0 -2
BITMAP 
0000
0000
0000
0000
0000
71c0
71c0
71c0
71c0
71c0
71c0
71c0
71c0
7fc0
7fc0
0e00
0e00
0e00
0e00
0000
0000
0000
0000
0000
ENDCHAR
STARTCHAR U+0410
ENCODING 1040
SWIDTH 500 0
DWIDTH 12 0
BBX 12 24 0 -2
BITMAP 
0000
0000
0000
0000
0000
1f80
3fc0
79e0
70e0
70e0
70e0
7fe0
7fe0
70e0
70e0
70e0
70e0
70e0
70e0
0000
0000
0000
0000
0000
ENDCHAR
STARTCHAR U+0411
ENCODING 1041
SWIDTH 500 0
DWIDTH 12 0
BBX 12 24 0 -2
BITMAP 
0000
0000
0000
0000
0000
7f80
7f80
7000
7000
7000
7000
7f80
7fc0
71e0
70e0
70e0
71e0
7fc0
7f80
0000
0000
0000
0000
0000
ENDCHAR
STARTCHAR U+0412
ENCODING 1042
SWIDTH 500 0
DWIDTH 12 0
BBX 12 24 0 -2
BITMAP 
0000
0000
0000
0000
0000
7f00
7f80
73c0
71c0
71c0
7380
7f80
7fc0
71c0
70e0
70e0
71e0
7fc0
7f80
0000
0000
0000
0000
0000
ENDCHAR
STARTCHAR U+0413
ENCODING 1043
SWIDTH 500 0
DWIDTH 12 0
BBX 12 24 0 -2
BITMAP 
0000
0000
0000
0000
0000
7fe0
7fe0
7000
7000
7000
7000
7000
7000
7000
7000
7000
7000
7000
7000
0000
0000
0000
0000
0000
ENDCHAR
STARTCHAR U+0414
ENCODING 1044
SWIDTH 500 0
DWIDTH 12 0
BBX 12 24 0 -2
BITMAP 
0000
0000
0000
0000
0000
0fc0
1fc0
1dc0
1dc0
39c0
39c0
39c0
71c0
71c0
71c0
e1c0
e1c0
ffc0
ffc0
00e0
0060
0000
0000
0000
ENDCHAR
STARTCHAR U+0415
ENCODING 1045
SWIDTH 500 0
DWIDTH 12 0
BBX 12 24 0 -2
BITMAP 
0000
0000
0000
0000
0000
7fe0
7fe0
7000
7000
7000
7000
7f80
7f80
7000
7000
7000
7000
7fe0
7fe0
0000
0000
0000
0000
0000
ENDCHAR
STARTCHAR U+0416
ENCODING 1046
SWIDTH 500 0
DWIDTH 12 0
BBX 12 24 0 -2
BITMAP 
0000
0000
0000
0000
0000
eee0
eee0
76c0
76c0
76c0
3f80
3f80
1f00
3f80
3f80
76c0
76c0
eee0
eee0
0000
0000
0000
0000
0000
ENDCHAR
STARTCHAR U+0417
ENCODING 1047
SWIDTH 500 0
DWIDTH 12 0
BBX 12 24 0 -2
BITMAP 
0000
0000
0000
0000
0000
1f80
3fc0
70e0
70e0
00e0
01c0
0f80
0f80
01c0
00e0
70e0
70e0
3fc0
1f80
0000
0000
0000
0000
0000
ENDCHAR
STARTCHAR U+0418
ENCODING 1048
SWIDTH 500 0
DWIDTH 12 0
BBX 12 24 0 -2
BITMAP 
0000
0000
0000
0000
0000
70e0
71e0
71e0
73e0
73e0
7760
7760
76e0
76e0
7ce0
7ce0
78e0
78e0
70e0
0000
0000
0000
0000
0000
ENDCHAR
STARTCHAR U+0419
ENCODING 1049
SWIDTH 500 0
DWIDTH 12 0
BBX 12 24 0 -2
BITMAP 
39c0
39c0
1f80
0000
0000
70e0
71e0
71e0
73e0
73e0
7760
7760
76e0
76e0
7ce0
7ce0
78e0
78e0
70e0
0000
0000
0000
0000
0000
ENDCHAR
STARTCHAR U+041A
ENCODING 1050
SWIDTH 500 0
DWIDTH 12 0
BBX 12 24 0 -2
BITMAP 
0000
0000
0000
0000
0000
70e0
71e0
7380
7380
7700
7700
7e00
7e00
7700
7380
7380
71c0
70e0
70e0
0000
0000
0000
0000
0000
ENDCHAR
STARTCHAR U+041B
ENCODING 1051
SWIDTH 500 0
DWIDTH 12 0
BBX 12 24 0 -2
BITMAP 
0000
0000
0000
0000
0000
1fe0
1fe0
1ce0
1ce0
1ce0
1ce0
1ce0
1ce0
1ce0
1ce0
1ce0
38e0
78e0
70e0
0000
0000
0000
0000
0000
ENDCHAR
STARTCHAR U+041C
ENCODING 1052
SWIDTH 500 0
DWIDTH 12 0
BBX 12 24 0 -2
BITMAP 
0000
0000
0000
0000
0000
70e0
79e0
79e0
7de0
7fe0
7760
7760
76e0
70e0
70e0
70e0
70e0
70e0
70e0
0000
0000
0000
0000
0000
ENDCHAR
STARTCHAR U+041D
ENCODING 1053
SWIDTH 500 0
DWIDTH 12 0
BBX 12 24 0 -2
BITMAP 
0000
0000
0000
0000
0000
70e0
70e0
70e0
70e0
70e0
70e0
7fe0
7fe0
70e0
70e0
70e0
70e0
70e0
70e0
0000
0000
0000
0000
0000
ENDCHAR
STARTCHAR U+041E
ENCODING 1054
SWIDTH 500 0
DWIDTH 12 0
BBX 12 24 0 -2
BITMAP 
0000
0000
0000
0000
0000
1f80
3fc0
79e0
70e0
70e0
70e0
70e0
70e0
70e0
70e0
70e0
79e0
3fc0
1f80
0000
0000
0000
0000
0000
ENDCHAR
STARTCHAR U+041F
ENCODING 1055
SWIDTH 500 0
DWIDTH 12 0
BBX 12 24 0 -2
BITMAP 
0000
0000
0000
0000
0000
7fe0
7fe0
70e0
70e0
70e0
70e0
70e0
70e0
70e0
70e0
70e0
70e0
70e0
70e0
0000
0000
0000
0000
0000
ENDCHAR
STARTCHAR U+0420
ENCODING 1056
SWIDTH 500 0
DWIDTH 12 0
BBX 12 24 0 -2
BITMAP 
0000
0000
0000
0000
0000
7f80
7fc0
71e0
70e0
70e0
71e0
7fc0
7f80
7000
7000
7000
7000
7000
7000
0000
0000
0000
0000
0000
ENDCHAR
STARTCHAR U+0421
ENCODING 1057
SWIDTH 500 0
DWIDTH 12 0
BBX 12 24 0 -2
BITMAP 
0000
0000
0000
0000
0000
1f80
3fc0
79e0
70e0
7000
7000
7000
7000
7000
7000
70e0
79e0
3fc0
1f80
0000
0000
0000
0000
0000
ENDCHAR
STARTCHAR U+0422
ENCODING 1058
SWIDTH 500 0
DWIDTH 12 0
BBX 12 24 0 -2
BITMAP 
0000
0000
0000
0000
0000
ffe0
ffe0
0e00
0e00
0e00
0e00
0e00
0e00
0e00
0e00
0e00
0e00
0e00
0e00
0000
0000
0000
0000
0000
ENDCHAR
STARTCHAR U+0423
ENCODING 1059
SWIDTH 500 0
DWIDTH 12 0
BBX 12 24 0 -2
BITMAP 
0000
0000
0000
0000
0000
70e0
70e0
70e0
79e0
39c0
3dc0
1d80
1f80
0f00
0f00
0e00
1e00
7c00
7800
0000
0000
0000
0000
0000
ENDCHAR
STARTCHAR U+0424
ENCODING 1060
SWIDTH 500 0
DWIDTH 12 0
BBX 12 24 0 -2
BITMAP 
0000
0000
0000
0000
0e00
0e00
0e00
3f80
7fc0
eee0
eee0
eee0
eee0
eee0
eee0
7fc0
3f80
0e00
0e00
0e00
0000
0000
0000
0000
ENDCHAR
STARTCHAR U+0425
ENCODING 1061
SWIDTH 500 0
DWIDTH 12 0
BBX 12 24 0 -2
BITMAP 
0000
0000
0000
0000
0000
70e0
70e0
39c0
39c0
1d80
1d80
0f00
0f00
1d80
1d80
39c0
39c0
70e0
70e0
0000
0000
0000
0000
0000
ENDCHAR
STARTCHAR U+0426
ENCODING 1062
SWIDTH 500 0
DWIDTH 12 0
BBX 12 24 0 -2
BITMAP 
0000
0000
0000
0000
0000
71c0
71c0
71c0
71c0
71c0
71c0
71c0
71c0
71c0
71c0
71c0
71c0
7fc0
7fc0
01c0
01c0
00e0
0000
0000
ENDCHAR
STARTCHAR U+0427
ENCODING 1063
SWIDTH 500 0
DWIDTH 12 0
BBX 12 24 0 -2
BITMAP 
0000
0000
0000
0000
0000
70e0
70e0
70e0
70e0
70e0
70e0
71e0
7be0
3f60
1ee0
00e0
00e0
00e0
00e0
0000
0000
0000
0000
0000
ENDCHAR
STARTCHAR U+0428
ENCODING 1064
SWIDTH 500 0
DWIDTH 12 0
BBX 12 24 0 -2
BITMAP 
0000
0000
0000
0000
0000
eee0
eee0
eee0
eee0
eee0
eee0
eee0
eee0
eee0
eee0
eee0
eee0
ffe0
ffe0
0000
0000
0000
0000
0000
ENDCHAR
STARTCHAR U+0429
ENCODING 1065
SWIDTH 500 0
DWIDTH 12 0
BBX 12 24 0 -2
BITMAP 
0000
0000
0000
0000
0000
eee0
eee0
eee0
eee0
eee0
eee0
eee0
eee0
eee0
eee0
eee0
eee0
ffe0
ffe0
00e0
00e0
0070
0000
0000
ENDCHAR
STARTCHAR U+042A
ENCODING 1066
SWIDTH 500 0
DWIDTH 12 0
BBX 12 24 0 -2
BITMAP 
0000
0000
0000
0000
0000
f800
f800
3800
3800
3800
3f80
3fc0
39e0
38e0
38e0
38e0
39e0
3fc0
3f80
0000
0000
0000
0000
0000
ENDCHAR
STARTCHAR U+042B
ENCODING 1067
SWIDTH 500 0
DWIDTH 12 0
BBX 12 24 0 -2
BITMAP 
0000
0000
0000
0000
0000
70e0
70e0
70e0
70e0
70e0
7ee0
7f60
7760
7760
7760
7760
7760
7f60
7ee0
0000
0000
0000
0000
0000
ENDCHAR
STARTCHAR U+042C
ENCODING 1068
SWIDTH 500 0
DWIDTH 12 0
BBX 12 24 0 -2
BITMAP 
0000
0000
0000
0000
0000
7000
7000
7000
7000
7000
7f00
7f80
73c0
71c0
71c0
71c0
73c0
7f80
7f00
0000
0000
0000
0000
0000
ENDCHAR
STARTCHAR U+042D
ENCODING 1069
SWIDTH 500 0
DWIDTH 12 0
BBX 12 24 0 -2
BITMAP 
0000
0000
0000
0000
0000
1f00
7fc0
71c0
00e0
00e0
00e0
1fe0
1fe0
00e0
00e0
00e0
71c0
7fc0
1f00
0000
0000
0000
0000
0000
ENDCHAR
STARTCHAR U+042E
ENCODING 1070
SWIDTH 500 0
DWIDTH 12 0
BBX 12 24 0 -2
BITMAP 
0000
0000
0000
0000
0000
e780
efc0
ece0
ece0
ece0
ece0
fce0
fce0
ece0
ece0
ece0
ece0
efc0
e780
0000
0000
0000
0000
0000
ENDCHAR
STARTCHAR U+042F
ENCODING 1071
SWIDTH 500 0
DWIDTH 12 0
BBX 12 24 0 -2
BITMAP 
0000
0000
0000
0000
0000
1fe0
3fe0
78e0
70e0
70e0
78e0
3fe0
1fe0
1ce0
1ce0
38e0
38e0
70e0
70e0
0000
0000
0000
0000
0000
ENDCHAR
STARTCHAR U+0430
ENCODING 1072
SWIDTH 500 0
DWIDTH 12 0
BBX 12 24 0 -2
BITMAP 
0000
0000
0000
0000
0000
0000
0000
0000
0000
0f80
1fc0
38e0
00e0
0fe0
3fe0
70e0
71e0
7fe0
3f60
0000
0000
0000
0000
0000
ENDCHAR
STARTCHAR U+0431
ENCODING 1073
SWIDTH 500 0
DWIDTH 12 0
BBX 12 24 0 -2
BITMAP 
0000
0000
0000
0000
0000
1fe0
3fe0
7800
7000
7f80
7fc0
79e0
70e0
70e0
70e0
70e0
79e0
3fc0
1f80
0000
0000
0000
0000
0000
ENDCHAR
STARTCHAR U+0432
ENCODING 1074
SWIDTH 500 0
DWIDTH 12 0
BBX 12 24 0 -2
BITMAP 
0000
0000
0000
0000
0000
0000
0000
0000
0000
7f00
7f80
71c0
71c0
7f80
7fc0
71e0
70e0
7fc0
7f80
0000
0000
0000
0000
0000
ENDCHAR
STARTCHAR U+0433
ENCODING 1075
SWIDTH 500 0
DWIDTH 12 0
BBX 12 24 0 -2
BITMAP 
0000
0000
0000
0000
0000
0000
0000
0000
0000
7fe0
7fe0
7000
7000
7000
7000
7000
7000
7000
7000
0000
0000
0000
0000
0000
ENDCHAR
STARTCHAR U+0434
ENCODING 1076
SWIDTH 500 0
DWIDTH 12 0
BBX 12 24 0 -2
BITMAP 
0000
0000
0000
0000
0000
0000
0000
0000
0000
0fe0
0fe0
1ce0
1ce0
38e0
38e0
70e0
70e0
7fe0
7fe0
0000
0000
0000
0000
0000
ENDCHAR
STARTCHAR U+0435
ENCODING 1077
SWIDTH 500 0
DWIDTH 12 0
BBX 12 24 0 -2
BITMAP 
0000
0000
0000
0000
0000
0000
0000
0000
0000
1f80
3fc0
78e0
70e0
7fe0
7fe0
7000
70e0
3fe0
1fc0
0000
0000
0000
0000
0000
ENDCHAR
STARTCHAR U+0436
ENCODING 1078
SWIDTH 500 0
DWIDTH 12 0
BBX 12 24 0 -2
BITMAP 
0000
0000
0000
0000
0000
0000
0000
0000
0000
eee0
eee0
76c0
76c0
3f80
3f80
76c0
76c0
eee0
eee0
0000
0000
0000
0000
0000
ENDCHAR
STARTCHAR U+0437
ENCODING 1079
SWIDTH 500 0
DWIDTH 12 0
BBX 12 24 0 -2
BITMAP 
0000
0000
0000
0000
0000
0000
0000
0000
0000
1f80
3fc0
70e0
00e0
0fc0
0fc0
00e0
70e0
3fc0
1f80
0000
0000
0000
0000
0000
ENDCHAR
STARTCHAR U+0438
ENCODING 1080
SWIDTH 500 0
DWIDTH 12 0
BBX 12 24 0 -2
BITMAP 
0000
0000
0000
0000
0000
0000
0000
0000
0000
70e0
70e0
71e0
73e0
7760
76e0
7ce0
78e0
70e0
70e0
0000
0000
0000
0000
0000
ENDCHAR
STARTCHAR U+0439
ENCODING 1081
SWIDTH 500 0
DWIDTH 12 0
BBX 12 24 0 -2
BITMAP 
0000
0000
0000
0000
39c0
39c0
1f80
0000
0000
70e0
70e0
71e0
73e0
7760
76e0
7ce0
78e0
70e0
70e0
0000
0000
0000
0000
0000
ENDCHAR
STARTCHAR U+043A
ENCODING 1082
SWIDTH 500 0
DWIDTH 12 0
BBX 12 24 0 -2
BITMAP 
0000
0000
0000
0000
0000
0000
0000
0000
0000
71e0
73e0
7780
7700
7e00
7f00
7780
73c0
71e0
70e0
0000
0000
0000
0000
0000
ENDCHAR
STARTCHAR U+043B
ENCODING 1083
SWIDTH 500 0
DWIDTH 12 0
BBX 12 24 0 -2
BITMAP 
0000
0000
0000
0000
0000
0000
0000
0000
0000
1fe0
1fe0
1ce0
1ce0
1ce0
1ce0
1ce0
38e0
38e0
70e0
0000
0000
0000
0000
0000
ENDCHAR
STARTCHAR U+043C
ENCODING 1084
SWIDTH 500 0
DWIDTH 12 0
BBX 12 24 0 -2
BITMAP 
0000
0000
0000
0000
0000
0000
0000
0000
0000
70e0
79e0
79e0
7de0
7fe0
7760
7760
76e0
70e0
70e0
0000
0000
0000
0000
0000
ENDCHAR
STARTCHAR U+043D
ENCODING 1085
SWIDTH 500 0
DWIDTH 12 0
BBX 12 24 0 -2
BITMAP 
0000
0000
0000
0000
0000
0000
0000
0000
0000
70e0
70e0
70e0
70e0
7fe0
7fe0
70e0
70e0
70e0
70e0
0000
0000
0000
0000
0000
ENDCHAR
STARTCHAR U+043E
ENCODING 1086
SWIDTH 500 0
DWIDTH 12 0
BBX 12 24 0 -2
BITMAP 
0000
0000
0000
0000
0000
0000
0000
0000
0000
1f80
3fc0
79e0
70e0
70e0
70e0
70e0
79e0
3fc0
1f80
0000
0000
0000
0000
0000
ENDCHAR
STARTCHAR U+043F
ENCODING 1087
SWIDTH 500 0
DWIDTH 12 0
BBX 12 24 0 -2
BITMAP 
0000
0000
0000
0000
0000
0000
0000
0000
0000
7fe0
7fe0
70e0
70e0
70e0
70e0
70e0
70e0
70e0
70e0
0000
0000
0000
0000
0000
ENDCHAR
STARTCHAR U+0440
ENCODING 1088
SWIDTH 500 0
DWIDTH 12 0
BBX 12 24 0 -2
BITMAP 
0000
0000
0000
0000
0000
0000
0000
0000
0000
7780
77c0
7de0
78e0
70e0
70e0
78e0
7de0
77c0
7780
7000
7000
7000
7000
0000
ENDCHAR
STARTCHAR U+0441
ENCODING 1089
SWIDTH 500 0
DWIDTH 12 0
BBX 12 24 0 -2
BITMAP 
0000
0000
0000
0000
0000
0000
0000
0000
0000
0fc0
3fc0
78e0
70e0
7000
7000
7000
78e0
3fe0
1fc0
0000
0000
0000
0000
0000
ENDCHAR
STARTCHAR U+0442
ENCODING 1090
SWIDTH 500 0
DWIDTH 12 0
BBX 12 24 0 -2
BITMAP 
0000
0000
0000
0000
0000
0000
0000
0000
0000
ffe0
ffe0
0e00
0e00
0e00
0e00
0e00
0e00
0e00
0e00
0000
0000
0000
0000
0000
ENDCHAR
STARTCHAR U+0443
ENCODING 1091
SWIDTH 500 0
DWIDTH 12 0
BBX 12 24 0 -2
BITMAP 
0000
0000
0000
0000
0000
0000
0000
0000
0000
70e0
70e0
70e0
79e0
39c0
3dc0
1d80
1f80
0f00
0f00
0e00
1e00
1c00
3c00
3800
ENDCHAR
STARTCHAR U+0444
ENCODING 1092
SWIDTH 500 0
DWIDTH 12 0
BBX 12 24 0 -2
BITMAP 
0000
0000
0000
0000
0000
0000
0000
0e00
0e00
0e00
7fc0
ffe0
eee0
eee0
eee0
eee0
ffe0
7fc0
0e00
0e00
0e00
0000
0000
0000
ENDCHAR
STARTCHAR U+0445
ENCODING 1093
SWIDTH 500 0
DWIDTH 12 0
BBX 12 24 0 -2
BITMAP 
0000
0000
0000
0000
0000
0000
0000
0000
0000
70e0
79e0
3dc0
1f80
0f00
0f00
1f80
3dc0
79e0
70e0
0000
0000
0000
0000
0000
ENDCHAR
STARTCHAR U+0446
ENCODING 1094
SWIDTH 500 0
DWIDTH 12 0
BBX 12 24 0 -2
BITMAP 
0000
0000
0000
0000
0000
0000
0000
0000
0000
71c0
71c0
71c0
71c0
71c0
71c0
71c0
71c0
7fc0
7fc0
01c0
01c0
00e0
0000
0000
ENDCHAR
STARTCHAR U+0447
ENCODING 1095
SWIDTH 500 0
DWIDTH 12 0
BBX 12 24 0 -2
BITMAP 
0000
0000
0000
0000
0000
0000
0000
0000
0000
70e0
70e0
70e0
70e0
7be0
3fe0
1ee0
00e0
00e0
00e0
0000
0000
0000
0000
0000
ENDCHAR
STARTCHAR U+0448
ENCODING 1096
SWIDTH 500 0
DWIDTH 12 0
BBX 12 24 0 -2
BITMAP 
0000
0000
0000
0000
0000
0000
0000
0000
0000
eee0
eee0
eee0
eee0
eee0
eee0
eee0
eee0
ffe0
ffe0
0000
0000
0000
0000
0000
ENDCHAR
STARTCHAR U+0449
ENCODING 1097
SWIDTH 500 0
DWIDTH 12 0
BBX 12 24 0 -2
BITMAP 
0000
0000
0000
0000
0000
0000
0000
0000
0000
eee0
eee0
eee0
eee0
eee0
eee0
eee0
eee0
ffe0
ffe0
00e0
00e0
0070
0000
0000
ENDCHAR
STARTCHAR U+044A
ENCODING 1098
SWIDTH 500 0
DWIDTH 12 0
BBX 12 24 0 -2
BITMAP 
0000
0000
0000
0000
0000
0000
0000
0000
0000
7c00
7c00
1c00
1fc0
1fe0
1ce0
1ce0
1ce0
1fe0
1fc0
0000
0000
0000
0000
0000
ENDCHAR
STARTCHAR U+044B
ENCODING 1099
SWIDTH 500 0
DWIDTH 12 0
BBX 12 24 0 -2
BITMAP 
0000
0000
0000
0000
0000
0000
0000
0000
0000
70e0
70e0
70e0
7ee0
7f60
7760
7760
7760
7f60
7ee0
0000
0000
0000
0000
0000
ENDCHAR
STARTCHAR U+044C
ENCODING 1100
SWIDTH 500 0
DWIDTH 12 0
BBX 12 24 0 -2
BITMAP 
0000
0000
0000
0000
0000
0000
0000
0000
0000
7000
7000
7000
7f00
7f80
71c0
71c0
71c0
7f80
7f00
0000
0000
0000
0000
0000
ENDCHAR
STARTCHAR U+044D
ENCODING 1101
SWIDTH 500 0
DWIDTH 12 0
BBX 12 24 0 -2
BITMAP 
0000
0000
0000
0000
0000
0000
0000
0000
0000
1f80
3fc0
70e0
00e0
0fe0
0fe0
00e0
70e0
3fc0
1f80
0000
0000
0000
0000
0000
ENDCHAR
STARTCHAR U+044E
ENCODING 1102
SWIDTH 500 0
DWIDTH 12 0
BBX 12 24 0 -2
BITMAP 
0000
0000
0000
0000
0000
0000
0000
0000
0000
e7c0
efe0
eee0
eee0
fee0
fee0
eee0
eee0
efe0
e7c0
0000
0000
0000
0000
0000
ENDCHAR
STARTCHAR U+044F
ENCODING 1103
SWIDTH 500 0
DWIDTH 12 0
BBX 12 24 0 -2
BITMAP 
0000
0000
0000
0000
0000
0000
0000
0000
0000
1fe0
3fe0
70e0
70e0
3fe0
1fe0
1ce0
3ce0
78e0
70e0
0000
0000
0000
0000
0000
ENDCHAR
STARTCHAR U+0451
ENCODING 1105
SWIDTH 500 0
DWIDTH 12 0
BBX 12 24 0 -2
BITMAP 
0000
0000
0000
0000
0000
39c0
39c0
0000
0000
1f80
3fc0
78e0
70e0
7fe0
7fe0
7000
70e0
3fe0
1fc0
0000
0000
0000
0000
0000
ENDCHAR
STARTCHAR U+0452
ENCODING 1106
SWIDTH 500 0
DWIDTH 12 0
BBX 12 24 0 -2
BITMAP 
0000
0000
0000
0000
0000
1c00
1c00
1c00
7f80
7f80
1c00
1c00
1fc0
1fe0
1ce0
1ce0
1ce0
1ce0
1ce0
00e0
03e0
03c0
0000
0000
ENDCHAR
STARTCHAR U+0453
ENCODING 1107
SWIDTH 500 0
DWIDTH 12 0
BBX 12 24 0 -2
BITMAP 
0000
0000
0000
0000
0700
0f00
1c00
0000
0000
7fe0
7fe0
7000
7000
7000
7000
7000
7000
7000
7000
0000
0000
0000
0000
0000
ENDCHAR
STARTCHAR U+0454
ENCODING 1108
SWIDTH 500 0
DWIDTH 12 0
BBX 12 24 0 -2
BITMAP 
0000
0000
0000
0000
0000
0000
0000
0000
0000
1f80
3fc0
70e0
7000
7f00
7f00
7000
70e0
3fc0
1f80
0000
0000
0000
0000
0000
ENDCHAR
STARTCHAR U+0455
ENCODING 1109
SWIDTH 500 0
DWIDTH 12 0
BBX 12 24 0 -2
BITMAP 
0000
0000
0000
0000
0000
0000
0000
0000
0000
3fc0
7fe0
7060
7000
3f80
1fc0
00e0
70e0
7fe0
3fc0
0000
0000
0000
0000
0000
ENDCHAR
STARTCHAR U+0456
ENCODING 1110
SWIDTH 500 0
DWIDTH 12 0
BBX 12 24 0 -2
BITMAP 
0000
0000
0000
0000
0000
0e00
0e00
0000
0000
0e00
0e00
0e00
0e00
0e00
0e00
0e00
0e00
0e00
0e00
0000
0000
0000
0000
0000
ENDCHAR
STARTCHAR U+0457
ENCODING 1111
SWIDTH 500 0
DWIDTH 12 0
BBX 12 24 0 -2
BITMAP 
0000
0000
0000
0000
0000
3b80
3b80
0000
0000
0e00
0e00
0e00
0e00
0e00
0e00
0e00
0e00
0e00
0e00
0000
0000
0000
0000
0000
ENDCHAR
STARTCHAR U+0458
ENCODING 1112
SWIDTH 500 0
DWIDTH 12 0
BBX 12 24 0 -2
BITMAP 
0000
0000
0000
0000
0000
0e00
0e00
0000
0000
0e00
0e00
0e00
0e00
0e00
0e00
0e00
0e00
0e00
0e00
0e00
0e00
7e00
7800
0000
ENDCHAR
STARTCHAR U+0459
ENCODING 1113
SWIDTH 500 0
DWIDTH 12 0
BBX 12 24 0 -2
BITMAP 
0000
0000
0000
0000
0000
0000
0000
0000
0000
3f00
3f00
3b00
3bc0
3be0
3b60
3b60
3b60
fbe0
e7c0
0000
0000
0000
0000
0000
ENDCHAR
STARTCHAR U+045A
ENCODING 1114
SWIDTH 500 0
DWIDTH 12 0
BBX 12 24 0 -2
BITMAP 
0000
0000
0000
0000
0000
0000
0000
0000
0000
ee00
ee00
ee00
efc0
ffe0
fee0
eee0
eee0
efe0
efc0
0000
0000
0000
0000
0000
ENDCHAR
STARTCHAR U+045B
ENCODING 1115
SWIDTH 500 0
DWIDTH 12 0
BBX 12 24 0 -2
BITMAP 
0000
0000
0000
0000
0000
1c00
1c00
1c00
7f80
7f80
1c00
1c00
1dc0
1fe0
1ee0
1ce0
1ce0
1ce0
1ce0
0000
0000
0000
0000
0000
ENDCHAR
STARTCHAR U+045C
ENCODING 1116
SWIDTH 500 0
DWIDTH 12 0
BBX 12 24 0 -2
BITMAP 
0000
0000
0000
0000
0700
0f00
1c00
0000
0000
71e0
73e0
7780
7700
7e00
7f00
7780
73c0
71e0
70e0
0000
0000
0000
0000
0000
ENDCHAR
STARTCHAR U+045E
ENCODING 1118
SWIDTH 500 0
DWIDTH 12 0
BBX 12 24 0 -2
BITMAP 
0000
0000
0000
0000
39c0
39c0
1f80
0000
0000
70e0
70e0
70e0
79e0
39c0
3dc0
1d80
1f80
0f00
0f00
0e00
1e00
1c00
3c00
3800
ENDCHAR
STARTCHAR U+045F
ENCODING 1119
SWIDTH 500 0
DWIDTH 12 0
BBX 12 24 0 -2
BITMAP 
0000
0000
0000
0000
0000
0000
0000
0000
0000
71c0
71c0
71c0
71c0
71c0
71c0
71c0
71c0
7fc0
7fc0
0e00
0e00
0e00
0e00
0e00
ENDCHAR
STARTCHAR U+0460
ENCODING 1120
SWIDTH 500 0
DWIDTH 12 0
BBX 12 24 0 -2
BITMAP 
0000
0000
0000
0000
0000
7bc0
7bc0
e0e0
e0e0
e0e0
eee0
eee0
eee0
eee0
eee0
eee0
eee0
7fc0
3b80
0000
0000
0000
0000
0000
ENDCHAR
STARTCHAR U+0461
ENCODING 1121
SWIDTH 500 0
DWIDTH 12 0
BBX 12 24 0 -2
BITMAP 
0000
0000
0000
0000
0000
0000
0000
0000
0000
e0e0
e0e0
e0e0
eee0
eee0
eee0
eee0
eee0
7fc0
3b80
0000
0000
0000
0000
0000
ENDCHAR
STARTCHAR U+0462
ENCODING 1122
SWIDTH 500 0
DWIDTH 12 0
BBX 12 24 0 -2
BITMAP 
0000
0000
0000
0000
0000
3800
ff00
ff00
3800
3800
3f80
3fc0
39e0
38e0
38e0
38e0
39e0
3fc0
3f80
0000
0000
0000
0000
0000
ENDCHAR
STARTCHAR U+0463
ENCODING 1123
SWIDTH 500 0
DWIDTH 12 0
BBX 12 24 0 -2
BITMAP 
0000
0000
0000
0000
0000
1c00
1c00
1c00
7f80
7f80
1c00
1c00
1fc0
1fe0
1ce0
1ce0
1ce0
1fe0
1fc0
0000
0000
0000
0000
0000
ENDCHAR
STARTCHAR U+0464
ENCODING 1124
SWIDTH 500 0
DWIDTH 12 0
BBX 12 24 0 -2
BITMAP 
0000
0000
0000
0000
0000
e7c0
efe0
eee0
ec60
ec00
ec00
ff80
ff80
ec00
ec00
ec60
eee0
efe0
e7c0
0000
0000
0000
0000
0000
ENDCHAR
STARTCHAR U+0465
ENCODING 1125
SWIDTH 500 0
DWIDTH 12 0
BBX 12 24 0 -2
BITMAP 
0000
0000
0000
0000
0000
0000
0000
0000
0000
e7c0
efe0
ec60
ec00
ff80
ff80
ec00
ec60
efe0
e7c0
0000
0000
0000
0000
0000
ENDCHAR
STARTCHAR U+0466
ENCODING 1126
SWIDTH 500 0
DWIDTH 12 0
BBX 12 24 0 -2
BITMAP 
0000
0000
0000
0000
0000
0e00
0e00
1f00
1f00
3b80
3b80
71c0
7bc0
7fc0
ef60
eee0
eee0
eee0
eee0
0000
0000
0000
0000
0000
ENDCHAR
STARTCHAR U+0467
ENCODING 1127
SWIDTH 500 0
DWIDTH 12 0
BBX 12 24 0 -2
BITMAP 
0000
0000
0000
0000
0000
0000
0000
0000
0000
0e00
0e00
1f00
1f00
3b80
3b80
3f80
76c0
76c0
76c0
0000
0000
0000
0000
0000
ENDCHAR
STARTCHAR U+0468
ENCODING 1128
SWIDTH 500 0
DWIDTH 12 0
BBX 12 24 0 -2
BITMAP 
0000
0000
0000
0000
0000
e380
e380
e7c0
e7c0
e7c0
eee0
eee0
ffe0
ffe0
edb0
edb0
edb0
edb0
edb0
0000
0000
0000
0000
0000
ENDCHAR
STARTCHAR U+0469
ENCODING 1129
SWIDTH 500 0
DWIDTH 12 0
BBX 12 24 0 -2
BITMAP 
0000
0000
0000
0000
0000
0000
0000
0000
0000
e380
e380
e7c0
e7c0
eee0
eee0
ffe0
edb0
edb0
edb0
0000
0000
0000
0000
0000
ENDCHAR
STARTCHAR U+046A
ENCODING 1130
SWIDTH 500 0
DWIDTH 12 0
BBX 12 24 0 -2
BITMAP 
0000
0000
0000
0000
0000
7fc0
7fc0
71c0
71c0
3b80
1f00
0e00
1f00
3f80
76c0
eee0
eee0
eee0
eee0
0000
0000
0000
0000
0000
ENDCHAR
STARTCHAR U+046B
ENCODING 1131
SWIDTH 500 0
DWIDTH 12 0
BBX 12 24 0 -2
BITMAP 
0000
0000
0000
0000
0000
0000
0000
0000
0000
7fc0
7fc0
3b80
1f00
0e00
1f00
3f80
76c0
76c0
76c0
0000
0000
0000
0000
0000
ENDCHAR
STARTCHAR U+046C
ENCODING 1132
SWIDTH 500 0
DWIDTH 12 0
BBX 12 24 0 -2
BITMAP 
0000
0000
0000
0000
0000
eff0
eff0
ec70
ec70
eee0
e7c0
ff80
ffc0
efe0
edb0
edb0
edb0
edb0
edb0
0000
0000
0000
0000
0000
ENDCHAR
STARTCHAR U+046D
ENCODING 1133
SWIDTH 500 0
DWIDTH 12 0
BBX 12 24 0 -2
BITMAP 
0000
0000
0000
0000
0000
0000
0000
0000
0000
eff0
eff0
eee0
e7c0
ff80
ffc0
efe0
edb0
edb0
edb0
0000
0000
0000
0000
0000
ENDCHAR
STARTCHAR U+046E
ENCODING 1134
SWIDTH 500 0
DWIDTH 12 0
BBX 12 24 0 -2
BITMAP 
0000
0000
3b80
1f00
0e00
1f80
3fc0
70e0
70e0
00e0
01c0
0f80
0f80
01c0
00e0
00e0
00e0
3fc0
7f80
7000
7000
7000
0000
0000
ENDCHAR
STARTCHAR U+046F
ENCODING 1135
SWIDTH 500 0
DWIDTH 12 0
BBX 12 24 0 -2
BITMAP 
0000
0000
0000
0000
3b80
1f00
0e00
0000
0000
1f80
3fc0
70e0
00e0
0fc0
0fc0
00e0
00e0
3fc0
7f80
7000
7000
7000
0000
0000
ENDCHAR
STARTCHAR U+0470
ENCODING 1136
SWIDTH 500 0
DWIDTH 12 0
BBX 12 24 0 -2
BITMAP 
0000
0000
0000
0000
0000
eee0
eee0
eee0
eee0
eee0
eee0
f6e0
7fc0
3f80
0e00
0e00
0e00
0e00
0e00
0000
0000
0000
0000
0000
ENDCHAR
STARTCHAR U+0471
ENCODING 1137
SWIDTH 500 0
DWIDTH 12 0
BBX 12 24 0 -2
BITMAP 
0000
0000
0000
0000
0000
0000
0e00
0e00
0e00
eee0
eee0
eee0
eee0
eee0
eee0
eee0
f6e0
7fc0
3f80
0e00
0e00
0e00
0e00
0e00
ENDCHAR
STARTCHAR U+0472
ENCODING 1138
SWIDTH 500 0
DWIDTH 12 0
BBX 12 24 0 -2
BITMAP 
0000
0000
0000
0000
0000
1f80
3fc0
79e0
70e0
70e0
70e0
7760
7760
70e0
70e0
70e0
79e0
3fc0
1f80
0000
0000
0000
0000
0000
ENDCHAR
STARTCHAR U+0473
ENCODING 1139
SWIDTH 500 0
DWIDTH 12 0
BBX 12 24 0 -2
BITMAP 
0000
0000
0000
0000
0000
0000
0000
0000
0000
1f80
3fc0
79e0
70e0
7760
7760
70e0
79e0
3fc0
1f80
0000
0000
0000
0000
0000
ENDCHAR
STARTCHAR U+0474
ENCODING 1140
SWIDTH 500 0
DWIDTH 12 0
BBX 12 24 0 -2
BITMAP 
0000
0000
0000
0000
0000
e1e0
e3e0
e360
e700
e700
7700
7600
7600
7600
7400
3c00
3800
3800
3800
0000
0000
0000
0000
0000
ENDCHAR
STARTCHAR U+0475
ENCODING 1141
SWIDTH 500 0
DWIDTH 12 0
BBX 12 24 0 -2
BITMAP 
0000
0000
0000
0000
0000
0000
0000
0000
0000
71e0
73e0
7760
3b00
3b00
3a00
1e00
1c00
1c00
1c00
0000
0000
0000
0000
0000
ENDCHAR
STARTCHAR U+0476
ENCODING 1142
SWIDTH 500 0
DWIDTH 12 0
BBX 12 24 0 -2
BITMAP 
e700
f780
39c0
0000
0000
e1e0
e3e0
e360
e700
e700
7700
7600
7600
7600
7400
3c00
3800
3800
3800
0000
0000
0000
0000
0000
ENDCHAR
STARTCHAR U+0477
ENCODING 1143
SWIDTH 500 0
DWIDTH 12 0
BBX 12 24 0 -2
BITMAP 
0000
0000
0000
0000
7380
7bc0
1ce0
0000
0000
71e0
73e0
7760
3b00
3b00
3a00
1e00
1c00
1c00
1c00
0000
0000
0000
0000
0000
ENDCHAR
STARTCHAR U+0478
ENCODING 1144
SWIDTH 500 0
DWIDTH 12 0
BBX 12 24 0 -2
BITMAP 
0000
0000
0000
0000
0000
7800
fc00
ec00
ec00
ef60
ef60
ef60
ef60
ed40
edc0
edc0
edc0
fd80
7b80
0380
0700
0700
0000
0000
ENDCHAR
STARTCHAR U+0479
ENCODING 1145
SWIDTH 500 0
DWIDTH 12 0
BBX 12 24 0 -2
BITMAP 
0000
0000
0000
0000
0000
0000
0000
0000
0000
7b60
ff60
ef60
ef60
ed40
edc0
edc0
edc0
fd80
7b80
0380
0700
0700
0000
0000
ENDCHAR
STARTCHAR U+047A
ENCODING 1146
SWIDTH 500 0
DWIDTH 12 0
BBX 12 24 0 -2
BITMAP 
0000
0000
0000
0000
0e00
3f80
7fc0
eee0
e0e0
e0e0
e0e0
e0e0
e0e0
e0e0
e0e0
e0e0
e0e0
eee0
7fc0
3f80
0e00
0000
0000
0000
ENDCHAR
STARTCHAR U+047B
ENCODING 1147
SWIDTH 500 0
DWIDTH 12 0
BBX 12 24 0 -2
BITMAP 
0000
0000
0000
0000
0000
0000
0000
0000
0e00
3f80
7fc0
eee0
e0e0
e0e0
e0e0
e0e0
e0e0
eee0
7fc0
3f80
0e00
0000
0000
0000
ENDCHAR
STARTCHAR U+047C
ENCODING 1148
SWIDTH 500 0
DWIDTH 12 0
BBX 12 24 0 -2
BITMAP 
3f00
ffe0
e1e0
0000
0000
7bc0
7bc0
e0e0
e0e0
e0e0
eee0
eee0
eee0
eee0
eee0
eee0
eee0
7fc0
3b80
0000
0000
0000
0000
0000
ENDCHAR
STARTCHAR U+047D
ENCODING 1149
SWIDTH 500 0
DWIDTH 12 0
BBX 12 24 0 -2
BITMAP 
0000
0000
0000
0000
3f00
ffe0
e1e0
0000
0000
e0e0
e0e0
e0e0
eee0
eee0
eee0
eee0
eee0
7fc0
3b80
0000
0000
0000
0000
0000
ENDCHAR
STARTCHAR U+047E
ENCODING 1150
SWIDTH 500 0
DWIDTH 12 0
BBX 12 24 0 -2
BITMAP 
7fc0
7fc0
0e00
0000
0000
7bc0
7bc0
e0e0
e0e0
e0e0
eee0
eee0
eee0
eee0
eee0
eee0
eee0
7fc0
3b80
0000
0000
0000
0000
0000
ENDCHAR
STARTCHAR U+047F
ENCODING 1151
SWIDTH 500 0
DWIDTH 12 0
BBX 12 24 0 -2
BITMAP 
0000
0000
0000
0000
7fc0
7fc0
0e00
0000
0000
e0e0
e0e0
e0e0
eee0
eee0
eee0
eee0
eee0
7fc0
3b80
0000
0000
0000
0000
0000
ENDCHAR
STARTCHAR U+0480
ENCODING 1152
SWIDTH 500 0
DWIDTH 12 0
BBX 12 24 0 -2
BITMAP 
0000
0000
0000
0000
0000
1f80
3fc0
79e0
70e0
7000
7000
7000
7000
7000
7000
7000
7800
3f00
1f80
0380
0380
0380
0000
0000
ENDCHAR
STARTCHAR U+0481
ENCODING 1153
SWIDTH 500 0
DWIDTH 12 0
BBX 12 24 0 -2
BITMAP 
0000
0000
0000
0000
0000
0000
0000
0000
0000
1f80
3fc0
79e0
70e0
7000
7000
7000
7800
3f00
1f80
0380
0380
0380
0000
0000
ENDCHAR
STARTCHAR U+0482
ENCODING 1154
SWIDTH 500 0
DWIDTH 12 0
BBX 12 24 0 -2
BITMAP 
0000
0000
0000
0000
0000
01c0
01c0
0380
3d80
3f00
07e0
0ee0
f600
fc00
1f80
3b80
3800
7000
7000
0000
0000
0000
0000
0000
ENDCHAR
STARTCHAR U+0490
ENCODING 1168
SWIDTH 500 0
DWIDTH 12 0
BBX 12 24 0 -2
BITMAP 
0000
0000
0000
0000
0000
00e0
00e0
7fe0
7fc0
7000
7000
7000
7000
7000
7000
7000
7000
7000
7000
7000
7000
0000
0000
0000
ENDCHAR
STARTCHAR U+0491
ENCODING 1169
SWIDTH 500 0
DWIDTH 12 0
BBX 12 24 0 -2
BITMAP 
0000
0000
0000
0000
0000
0000
0000
0000
0000
00e0
00e0
7fe0
7fc0
7000
7000
7000
7000
7000
7000
7000
7000
0000
0000
0000
ENDCHAR
STARTCHAR U+0492
ENCODING 1170
SWIDTH 500 0
DWIDTH 12 0
BBX 12 24 0 -2
BITMAP 
0000
0000
0000
0000
0000
3fe0
3fe0
3800
3800
3800
3800
3800
ff00
ff00
3800
3800
3800
3800
3800
0000
0000
0000
0000
0000
ENDCHAR
STARTCHAR U+0493
ENCODING 1171
SWIDTH 500 0
DWIDTH 12 0
BBX 12 24 0 -2
BITMAP 
0000
0000
0000
0000
0000
0000
0000
0000
0000
3fe0
3fe0
3800
3800
ff00
ff00
3800
3800
3800
3800
0000
0000
0000
0000
0000
ENDCHAR
STARTCHAR U+0494
ENCODING 1172
SWIDTH 500 0
DWIDTH 12 0
BBX 12 24 0 -2
BITMAP 
0000
0000
0000
0000
0000
7fe0
7fe0
7000
7000
7000
7000
7f00
7f80
73c0
71c0
71c0
71c0
71c0
71c0
03c0
0780
0700
0000
0000
ENDCHAR
STARTCHAR U+0495
ENCODING 1173
SWIDTH 500 0
DWIDTH 12 0
BBX 12 24 0 -2
BITMAP 
0000
0000
0000
0000
0000
0000
0000
0000
0000
7fe0
7fe0
7000
7000
7f00
7f80
73c0
71c0
71c0
71c0
03c0
0780
0700
0000
0000
ENDCHAR
STARTCHAR U+0496
ENCODING 1174
SWIDTH 500 0
DWIDTH 12 0
BBX 12 24 0 -2
BITMAP 
0000
0000
0000
0000
0000
eee0
eee0
76c0
76c0
76c0
3f80
3f80
1f00
3f80
3f80
76c0
76c0
eef0
eef0
0070
00e0
00e0
0000
0000
ENDCHAR
STARTCHAR U+0497
ENCODING 1175
SWIDTH 500 0
DWIDTH 12 0
BBX 12 24 0 -2
BITMAP 
0000
0000
0000
0000
0000
0000
0000
0000
0000
eee0
eee0
76c0
76c0
3f80
3f80
76c0
76c0
eef0
eef0
0070
00e0
00e0
0000
0000
ENDCHAR
STARTCHAR U+0498
ENCODING 1176
SWIDTH 500 0
DWIDTH 12 0
BBX 12 24 0 -2
BITMAP 
0000
0000
0000
0000
0000
1f80
3fc0
70e0
70e0
00e0
01c0
0f80
0f80
01c0
00e0
70e0
70e0
3fc0
1f80
0700
0780
01c0
0fc0
0f80
ENDCHAR
STARTCHAR U+0499
ENCODING 1177
SWIDTH 500 0
DWIDTH 12 0
BBX 12 24 0 -2
BITMAP 
0000
0000
0000
0000
0000
0000
0000
0000
0000
1f80
3fc0
70e0
00e0
0fc0
0fc0
00e0
70e0
3fc0
1f80
0700
0780
01c0
0fc0
0f80
ENDCHAR
STARTCHAR U+049A
ENCODING 1178
SWIDTH 500 0
DWIDTH 12 0
BBX 12 24 0 -2
BITMAP 
0000
0000
0000
0000
0000
e1c0
e3c0
e700
e700
ee00
ee00
fc00
fc00
ee00
e700
e700
e380
e1e0
e1e0
00e0
01c0
01c0
0000
0000
ENDCHAR
STARTCHAR U+049B
ENCODING 1179
SWIDTH 500 0
DWIDTH 12 0
BBX 12 24 0 -2
BITMAP 
0000
0000
0000
0000
0000
0000
0000
0000
0000
e3c0
e7c0
ef00
ee00
fc00
fe00
ef00
e780
e3e0
e1e0
00e0
01c0
01c0
0000
0000
ENDCHAR
STARTCHAR U+049C
ENCODING 1180
SWIDTH 500 0
DWIDTH 12 0
BBX 12 24 0 -2
BITMAP 
0000
0000
0000
0000
0000
e0e0
e1e0
e380
ed80
ed80
ed80
ff00
ff00
ed80
ed80
ed80
e1c0
e0e0
e0e0
0000
0000
0000
0000
0000
ENDCHAR
STARTCHAR U+049D
ENCODING 1181
SWIDTH 500 0
DWIDTH 12 0
BBX 12 24 0 -2
BITMAP 
0000
0000
0000
0000
0000
0000
0000
0000
0000
e1e0
e3e0
ed80
ed80
ff00
ff00
ed80
edc0
e1e0
e0e0
0000
0000
0000
0000
0000
ENDCHAR
STARTCHAR U+049E
ENCODING 1182
SWIDTH 500 0
DWIDTH 12 0
BBX 12 24 0 -2
BITMAP 
0000
0000
0000
0000
0000
70e0
fde0
fd80
7380
7700
7700
7e00
7e00
7700
7380
7380
71c0
70e0
70e0
0000
0000
0000
0000
0000
ENDCHAR
STARTCHAR U+049F
ENCODING 1183
SWIDTH 500 0
DWIDTH 12 0
BBX 12 24 0 -2
BITMAP 
0000
0000
0000
0000
0000
0000
0000
0000
0000
71e0
fde0
fd80
7380
7f00
7f00
7380
73c0
71e0
70e0
0000
0000
0000
0000
0000
ENDCHAR
STARTCHAR U+04A0
ENCODING 1184
SWIDTH 500 0
DWIDTH 12 0
BBX 12 24 0 -2
BITMAP 
0000
0000
0000
0000
0000
f8e0
f9e0
3b80
3b80
3b00
3b00
3e00
3e00
3b00
3b80
3b80
39c0
38e0
38e0
0000
0000
0000
0000
0000
ENDCHAR
STARTCHAR U+04A1
ENCODING 1185
SWIDTH 500 0
DWIDTH 12 0
BBX 12 24 0 -2
BITMAP 
0000
0000
0000
0000
0000
0000
0000
0000
0000
f9e0
fbe0
3b80
3b00
3e00
3f00
3b80
3bc0
39e0
38e0
0000
0000
0000
0000
0000
ENDCHAR
STARTCHAR U+04A2
ENCODING 1186
SWIDTH 500 0
DWIDTH 12 0
BBX 12 24 0 -2
BITMAP 
0000
0000
0000
0000
0000
e1c0
e1c0
e1c0
e1c0
e1c0
e1c0
ffc0
ffc0
e1c0
e1c0
e1c0
e1c0
e1e0
e1e0
00e0
01c0
01c0
0000
0000
ENDCHAR
STARTCHAR U+04A3
ENCODING 1187
SWIDTH 500 0
DWIDTH 12 0
BBX 12 24 0 -2
BITMAP 
0000
0000
0000
0000
0000
0000
0000
0000
0000
e1c0
e1c0
e1c0
e1c0
ffc0
ffc0
e1c0
e1c0
e1e0
e1e0
00e0
01c0
01c0
0000
0000
ENDCHAR
STARTCHAR U+04A4
ENCODING 1188
SWIDTH 500 0
DWIDTH 12 0
BBX 12 24 0 -2
BITMAP 
0000
0000
0000
0000
0000
e7e0
e7e0
e700
e700
e700
e700
ff00
ff00
e700
e700
e700
e700
e700
e700
0000
0000
0000
0000
0000
ENDCHAR
STARTCHAR U+04A5
ENCODING 1189
SWIDTH 500 0
DWIDTH 12 0
BBX 12 24 0 -2
BITMAP 
0000
0000
0000
0000
0000
0000
0000
0000
0000
e7e0
e7e0
e700
e700
ff00
ff00
e700
e700
e700
e700
0000
0000
0000
0000
0000
ENDCHAR
STARTCHAR U+04A6
ENCODING 1190
SWIDTH 500 0
DWIDTH 12 0
BBX 12 24 0 -2
BITMAP 
0000
0000
0000
0000
0000
ff00
ff00
e700
e700
e700
e700
e7c0
e7e0
e760
e760
e760
e760
e760
e760
00e0
01e0
01c0
0000
0000
ENDCHAR
STARTCHAR U+04A7
ENCODING 1191
SWIDTH 500 0
DWIDTH 12 0
BBX 12 24 0 -2
BITMAP 
0000
0000
0000
0000
0000
0000
0000
0000
0000
ff00
ff00
e700
e700
e7c0
e7e0
e760
e760
e760
e760
00e0
01e0
01c0
0000
0000
ENDCHAR
STARTCHAR U+04A8
ENCODING 1192
SWIDTH 500 0
DWIDTH 12 0
BBX 12 24 0 -2
BITMAP 
0000
0000
0000
0000
0000
1f00
3f00
7800
f000
e700
ef80
edc0
edc0
edc0
edc0
f780
7f00
3f00
07e0
03e0
0000
0000
0000
0000
ENDCHAR
STARTCHAR U+04A9
ENCODING 1193
SWIDTH 500 0
DWIDTH 12 0
BBX 12 24 0 -2
BITMAP 
0000
0000
0000
0000
0000
0000
0000
0000
1f00
3f00
7800
f780
efc0
edc0
edc0
f7c0
7f80
3f00
07e0
03e0
0000
0000
0000
0000
ENDCHAR
STARTCHAR U+04AA
ENCODING 1194
SWIDTH 500 0
DWIDTH 12 0
BBX 12 24 0 -2
BITMAP 
0000
0000
0000
0000
0000
1f80
3fc0
79e0
70e0
7000
7000
7000
7000
7000
7000
70e0
79e0
3fc0
1f80
0700
0f00
1c00
1f80
0f80
ENDCHAR
STARTCHAR U+04AB
ENCODING 1195
SWIDTH 500 0
DWIDTH 12 0
BBX 12 24 0 -2
BITMAP 
0000
0000
0000
0000
0000
0000
0000
0000
0000
0fc0
3fc0
78e0
70e0
7000
7000
7000
78e0
3fe0
1fc0
0700
0f00
1c00
1f80
0f80
ENDCHAR
STARTCHAR U+04AC
ENCODING 1196
SWIDTH 500 0
DWIDTH 12 0
BBX 12 24 0 -2
BITMAP 
0000
0000
0000
0000
0000
ffe0
ffe0
0e00
0e00
0e00
0e00
0e00
0e00
0e00
0e00
0e00
0e00
0f00
0f00
0700
0e00
0e00
0000
0000
ENDCHAR
STARTCHAR U+04AD
ENCODING 1197
SWIDTH 500 0
DWIDTH 12 0
BBX 12 24 0 -2
BITMAP 
0000
0000
0000
0000
0000
0000
0000
0000
0000
ffe0
ffe0
0e00
0e00
0e00
0e00
0e00
0e00
0f00
0f00
0700
0e00
0e00
0000
0000
ENDCHAR
STARTCHAR U+04AE
ENCODING 1198
SWIDTH 500 0
DWIDTH 12 0
BBX 12 24 0 -2
BITMAP 
0000
0000
0000
0000
0000
e0e0
e0e0
71c0
71c0
3b80
3f80
1f00
0e00
0e00
0e00
0e00
0e00
0e00
0e00
0000
0000
0000
0000
0000
ENDCHAR
STARTCHAR U+04AF
ENCODING 1199
SWIDTH 500 0
DWIDTH 12 0
BBX 12 24 0 -2
BITMAP 
0000
0000
0000
0000
0000
0000
0000
0000
0000
0000
71c0
71c0
71c0
71c0
3b80
3f80
1f00
0e00
0e00
0e00
0e00
0e00
0e00
0e00
ENDCHAR
STARTCHAR U+04B0
ENCODING 1200
SWIDTH 500 0
DWIDTH 12 0
BBX 12 24 0 -2
BITMAP 
0000
0000
0000
0000
0000
e0e0
e0e0
71c0
71c0
3b80
3f80
1f00
0e00
0e00
7fc0
7fc0
0e00
0e00
0e00
0000
0000
0000
0000
0000
ENDCHAR
STARTCHAR U+04B1
ENCODING 1201
SWIDTH 500 0
DWIDTH 12 0
BBX 12 24 0 -2
BITMAP 
0000
0000
0000
0000
0000
0000
0000
0000
0000
0000
71c0
71c0
71c0
71c0
3b80
3f80
1f00
0e00
7fc0
7fc0
0e00
0e00
0e00
0e00
ENDCHAR
STARTCHAR U+04B2
ENCODING 1202
SWIDTH 500 0
DWIDTH 12 0
BBX 12 24 0 -2
BITMAP 
0000
0000
0000
0000
0000
e1c0
e1c0
7380
7380
3b00
3b00
1e00
1e00
3b00
3b00
7380
7380
e1e0
e1e0
00e0
01c0
01c0
0000
0000
ENDCHAR
STARTCHAR U+04B3
ENCODING 1203
SWIDTH 500 0
DWIDTH 12 0
BBX 12 24 0 -2
BITMAP 
0000
0000
0000
0000
0000
0000
0000
0000
0000
e1c0
f3c0
7b80
3f00
1e00
1e00
3f00
7b80
f3e0
e1e0
00e0
01c0
01c0
0000
0000
ENDCHAR
STARTCHAR U+04B4
ENCODING 1204
SWIDTH 500 0
DWIDTH 12 0
BBX 12 24 0 -2
BITMAP 
0000
0000
0000
0000
0000
ff60
ff60
1ce0
1ce0
1ce0
1ce0
1ce0
1ce0
1ce0
1ce0
1ce0
1ce0
1fe0
1fe0
00e0
00e0
00e0
0000
0000
ENDCHAR
STARTCHAR U+04B5
ENCODING 1205
SWIDTH 500 0
DWIDTH 12 0
BBX 12 24 0 -2
BITMAP 
0000
0000
0000
0000
0000
0000
0000
0000
0000
ff60
ff60
1ce0
1ce0
1ce0
1ce0
1ce0
1ce0
1fe0
1fe0
00e0
00e0
0060
0000
0000
ENDCHAR
STARTCHAR U+04B6
ENCODING 1206
SWIDTH 500 0
DWIDTH 12 0
BBX 12 24 0 -2
BITMAP 
0000
0000
0000
0000
0000
e1c0
e1c0
e1c0
e1c0
e1c0
e1c0
e3c0
f7c0
7ec0
3dc0
01c0
01c0
01e0
01e0
00e0
01c0
01c0
0000
0000
ENDCHAR
STARTCHAR U+04B7
ENCODING 1207
SWIDTH 500 0
DWIDTH 12 0
BBX 12 24 0 -2
BITMAP 
0000
0000
0000
0000
0000
0000
0000
0000
0000
e1c0
e1c0
e1c0
e1c0
f7c0
7fc0
3dc0
01c0
01e0
01e0
00e0
01c0
01c0
0000
0000
ENDCHAR
STARTCHAR U+04B8
ENCODING 1208
SWIDTH 500 0
DWIDTH 12 0
BBX 12 24 0 -2
BITMAP 
0000
0000
0000
0000
0000
e0e0
e0e0
e0e0
e0e0
e0e0
eee0
eee0
f7e0
7f60
3ee0
0ee0
0ee0
00e0
00e0
0000
0000
0000
0000
0000
ENDCHAR
STARTCHAR U+04B9
ENCODING 1209
SWIDTH 500 0
DWIDTH 12 0
BBX 12 24 0 -2
BITMAP 
0000
0000
0000
0000
0000
0000
0000
0000
0000
e0e0
e0e0
eee0
eee0
f7e0
7fe0
3ee0
0ee0
0ee0
00e0
0000
0000
0000
0000
0000
ENDCHAR
STARTCHAR U+04BA
ENCODING 1210
SWIDTH 500 0
DWIDTH 12 0
BBX 12 24 0 -2
BITMAP 
0000
0000
0000
0000
0000
7000
7000
7000
7000
7780
77c0
7de0
78e0
70e0
70e0
70e0
70e0
70e0
70e0
0000
0000
0000
0000
0000
ENDCHAR
STARTCHAR U+04BB
ENCODING 1211
SWIDTH 500 0
DWIDTH 12 0
BBX 12 24 0 -2
BITMAP 
0000
0000
0000
0000
0000
0000
0000
0000
0000
7000
7000
7000
7780
7fc0
7de0
70e0
70e0
70e0
70e0
0000
0000
0000
0000
0000
ENDCHAR
STARTCHAR U+04BC
ENCODING 1212
SWIDTH 500 0
DWIDTH 12 0
BBX 12 24 0 -2
BITMAP 
0000
0000
0000
0000
0000
7780
f7c0
eee0
ece0
ece0
fce0
7fe0
3fe0
1c00
1c00
1c00
1ee0
0fe0
07c0
0000
0000
0000
0000
0000
ENDCHAR
STARTCHAR U+04BD
ENCODING 1213
SWIDTH 500 0
DWIDTH 12 0
BBX 12 24 0 -2
BITMAP 
0000
0000
0000
0000
0000
0000
0000
0000
0000
0780
efc0
ece0
ece0
ffe0
7fe0
1c00
1ce0
0fe0
07c0
0000
0000
0000
0000
0000
ENDCHAR
STARTCHAR U+04BE
ENCODING 1214
SWIDTH 500 0
DWIDTH 12 0
BBX 12 24 0 -2
BITMAP 
0000
0000
0000
0000
0000
7780
f7c0
eee0
ece0
ece0
fce0
7fe0
3fe0
1c00
1c00
1c00
1ee0
0fe0
07c0
0380
0780
0e00
0fc0
07c0
ENDCHAR
STARTCHAR U+04BF
ENCODING 1215
SWIDTH 500 0
DWIDTH 12 0
BBX 12 24 0 -2
BITMAP 
0000
0000
0000
0000
0000
0000
0000
0000
0000
0780
efc0
ece0
ece0
ffe0
7fe0
1c00
1ce0
0fe0
07c0
0380
0780
0e00
0fc0
07c0
ENDCHAR
STARTCHAR U+04C0
ENCODING 1216
SWIDTH 500 0
DWIDTH 12 0
BBX 12 24 0 -2
BITMAP 
0000
0000
0000
0000
0000
3f80
3f80
0e00
0e00
0e00
0e00
0e00
0e00
0e00
0e00
0e00
0e00
3f80
3f80
0000
0000
0000
0000
0000
ENDCHAR
STARTCHAR U+04C1
ENCODING 1217
SWIDTH 500 0
DWIDTH 12 0
BBX 12 24 0 -2
BITMAP 
71c0
71c0
3f80
0000
0000
eee0
eee0
76c0
76c0
76c0
3f80
3f80
1f00
3f80
3f80
76c0
76c0
eee0
eee0
0000
0000
0000
0000
0000
ENDCHAR
STARTCHAR U+04C2
ENCODING 1218
SWIDTH 500 0
DWIDTH 12 0
BBX 12 24 0 -2
BITMAP 
0000
0000
0000
0000
3b80
3b80
1f00
0000
0000
eee0
eee0
76c0
76c0
3f80
3f80
76c0
76c0
eee0
eee0
0000
0000
0000
0000
0000
ENDCHAR
STARTCHAR U+04C3
ENCODING 1219
SWIDTH 500 0
DWIDTH 12 0
BBX 12 24 0 -2
BITMAP 
0000
0000
0000
0000
0000
e1c0
e3c0
e700
e700
ee00
ec00
ff00
ff80
e3c0
e1c0
e1c0
e1c0
e1c0
e1c0
03c0
1f80
1f00
0000
0000
ENDCHAR
STARTCHAR U+04C4
ENCODING 1220
SWIDTH 500 0
DWIDTH 12 0
BBX 12 24 0 -2
BITMAP 
0000
0000
0000
0000
0000
0000
0000
0000
0000
71e0
73e0
7700
7600
7f80
7fc0
70e0
70e0
70e0
70e0
01e0
0fc0
0f80
0000
0000
ENDCHAR
STARTCHAR U+04C7
ENCODING 1223
SWIDTH 500 0
DWIDTH 12 0
BBX 12 24 0 -2
BITMAP 
0000
0000
0000
0000
0000
70e0
70e0
70e0
70e0
70e0
70e0
7fe0
7fe0
70e0
70e0
70e0
70e0
70e0
70e0
01e0
0fc0
0f80
0000
0000
ENDCHAR
STARTCHAR U+04C8
ENCODING 1224
SWIDTH 500 0
DWIDTH 12 0
BBX 12 24 0 -2
BITMAP 
0000
0000
0000
0000
0000
0000
0000
0000
0000
70e0
70e0
70e0
70e0
7fe0
7fe0
70e0
70e0
70e0
70e0
01e0
0fc0
0f80
0000
0000
ENDCHAR
STARTCHAR U+04CB
ENCODING 1227
SWIDTH 500 0
DWIDTH 12 0
BBX 12 24 0 -2
BITMAP 
0000
0000
0000
0000
0000
70e0
70e0
70e0
70e0
70e0
70e0
71e0
7be0
3f60
1ee0
00e0
00e0
00e0
03e0
03c0
0380
0300
0000
0000
ENDCHAR
STARTCHAR U+04CC
ENCODING 1228
SWIDTH 500 0
DWIDTH 12 0
BBX 12 24 0 -2
BITMAP 
0000
0000
0000
0000
0000
0000
0000
0000
0000
70e0
70e0
70e0
70e0
7be0
3fe0
1ee0
00e0
00e0
03e0
03c0
0380
0300
0000
0000
ENDCHAR
STARTCHAR U+04D0
ENCODING 1232
SWIDTH 500 0
DWIDTH 12 0
BBX 12 24 0 -2
BITMAP 
39c0
39c0
1f80
0000
0000
1f80
3fc0
79e0
70e0
70e0
70e0
7fe0
7fe0
70e0
70e0
70e0
70e0
70e0
70e0
0000
0000
0000
0000
0000
ENDCHAR
STARTCHAR U+04D1
ENCODING 1233
SWIDTH 500 0
DWIDTH 12 0
BBX 12 24 0 -2
BITMAP 
0000
0000
0000
1dc0
1dc0
0f80
0000
0000
0f80
1fc0
38e0
00e0
0fe0
3fe0
70e0
71e0
73e0
7f60
3ee0
0000
0000
0000
0000
0000
ENDCHAR
STARTCHAR U+04D2
ENCODING 1234
SWIDTH 500 0
DWIDTH 12 0
BBX 12 24 0 -2
BITMAP 
0000
39c0
39c0
0000
0000
1f80
3fc0
79e0
70e0
70e0
70e0
7fe0
7fe0
70e0
70e0
70e0
70e0
70e0
70e0
0000
0000
0000
0000
0000
ENDCHAR
STARTCHAR U+04D3
ENCODING 1235
SWIDTH 500 0
DWIDTH 12 0
BBX 12 24 0 -2
BITMAP 
0000
0000
0000
0000
1dc0
1dc0
0000
0000
0f80
1fc0
38e0
00e0
0fe0
3fe0
70e0
71e0
73e0
7f60
3ee0
0000
0000
0000
0000
0000
ENDCHAR
STARTCHAR U+04D4
ENCODING 1236
SWIDTH 500 0
DWIDTH 12 0
BBX 12 24 0 -2
BITMAP 
0000
0000
0000
0000
0000
3fe0
3fe0
7700
7700
e700
e7e0
ffe0
ff00
e700
e700
e700
e700
e7e0
e7e0
0000
0000
0000
0000
0000
ENDCHAR
STARTCHAR U+04D5
ENCODING 1237
SWIDTH 500 0
DWIDTH 12 0
BBX 12 24 0 -2
BITMAP 
0000
0000
0000
0000
0000
0000
0000
0000
7bc0
ffe0
cee0
0ee0
3fe0
7fc0
ee00
ee00
eee0
ffe0
7fc0
0000
0000
0000
0000
0000
ENDCHAR
STARTCHAR U+04D6
ENCODING 1238
SWIDTH 500 0
DWIDTH 12 0
BBX 12 24 0 -2
BITMAP 
39c0
39c0
1f80
0000
0000
7fe0
7fe0
7000
7000
7000
7000
7f80
7f80
7000
7000
7000
7000
7fe0
7fe0
0000
0000
0000
0000
0000
ENDCHAR
STARTCHAR U+04D7
ENCODING 1239
SWIDTH 500 0
DWIDTH 12 0
BBX 12 24 0 -2
BITMAP 
0000
0000
0000
1dc0
1dc0
0f80
0000
0000
0000
1f80
3fc0
78e0
70e0
7fe0
7fe0
7000
70e0
3fe0
1fc0
0000
0000
0000
0000
0000
ENDCHAR
STARTCHAR U+04D8
ENCODING 1240
SWIDTH 500 0
DWIDTH 12 0
BBX 12 24 0 -2
BITMAP 
0000
0000
0000
0000
0000
3f80
7fc0
f1e0
e0e0
00e0
00e0
00e0
ffe0
ffe0
e0e0
e0e0
f1e0
7fc0
3f80
0000
0000
0000
0000
0000
ENDCHAR
STARTCHAR U+04D9
ENCODING 1241
SWIDTH 500 0
DWIDTH 12 0
BBX 12 24 0 -2
BITMAP 
0000
0000
0000
0000
0000
0000
0000
0000
0000
3f80
7fc0
70e0
00e0
7fe0
7fe0
70e0
71e0
3fc0
1f80
0000
0000
0000
0000
0000
ENDCHAR
STARTCHAR U+04DA
ENCODING 1242
SWIDTH 500 0
DWIDTH 12 0
BBX 12 24 0 -2
BITMAP 
0000
3b80
3b80
0000
0000
3f80
7fc0
f1e0
e0e0
00e0
00e0
00e0
ffe0
ffe0
e0e0
e0e0
f1e0
7fc0
3f80
0000
0000
0000
0000
0000
ENDCHAR
STARTCHAR U+04DB
ENCODING 1243
SWIDTH 500 0
DWIDTH 12 0
BBX 12 24 0 -2
BITMAP 
0000
0000
0000
0000
0000
39c0
39c0
0000
0000
3f80
7fc0
70e0
00e0
7fe0
7fe0
70e0
71e0
3fc0
1f80
0000
0000
0000
0000
0000
ENDCHAR
STARTCHAR U+04DC
ENCODING 1244
SWIDTH 500 0
DWIDTH 12 0
BBX 12 24 0 -2
BITMAP 
0000
3b80
3b80
0000
0000
eee0
eee0
76c0
76c0
76c0
3f80
3f80
1f00
3f80
3f80
76c0
76c0
eee0
eee0
0000
0000
0000
0000
0000
ENDCHAR
STARTCHAR U+04DD
ENCODING 1245
SWIDTH 500 0
DWIDTH 12 0
BBX 12 24 0 -2
BITMAP 
0000
0000
0000
0000
0000
3b80
3b80
0000
0000
eee0
eee0
76c0
76c0
3f80
3f80
76c0
76c0
eee0
eee0
0000
0000
0000
0000
0000
ENDCHAR
STARTCHAR U+04DE
ENCODING 1246
SWIDTH 500 0
DWIDTH 12 0
BBX 12 24 0 -2
BITMAP 
0000
39c0
39c0
0000
0000
1f80
3fc0
70e0
70e0
00e0
01c0
0f80
0f80
01c0
00e0
70e0
70e0
3fc0
1f80
0000
0000
0000
0000
0000
ENDCHAR
STARTCHAR U+04DF
ENCODING 1247
SWIDTH 500 0
DWIDTH 12 0
BBX 12 24 0 -2
BITMAP 
0000
0000
0000
0000
0000
39c0
39c0
0000
0000
1f80
3fc0
70e0
00e0
0fc0
0fc0
00e0
70e0
3fc0
1f80
0000
0000
0000
0000
0000
ENDCHAR
STARTCHAR U+04E0
ENCODING 1248
SWIDTH 500 0
DWIDTH 12 0
BBX 12 24 0 -2
BITMAP 
0000
0000
0000
0000
0000
7fc0
7fc0
0380
0700
0e00
1f80
1fc0
01e0
00e0
00e0
00e0
71e0
7fc0
3f80
0000
0000
0000
0000
0000
ENDCHAR
STARTCHAR U+04E1
ENCODING 1249
SWIDTH 500 0
DWIDTH 12 0
BBX 12 24 0 -2
BITMAP 
0000
0000
0000
0000
0000
0000
0000
0000
0000
3f80
3f80
0380
0700
0e00
1f00
1f80
03c0
01c0
01c0
01c0
73c0
7f80
3f00
0000
ENDCHAR
STARTCHAR U+04E2
ENCODING 1250
SWIDTH 500 0
DWIDTH 12 0
BBX 12 24 0 -2
BITMAP 
0000
3fc0
3fc0
0000
0000
70e0
71e0
71e0
73e0
73e0
7760
7760
76e0
76e0
7ce0
7ce0
78e0
78e0
70e0
0000
0000
0000
0000
0000
ENDCHAR
STARTCHAR U+04E3
ENCODING 1251
SWIDTH 500 0
DWIDTH 12 0
BBX 12 24 0 -2
BITMAP 
0000
0000
0000
0000
0000
3fc0
3fc0
0000
0000
70e0
70e0
71e0
73e0
7760
76e0
7ce0
78e0
70e0
70e0
0000
0000
0000
0000
0000
ENDCHAR
STARTCHAR U+04E4
ENCODING 1252
SWIDTH 500 0
DWIDTH 12 0
BBX 12 24 0 -2
BITMAP 
0000
39c0
39c0
0000
0000
70e0
71e0
71e0
73e0
73e0
7760
7760
76e0
76e0
7ce0
7ce0
78e0
78e0
70e0
0000
0000
0000
0000
0000
ENDCHAR
STARTCHAR U+04E5
ENCODING 1253
SWIDTH 500 0
DWIDTH 12 0
BBX 12 24 0 -2
BITMAP 
0000
0000
0000
0000
0000
39c0
39c0
0000
0000
70e0
70e0
71e0
73e0
7760
76e0
7ce0
78e0
70e0
70e0
0000
0000
0000
0000
0000
ENDCHAR
STARTCHAR U+04E6
ENCODING 1254
SWIDTH 500 0
DWIDTH 12 0
BBX 12 24 0 -2
BITMAP 
0000
39c0
39c0
0000
0000
1f80
3fc0
79e0
70e0
70e0
70e0
70e0
70e0
70e0
70e0
70e0
79e0
3fc0
1f80
0000
0000
0000
0000
0000
ENDCHAR
STARTCHAR U+04E7
ENCODING 1255
SWIDTH 500 0
DWIDTH 12 0
BBX 12 24 0 -2
BITMAP 
0000
0000
0000
0000
0000
39c0
39c0
0000
0000
1f80
3fc0
79e0
70e0
70e0
70e0
70e0
79e0
3fc0
1f80
0000
0000
0000
0000
0000
ENDCHAR
STARTCHAR U+04E8
ENCODING 1256
SWIDTH 500 0
DWIDTH 12 0
BBX 12 24 0 -2
BITMAP 
0000
0000
0000
0000
0000
1f80
3fc0
79e0
70e0
70e0
70e0
7fe0
7fe0
70e0
70e0
70e0
79e0
3fc0
1f80
0000
0000
0000
0000
0000
ENDCHAR
STARTCHAR U+04E9
ENCODING 1257
SWIDTH 500 0
DWIDTH 12 0
BBX 12 24 0 -2
BITMAP 
0000
0000
0000
0000
0000
0000
0000
0000
0000
1f80
3fc0
79e0
70e0
7fe0
7fe0
70e0
79e0
3fc0
1f80
0000
0000
0000
0000
0000
ENDCHAR
ENDFONT
